solid Remote Control
facet normal -1.0 -6.942300608564472e-34 -5.9084111685968365e-18
  outer loop
    vertex -169.26861642331693 104.88624267212394 3.4000000000000417
    vertex -169.26861642331693 98.88624267212394 0.8600000000000424
    vertex -169.26861642331693 98.88624267212394 3.4000000000000425
  endloop
endfacet
facet normal -1.0 -6.942300608564472e-34 -5.9084111685968365e-18
  outer loop
    vertex -169.26861642331693 98.88624267212394 0.8600000000000424
    vertex -169.26861642331693 104.88624267212394 3.4000000000000417
    vertex -169.26861642331693 104.88624267212394 0.8600000000000417
  endloop
endfacet
facet normal 1.0 0.0 5.9084111685968365e-18
  outer loop
    vertex -109.6086164233169 104.88624267212394 0.8600000000000424
    vertex -109.6086164233169 98.88624267212394 3.4000000000000425
    vertex -109.6086164233169 98.88624267212394 0.8600000000000424
  endloop
endfacet
facet normal 1.0 0.0 5.9084111685968365e-18
  outer loop
    vertex -109.6086164233169 98.88624267212394 3.4000000000000425
    vertex -109.6086164233169 104.88624267212394 0.8600000000000424
    vertex -109.6086164233169 104.88624267212394 3.4000000000000425
  endloop
endfacet
facet normal 6.942300608564469e-34 1.0 -5.874930171974786e-17
  outer loop
    vertex -169.26861642331693 104.88624267212394 3.4000000000000417
    vertex -109.6086164233169 104.88624267212394 0.8600000000000424
    vertex -169.26861642331693 104.88624267212394 0.8600000000000417
  endloop
endfacet
facet normal 6.942300608564469e-34 1.0 -5.874930171974786e-17
  outer loop
    vertex -109.6086164233169 104.88624267212394 0.8600000000000424
    vertex -169.26861642331693 104.88624267212394 3.4000000000000417
    vertex -109.6086164233169 104.88624267212394 3.4000000000000425
  endloop
endfacet
facet normal -5.908411168596836e-18 5.874930171974786e-17 1.0
  outer loop
    vertex -109.6086164233169 98.88624267212394 3.4000000000000425
    vertex -169.26861642331693 104.88624267212394 3.4000000000000417
    vertex -169.26861642331693 98.88624267212394 3.4000000000000425
  endloop
endfacet
facet normal -5.908411168596836e-18 5.874930171974786e-17 1.0
  outer loop
    vertex -169.26861642331693 104.88624267212394 3.4000000000000417
    vertex -109.6086164233169 98.88624267212394 3.4000000000000425
    vertex -109.6086164233169 104.88624267212394 3.4000000000000425
  endloop
endfacet
facet normal 5.908411168596836e-18 -5.874930171974786e-17 -1.0
  outer loop
    vertex -109.6086164233169 104.88624267212394 0.8600000000000424
    vertex -169.26861642331693 98.88624267212394 0.8600000000000424
    vertex -169.26861642331693 104.88624267212394 0.8600000000000417
  endloop
endfacet
facet normal 5.908411168596836e-18 -5.874930171974786e-17 -1.0
  outer loop
    vertex -169.26861642331693 98.88624267212394 0.8600000000000424
    vertex -109.6086164233169 104.88624267212394 0.8600000000000424
    vertex -109.6086164233169 98.88624267212394 0.8600000000000424
  endloop
endfacet
facet normal 0.0 -1.0 5.874930171974786e-17
  outer loop
    vertex -109.6086164233169 98.88624267212394 3.4000000000000425
    vertex -169.26861642331693 98.88624267212394 0.8600000000000424
    vertex -109.6086164233169 98.88624267212394 0.8600000000000424
  endloop
endfacet
facet normal 0.0 -1.0 5.874930171974786e-17
  outer loop
    vertex -169.26861642331693 98.88624267212394 0.8600000000000424
    vertex -109.6086164233169 98.88624267212394 3.4000000000000425
    vertex -169.26861642331693 98.88624267212394 3.4000000000000425
  endloop
endfacet
endsolid Remote Control
