solid Remote Control
facet normal -0.13052619222005202 -0.9914448613738105 -0.0
  outer loop
    vertex -63.99343192796541 -83.61954293275932 -0.3
    vertex -67.87571760450324 -83.10843032709533 -2.3
    vertex -63.99343192796541 -83.61954293275932 -2.3
  endloop
endfacet
facet normal -0.13052619222005202 -0.9914448613738105 -0.0
  outer loop
    vertex -67.87571760450324 -83.10843032709533 -2.3
    vertex -63.99343192796541 -83.61954293275932 -0.3
    vertex -67.87571760450324 -83.10843032709533 -0.3
  endloop
endfacet
facet normal -0.6087614290087221 -0.7933533402912342 -0.0
  outer loop
    vertex -71.49343192796542 -81.60992398952588 -0.3
    vertex -74.60003364576363 -79.22614465055753 -2.3
    vertex -71.49343192796542 -81.60992398952588 -2.3
  endloop
endfacet
facet normal -0.6087614290087221 -0.7933533402912342 -0.0
  outer loop
    vertex -74.60003364576363 -79.22614465055753 -2.3
    vertex -71.49343192796542 -81.60992398952588 -0.3
    vertex -74.60003364576363 -79.22614465055753 -0.3
  endloop
endfacet
facet normal 0.13052619222005116 -0.9914448613738106 0.0
  outer loop
    vertex -60.1111462514276 -83.10843032709535 -0.3
    vertex -63.99343192796541 -83.61954293275932 -2.3
    vertex -60.1111462514276 -83.10843032709535 -2.3
  endloop
endfacet
facet normal 0.13052619222005116 -0.9914448613738106 0.0
  outer loop
    vertex -63.99343192796541 -83.61954293275932 -2.3
    vertex -60.1111462514276 -83.10843032709535 -0.3
    vertex -63.99343192796541 -83.61954293275932 -0.3
  endloop
endfacet
facet normal -0.38268343236508967 -0.9238795325112867 -0.0
  outer loop
    vertex -67.87571760450324 -83.10843032709533 -0.3
    vertex -71.49343192796542 -81.60992398952588 -2.3
    vertex -67.87571760450324 -83.10843032709533 -2.3
  endloop
endfacet
facet normal -0.38268343236508967 -0.9238795325112867 -0.0
  outer loop
    vertex -71.49343192796542 -81.60992398952588 -2.3
    vertex -67.87571760450324 -83.10843032709533 -0.3
    vertex -71.49343192796542 -81.60992398952588 -0.3
  endloop
endfacet
facet normal 0.3826834323650891 -0.9238795325112871 0.0
  outer loop
    vertex -56.493431927965425 -81.6099239895259 -0.3
    vertex -60.1111462514276 -83.10843032709535 -2.3
    vertex -56.493431927965425 -81.6099239895259 -2.3
  endloop
endfacet
facet normal 0.3826834323650891 -0.9238795325112871 0.0
  outer loop
    vertex -60.1111462514276 -83.10843032709535 -2.3
    vertex -56.493431927965425 -81.6099239895259 -0.3
    vertex -60.1111462514276 -83.10843032709535 -0.3
  endloop
endfacet
facet normal 0.7933533402912349 -0.608761429008721 0.0
  outer loop
    vertex -51.00305087119884 -76.11954293275932 -2.3
    vertex -53.38683021016719 -79.22614465055753 -0.3
    vertex -53.38683021016719 -79.22614465055753 -2.3
  endloop
endfacet
facet normal 0.7933533402912349 -0.608761429008721 0.0
  outer loop
    vertex -53.38683021016719 -79.22614465055753 -0.3
    vertex -51.00305087119884 -76.11954293275932 -2.3
    vertex -51.00305087119884 -76.11954293275932 -0.3
  endloop
endfacet
facet normal 0.9238795325112863 -0.382683432365091 0.0
  outer loop
    vertex -49.504544533629385 -72.50182860929714 -2.3
    vertex -51.00305087119884 -76.11954293275932 -0.3
    vertex -51.00305087119884 -76.11954293275932 -2.3
  endloop
endfacet
facet normal 0.9238795325112863 -0.382683432365091 0.0
  outer loop
    vertex -51.00305087119884 -76.11954293275932 -0.3
    vertex -49.504544533629385 -72.50182860929714 -2.3
    vertex -49.504544533629385 -72.50182860929714 -0.3
  endloop
endfacet
facet normal 0.6087614290087203 0.7933533402912356 0.0
  outer loop
    vertex -56.4934319279654 -55.629161875992736 -0.3
    vertex -53.38683021016719 -58.0129412149611 -2.3
    vertex -56.4934319279654 -55.629161875992736 -2.3
  endloop
endfacet
facet normal 0.6087614290087203 0.7933533402912356 0.0
  outer loop
    vertex -53.38683021016719 -58.0129412149611 -2.3
    vertex -56.4934319279654 -55.629161875992736 -0.3
    vertex -53.38683021016719 -58.0129412149611 -0.3
  endloop
endfacet
facet normal 0.7933533402912356 0.6087614290087201 0.0
  outer loop
    vertex -53.38683021016719 -58.0129412149611 -2.3
    vertex -51.00305087119883 -61.11954293275932 -0.3
    vertex -51.00305087119883 -61.11954293275932 -2.3
  endloop
endfacet
facet normal 0.7933533402912356 0.6087614290087201 0.0
  outer loop
    vertex -51.00305087119883 -61.11954293275932 -0.3
    vertex -53.38683021016719 -58.0129412149611 -2.3
    vertex -53.38683021016719 -58.0129412149611 -0.3
  endloop
endfacet
facet normal 0.923879532511287 0.3826834323650894 0.0
  outer loop
    vertex -51.00305087119883 -61.11954293275932 -2.3
    vertex -49.504544533629385 -64.7372572562215 -0.3
    vertex -49.504544533629385 -64.7372572562215 -2.3
  endloop
endfacet
facet normal 0.923879532511287 0.3826834323650894 0.0
  outer loop
    vertex -49.504544533629385 -64.7372572562215 -0.3
    vertex -51.00305087119883 -61.11954293275932 -2.3
    vertex -51.00305087119883 -61.11954293275932 -0.3
  endloop
endfacet
facet normal 0.9914448613738105 -0.13052619222005132 0.0
  outer loop
    vertex -48.99343192796541 -68.6195429327593 -2.3
    vertex -49.504544533629385 -72.50182860929714 -0.3
    vertex -49.504544533629385 -72.50182860929714 -2.3
  endloop
endfacet
facet normal 0.9914448613738105 -0.13052619222005132 0.0
  outer loop
    vertex -49.504544533629385 -72.50182860929714 -0.3
    vertex -48.99343192796541 -68.6195429327593 -2.3
    vertex -48.99343192796541 -68.6195429327593 -0.3
  endloop
endfacet
facet normal 0.6087614290087207 -0.793353340291235 0.0
  outer loop
    vertex -53.38683021016719 -79.22614465055753 -0.3
    vertex -56.493431927965425 -81.6099239895259 -2.3
    vertex -53.38683021016719 -79.22614465055753 -2.3
  endloop
endfacet
facet normal 0.6087614290087207 -0.793353340291235 0.0
  outer loop
    vertex -56.493431927965425 -81.6099239895259 -2.3
    vertex -53.38683021016719 -79.22614465055753 -0.3
    vertex -56.493431927965425 -81.6099239895259 -0.3
  endloop
endfacet
facet normal 0.9914448613738104 0.13052619222005174 0.0
  outer loop
    vertex -49.504544533629385 -64.7372572562215 -2.3
    vertex -48.99343192796541 -68.6195429327593 -0.3
    vertex -48.99343192796541 -68.6195429327593 -2.3
  endloop
endfacet
facet normal 0.9914448613738104 0.13052619222005174 0.0
  outer loop
    vertex -48.99343192796541 -68.6195429327593 -0.3
    vertex -49.504544533629385 -64.7372572562215 -2.3
    vertex -49.504544533629385 -64.7372572562215 -0.3
  endloop
endfacet
facet normal -0.6087614290087201 0.7933533402912357 0.0
  outer loop
    vertex -74.60003364576363 -58.0129412149611 -0.3
    vertex -71.4934319279654 -55.629161875992736 -2.3
    vertex -74.60003364576363 -58.0129412149611 -2.3
  endloop
endfacet
facet normal -0.6087614290087201 0.7933533402912357 0.0
  outer loop
    vertex -71.4934319279654 -55.629161875992736 -2.3
    vertex -74.60003364576363 -58.0129412149611 -0.3
    vertex -71.4934319279654 -55.629161875992736 -0.3
  endloop
endfacet
facet normal -0.3826834323650892 0.923879532511287 0.0
  outer loop
    vertex -71.4934319279654 -55.629161875992736 -0.3
    vertex -67.87571760450322 -54.130655538423284 -2.3
    vertex -71.4934319279654 -55.629161875992736 -2.3
  endloop
endfacet
facet normal -0.3826834323650892 0.923879532511287 0.0
  outer loop
    vertex -67.87571760450322 -54.130655538423284 -2.3
    vertex -71.4934319279654 -55.629161875992736 -0.3
    vertex -67.87571760450322 -54.130655538423284 -0.3
  endloop
endfacet
facet normal -0.7933533402912353 -0.6087614290087208 -0.0
  outer loop
    vertex -76.983812984732 -76.11954293275932 -0.3
    vertex -74.60003364576363 -79.22614465055753 -2.3
    vertex -74.60003364576363 -79.22614465055753 -0.3
  endloop
endfacet
facet normal -0.7933533402912353 -0.6087614290087208 -0.0
  outer loop
    vertex -74.60003364576363 -79.22614465055753 -2.3
    vertex -76.983812984732 -76.11954293275932 -0.3
    vertex -76.983812984732 -76.11954293275932 -2.3
  endloop
endfacet
facet normal -0.9238795325112871 0.38268343236508917 0.0
  outer loop
    vertex -76.983812984732 -61.11954293275931 -0.3
    vertex -78.48231932230144 -64.7372572562215 -2.3
    vertex -78.48231932230144 -64.7372572562215 -0.3
  endloop
endfacet
facet normal -0.9238795325112871 0.38268343236508917 0.0
  outer loop
    vertex -78.48231932230144 -64.7372572562215 -2.3
    vertex -76.983812984732 -61.11954293275931 -0.3
    vertex -76.983812984732 -61.11954293275931 -2.3
  endloop
endfacet
facet normal 0.13052619222005168 0.9914448613738104 0.0
  outer loop
    vertex -63.99343192796541 -53.61954293275931 -0.3
    vertex -60.1111462514276 -54.130655538423284 -2.3
    vertex -63.99343192796541 -53.61954293275931 -2.3
  endloop
endfacet
facet normal 0.13052619222005168 0.9914448613738104 0.0
  outer loop
    vertex -60.1111462514276 -54.130655538423284 -2.3
    vertex -63.99343192796541 -53.61954293275931 -0.3
    vertex -60.1111462514276 -54.130655538423284 -0.3
  endloop
endfacet
facet normal -0.7933533402912349 0.608761429008721 0.0
  outer loop
    vertex -74.60003364576363 -58.0129412149611 -0.3
    vertex -76.983812984732 -61.11954293275931 -2.3
    vertex -76.983812984732 -61.11954293275931 -0.3
  endloop
endfacet
facet normal -0.7933533402912349 0.608761429008721 0.0
  outer loop
    vertex -76.983812984732 -61.11954293275931 -2.3
    vertex -74.60003364576363 -58.0129412149611 -0.3
    vertex -74.60003364576363 -58.0129412149611 -2.3
  endloop
endfacet
facet normal -0.9238795325112871 -0.38268343236508917 -0.0
  outer loop
    vertex -78.48231932230144 -72.50182860929712 -0.3
    vertex -76.983812984732 -76.11954293275932 -2.3
    vertex -76.983812984732 -76.11954293275932 -0.3
  endloop
endfacet
facet normal -0.9238795325112871 -0.38268343236508917 -0.0
  outer loop
    vertex -76.983812984732 -76.11954293275932 -2.3
    vertex -78.48231932230144 -72.50182860929712 -0.3
    vertex -78.48231932230144 -72.50182860929712 -2.3
  endloop
endfacet
facet normal -0.9914448613738103 -0.1305261922200533 -0.0
  outer loop
    vertex -78.99343192796542 -68.6195429327593 -0.3
    vertex -78.48231932230144 -72.50182860929712 -2.3
    vertex -78.48231932230144 -72.50182860929712 -0.3
  endloop
endfacet
facet normal -0.9914448613738103 -0.1305261922200533 -0.0
  outer loop
    vertex -78.48231932230144 -72.50182860929712 -2.3
    vertex -78.99343192796542 -68.6195429327593 -0.3
    vertex -78.99343192796542 -68.6195429327593 -2.3
  endloop
endfacet
facet normal 0.3826834323650899 0.9238795325112868 0.0
  outer loop
    vertex -60.1111462514276 -54.130655538423284 -0.3
    vertex -56.4934319279654 -55.629161875992736 -2.3
    vertex -60.1111462514276 -54.130655538423284 -2.3
  endloop
endfacet
facet normal 0.3826834323650899 0.9238795325112868 0.0
  outer loop
    vertex -56.4934319279654 -55.629161875992736 -2.3
    vertex -60.1111462514276 -54.130655538423284 -0.3
    vertex -56.4934319279654 -55.629161875992736 -0.3
  endloop
endfacet
facet normal -0.13052619222005188 0.9914448613738104 0.0
  outer loop
    vertex -67.87571760450322 -54.130655538423284 -0.3
    vertex -63.99343192796541 -53.61954293275931 -2.3
    vertex -67.87571760450322 -54.130655538423284 -2.3
  endloop
endfacet
facet normal -0.13052619222005188 0.9914448613738104 0.0
  outer loop
    vertex -63.99343192796541 -53.61954293275931 -2.3
    vertex -67.87571760450322 -54.130655538423284 -0.3
    vertex -63.99343192796541 -53.61954293275931 -0.3
  endloop
endfacet
facet normal -0.9914448613738103 0.1305261922200531 0.0
  outer loop
    vertex -78.48231932230144 -64.7372572562215 -0.3
    vertex -78.99343192796542 -68.6195429327593 -2.3
    vertex -78.99343192796542 -68.6195429327593 -0.3
  endloop
endfacet
facet normal -0.9914448613738103 0.1305261922200531 0.0
  outer loop
    vertex -78.99343192796542 -68.6195429327593 -2.3
    vertex -78.48231932230144 -64.7372572562215 -0.3
    vertex -78.48231932230144 -64.7372572562215 -2.3
  endloop
endfacet
facet normal 0.0 0.0 -1.0
  outer loop
    vertex -67.87571760450322 -54.130655538423284 -2.3
    vertex -69.1863055086892 -68.34739596029601 -2.3
    vertex -71.4934319279654 -55.629161875992736 -2.3
  endloop
endfacet
facet normal 0.0 0.0 -1.0
  outer loop
    vertex -69.1863055086892 -68.34739596029601 -2.3
    vertex -67.87571760450322 -54.130655538423284 -2.3
    vertex -69.0797994517812 -67.53840214050697 -2.3
  endloop
endfacet
facet normal 0.0 0.0 -1.0
  outer loop
    vertex -69.0797994517812 -67.53840214050697 -2.3
    vertex -67.87571760450322 -54.130655538423284 -2.3
    vertex -68.84805014575086 -66.75602959512375 -2.3
  endloop
endfacet
facet normal 0.0 0.0 -1.0
  outer loop
    vertex -68.84805014575086 -66.75602959512375 -2.3
    vertex -67.87571760450322 -54.130655538423284 -2.3
    vertex -68.49676402764449 -66.01954293275931 -2.3
  endloop
endfacet
facet normal 0.0 0.0 -1.0
  outer loop
    vertex -68.49676402764449 -66.01954293275931 -2.3
    vertex -67.87571760450322 -54.130655538423284 -2.3
    vertex -68.03459092754166 -65.34707689930016 -2.3
  endloop
endfacet
facet normal 0.0 0.0 -1.0
  outer loop
    vertex -68.03459092754166 -65.34707689930016 -2.3
    vertex -67.87571760450322 -54.130655538423284 -2.3
    vertex -67.47291108103147 -64.75518984027687 -2.3
  endloop
endfacet
facet normal 0.0 0.0 -1.0
  outer loop
    vertex -67.47291108103147 -64.75518984027687 -2.3
    vertex -67.87571760450322 -54.130655538423284 -2.3
    vertex -63.99343192796541 -53.61954293275931 -2.3
  endloop
endfacet
facet normal 0.0 0.0 -1.0
  outer loop
    vertex -67.47291108103147 -64.75518984027687 -2.3
    vertex -63.99343192796541 -53.61954293275931 -2.3
    vertex -66.82555491004355 -64.2584559794431 -2.3
  endloop
endfacet
facet normal 0.0 0.0 -1.0
  outer loop
    vertex -66.82555491004355 -64.2584559794431 -2.3
    vertex -63.99343192796541 -53.61954293275931 -2.3
    vertex -66.10846247195958 -63.86910655301779 -2.3
  endloop
endfacet
facet normal 0.0 0.0 -1.0
  outer loop
    vertex -66.10846247195958 -63.86910655301779 -2.3
    vertex -63.99343192796541 -53.61954293275931 -2.3
    vertex -65.33929096249852 -63.596728636056156 -2.3
  endloop
endfacet
facet normal 0.0 0.0 -1.0
  outer loop
    vertex -65.33929096249852 -63.596728636056156 -2.3
    vertex -63.99343192796541 -53.61954293275931 -2.3
    vertex -64.53697993695721 -63.44802907684428 -2.3
  endloop
endfacet
facet normal 0.0 0.0 -1.0
  outer loop
    vertex -64.53697993695721 -63.44802907684428 -2.3
    vertex -63.99343192796541 -53.61954293275931 -2.3
    vertex -63.72128495550211 -63.42666935203552 -2.3
  endloop
endfacet
facet normal 0.0 0.0 -1.0
  outer loop
    vertex -63.72128495550211 -63.42666935203552 -2.3
    vertex -63.99343192796541 -53.61954293275931 -2.3
    vertex -60.1111462514276 -54.130655538423284 -2.3
  endloop
endfacet
facet normal 0.0 0.0 -1.0
  outer loop
    vertex -63.72128495550211 -63.42666935203552 -2.3
    vertex -60.1111462514276 -54.130655538423284 -2.3
    vertex -62.91229113571307 -63.53317540894352 -2.3
  endloop
endfacet
facet normal 0.0 0.0 -1.0
  outer loop
    vertex -62.91229113571307 -63.53317540894352 -2.3
    vertex -60.1111462514276 -54.130655538423284 -2.3
    vertex -62.12991859032985 -63.76492471497386 -2.3
  endloop
endfacet
facet normal 0.0 0.0 -1.0
  outer loop
    vertex -62.12991859032985 -63.76492471497386 -2.3
    vertex -60.1111462514276 -54.130655538423284 -2.3
    vertex -61.393431927965416 -64.11621083308023 -2.3
  endloop
endfacet
facet normal 0.0 0.0 -1.0
  outer loop
    vertex -61.393431927965416 -64.11621083308023 -2.3
    vertex -60.1111462514276 -54.130655538423284 -2.3
    vertex -60.720965894506264 -64.57838393318305 -2.3
  endloop
endfacet
facet normal 0.0 0.0 -1.0
  outer loop
    vertex -60.720965894506264 -64.57838393318305 -2.3
    vertex -60.1111462514276 -54.130655538423284 -2.3
    vertex -60.12907883548296 -65.14006377969324 -2.3
  endloop
endfacet
facet normal 0.0 0.0 -1.0
  outer loop
    vertex -60.12907883548296 -65.14006377969324 -2.3
    vertex -60.1111462514276 -54.130655538423284 -2.3
    vertex -59.63234497464921 -65.78741995068116 -2.3
  endloop
endfacet
facet normal 0.0 0.0 -1.0
  outer loop
    vertex -59.63234497464921 -65.78741995068116 -2.3
    vertex -60.1111462514276 -54.130655538423284 -2.3
    vertex -56.4934319279654 -55.629161875992736 -2.3
  endloop
endfacet
facet normal 0.0 0.0 -1.0
  outer loop
    vertex -59.63234497464921 -65.78741995068116 -2.3
    vertex -56.4934319279654 -55.629161875992736 -2.3
    vertex -59.24299554822389 -66.50451238876514 -2.3
  endloop
endfacet
facet normal 0.0 0.0 -1.0
  outer loop
    vertex -59.24299554822389 -66.50451238876514 -2.3
    vertex -56.4934319279654 -55.629161875992736 -2.3
    vertex -58.970617631262265 -67.2736838982262 -2.3
  endloop
endfacet
facet normal 0.0 0.0 -1.0
  outer loop
    vertex -58.970617631262265 -67.2736838982262 -2.3
    vertex -56.4934319279654 -55.629161875992736 -2.3
    vertex -58.82191807205038 -68.0759949237675 -2.3
  endloop
endfacet
facet normal 0.0 0.0 -1.0
  outer loop
    vertex -58.82191807205038 -68.0759949237675 -2.3
    vertex -56.4934319279654 -55.629161875992736 -2.3
    vertex -58.80055834724162 -68.8916899052226 -2.3
  endloop
endfacet
facet normal 0.0 0.0 -1.0
  outer loop
    vertex -58.80055834724162 -68.8916899052226 -2.3
    vertex -56.4934319279654 -55.629161875992736 -2.3
    vertex -56.493431927965425 -81.6099239895259 -2.3
  endloop
endfacet
facet normal 0.0 0.0 -1.0
  outer loop
    vertex -56.493431927965425 -81.6099239895259 -2.3
    vertex -56.4934319279654 -55.629161875992736 -2.3
    vertex -53.38683021016719 -79.22614465055753 -2.3
  endloop
endfacet
facet normal 0.0 0.0 -1.0
  outer loop
    vertex -53.38683021016719 -79.22614465055753 -2.3
    vertex -56.4934319279654 -55.629161875992736 -2.3
    vertex -53.38683021016719 -58.0129412149611 -2.3
  endloop
endfacet
facet normal 0.0 0.0 -1.0
  outer loop
    vertex -53.38683021016719 -79.22614465055753 -2.3
    vertex -53.38683021016719 -58.0129412149611 -2.3
    vertex -51.00305087119883 -61.11954293275932 -2.3
  endloop
endfacet
facet normal 0.0 0.0 -1.0
  outer loop
    vertex -53.38683021016719 -79.22614465055753 -2.3
    vertex -51.00305087119883 -61.11954293275932 -2.3
    vertex -51.00305087119884 -76.11954293275932 -2.3
  endloop
endfacet
facet normal 0.0 0.0 -1.0
  outer loop
    vertex -51.00305087119884 -76.11954293275932 -2.3
    vertex -51.00305087119883 -61.11954293275932 -2.3
    vertex -49.504544533629385 -72.50182860929714 -2.3
  endloop
endfacet
facet normal 0.0 0.0 -1.0
  outer loop
    vertex -49.504544533629385 -72.50182860929714 -2.3
    vertex -51.00305087119883 -61.11954293275932 -2.3
    vertex -49.504544533629385 -64.7372572562215 -2.3
  endloop
endfacet
facet normal 0.0 0.0 -1.0
  outer loop
    vertex -49.504544533629385 -72.50182860929714 -2.3
    vertex -49.504544533629385 -64.7372572562215 -2.3
    vertex -48.99343192796541 -68.6195429327593 -2.3
  endloop
endfacet
facet normal 0.0 0.0 -1.0
  outer loop
    vertex -78.48231932230144 -64.7372572562215 -2.3
    vertex -78.48231932230144 -72.50182860929712 -2.3
    vertex -78.99343192796542 -68.6195429327593 -2.3
  endloop
endfacet
facet normal 0.0 0.0 -1.0
  outer loop
    vertex -78.48231932230144 -72.50182860929712 -2.3
    vertex -78.48231932230144 -64.7372572562215 -2.3
    vertex -76.983812984732 -61.11954293275931 -2.3
  endloop
endfacet
facet normal 0.0 0.0 -1.0
  outer loop
    vertex -78.48231932230144 -72.50182860929712 -2.3
    vertex -76.983812984732 -61.11954293275931 -2.3
    vertex -76.983812984732 -76.11954293275932 -2.3
  endloop
endfacet
facet normal 0.0 0.0 -1.0
  outer loop
    vertex -76.983812984732 -76.11954293275932 -2.3
    vertex -76.983812984732 -61.11954293275931 -2.3
    vertex -74.60003364576363 -58.0129412149611 -2.3
  endloop
endfacet
facet normal 0.0 0.0 -1.0
  outer loop
    vertex -76.983812984732 -76.11954293275932 -2.3
    vertex -74.60003364576363 -58.0129412149611 -2.3
    vertex -74.60003364576363 -79.22614465055753 -2.3
  endloop
endfacet
facet normal 0.0 0.0 -1.0
  outer loop
    vertex -74.60003364576363 -79.22614465055753 -2.3
    vertex -74.60003364576363 -58.0129412149611 -2.3
    vertex -71.4934319279654 -55.629161875992736 -2.3
  endloop
endfacet
facet normal 0.0 0.0 -1.0
  outer loop
    vertex -74.60003364576363 -79.22614465055753 -2.3
    vertex -71.4934319279654 -55.629161875992736 -2.3
    vertex -71.49343192796542 -81.60992398952588 -2.3
  endloop
endfacet
facet normal 0.0 0.0 -1.0
  outer loop
    vertex -71.49343192796542 -81.60992398952588 -2.3
    vertex -71.4934319279654 -55.629161875992736 -2.3
    vertex -67.87571760450324 -83.10843032709533 -2.3
  endloop
endfacet
facet normal 0.0 0.0 -1.0
  outer loop
    vertex -67.87571760450324 -83.10843032709533 -2.3
    vertex -71.4934319279654 -55.629161875992736 -2.3
    vertex -69.16494578388044 -69.16309094175111 -2.3
  endloop
endfacet
facet normal 0.0 0.0 -1.0
  outer loop
    vertex -69.16494578388044 -69.16309094175111 -2.3
    vertex -71.4934319279654 -55.629161875992736 -2.3
    vertex -69.1863055086892 -68.34739596029601 -2.3
  endloop
endfacet
facet normal 0.0 0.0 -1.0
  outer loop
    vertex -67.87571760450324 -83.10843032709533 -2.3
    vertex -69.16494578388044 -69.16309094175111 -2.3
    vertex -69.01624622466856 -69.96540196729242 -2.3
  endloop
endfacet
facet normal 0.0 0.0 -1.0
  outer loop
    vertex -67.87571760450324 -83.10843032709533 -2.3
    vertex -69.01624622466856 -69.96540196729242 -2.3
    vertex -68.74386830770693 -70.73457347675348 -2.3
  endloop
endfacet
facet normal 0.0 0.0 -1.0
  outer loop
    vertex -67.87571760450324 -83.10843032709533 -2.3
    vertex -68.74386830770693 -70.73457347675348 -2.3
    vertex -68.3545188812816 -71.45166591483745 -2.3
  endloop
endfacet
facet normal 0.0 0.0 -1.0
  outer loop
    vertex -67.87571760450324 -83.10843032709533 -2.3
    vertex -68.3545188812816 -71.45166591483745 -2.3
    vertex -67.85778502044786 -72.09902208582537 -2.3
  endloop
endfacet
facet normal 0.0 0.0 -1.0
  outer loop
    vertex -67.87571760450324 -83.10843032709533 -2.3
    vertex -67.85778502044786 -72.09902208582537 -2.3
    vertex -63.99343192796541 -83.61954293275932 -2.3
  endloop
endfacet
facet normal 0.0 0.0 -1.0
  outer loop
    vertex -63.99343192796541 -83.61954293275932 -2.3
    vertex -67.85778502044786 -72.09902208582537 -2.3
    vertex -67.26589796142456 -72.66070193233556 -2.3
  endloop
endfacet
facet normal 0.0 0.0 -1.0
  outer loop
    vertex -63.99343192796541 -83.61954293275932 -2.3
    vertex -67.26589796142456 -72.66070193233556 -2.3
    vertex -66.5934319279654 -73.12287503243839 -2.3
  endloop
endfacet
facet normal 0.0 0.0 -1.0
  outer loop
    vertex -63.99343192796541 -83.61954293275932 -2.3
    vertex -66.5934319279654 -73.12287503243839 -2.3
    vertex -65.85694526560097 -73.47416115054476 -2.3
  endloop
endfacet
facet normal 0.0 0.0 -1.0
  outer loop
    vertex -63.99343192796541 -83.61954293275932 -2.3
    vertex -65.85694526560097 -73.47416115054476 -2.3
    vertex -65.07457272021774 -73.7059104565751 -2.3
  endloop
endfacet
facet normal 0.0 0.0 -1.0
  outer loop
    vertex -63.99343192796541 -83.61954293275932 -2.3
    vertex -65.07457272021774 -73.7059104565751 -2.3
    vertex -64.26557890042871 -73.8124165134831 -2.3
  endloop
endfacet
facet normal 0.0 0.0 -1.0
  outer loop
    vertex -63.99343192796541 -83.61954293275932 -2.3
    vertex -64.26557890042871 -73.8124165134831 -2.3
    vertex -63.449883918973605 -73.79105678867434 -2.3
  endloop
endfacet
facet normal 0.0 0.0 -1.0
  outer loop
    vertex -63.99343192796541 -83.61954293275932 -2.3
    vertex -63.449883918973605 -73.79105678867434 -2.3
    vertex -60.1111462514276 -83.10843032709535 -2.3
  endloop
endfacet
facet normal 0.0 0.0 -1.0
  outer loop
    vertex -60.1111462514276 -83.10843032709535 -2.3
    vertex -63.449883918973605 -73.79105678867434 -2.3
    vertex -62.6475728934323 -73.64235722946245 -2.3
  endloop
endfacet
facet normal 0.0 0.0 -1.0
  outer loop
    vertex -60.1111462514276 -83.10843032709535 -2.3
    vertex -62.6475728934323 -73.64235722946245 -2.3
    vertex -61.87840138397124 -73.36997931250083 -2.3
  endloop
endfacet
facet normal 0.0 0.0 -1.0
  outer loop
    vertex -60.1111462514276 -83.10843032709535 -2.3
    vertex -61.87840138397124 -73.36997931250083 -2.3
    vertex -61.161308945887264 -72.9806298860755 -2.3
  endloop
endfacet
facet normal 0.0 0.0 -1.0
  outer loop
    vertex -60.1111462514276 -83.10843032709535 -2.3
    vertex -61.161308945887264 -72.9806298860755 -2.3
    vertex -60.513952774899344 -72.48389602524176 -2.3
  endloop
endfacet
facet normal 0.0 0.0 -1.0
  outer loop
    vertex -60.1111462514276 -83.10843032709535 -2.3
    vertex -60.513952774899344 -72.48389602524176 -2.3
    vertex -59.95227292838916 -71.89200896621846 -2.3
  endloop
endfacet
facet normal 0.0 0.0 -1.0
  outer loop
    vertex -60.1111462514276 -83.10843032709535 -2.3
    vertex -59.95227292838916 -71.89200896621846 -2.3
    vertex -56.493431927965425 -81.6099239895259 -2.3
  endloop
endfacet
facet normal 0.0 0.0 -1.0
  outer loop
    vertex -56.493431927965425 -81.6099239895259 -2.3
    vertex -59.95227292838916 -71.89200896621846 -2.3
    vertex -59.490099828286326 -71.2195429327593 -2.3
  endloop
endfacet
facet normal 0.0 0.0 -1.0
  outer loop
    vertex -56.493431927965425 -81.6099239895259 -2.3
    vertex -59.490099828286326 -71.2195429327593 -2.3
    vertex -59.13881371017996 -70.48305627039487 -2.3
  endloop
endfacet
facet normal 0.0 0.0 -1.0
  outer loop
    vertex -56.493431927965425 -81.6099239895259 -2.3
    vertex -59.13881371017996 -70.48305627039487 -2.3
    vertex -58.90706440414962 -69.70068372501164 -2.3
  endloop
endfacet
facet normal 0.0 0.0 -1.0
  outer loop
    vertex -56.493431927965425 -81.6099239895259 -2.3
    vertex -58.90706440414962 -69.70068372501164 -2.3
    vertex -58.80055834724162 -68.8916899052226 -2.3
  endloop
endfacet
facet normal 0.0 0.0 1.0
  outer loop
    vertex -78.48231932230144 -72.50182860929712 -0.3
    vertex -78.48231932230144 -64.7372572562215 -0.3
    vertex -78.99343192796542 -68.6195429327593 -0.3
  endloop
endfacet
facet normal 0.0 0.0 1.0
  outer loop
    vertex -78.48231932230144 -64.7372572562215 -0.3
    vertex -78.48231932230144 -72.50182860929712 -0.3
    vertex -76.983812984732 -76.11954293275932 -0.3
  endloop
endfacet
facet normal 0.0 0.0 1.0
  outer loop
    vertex -78.48231932230144 -64.7372572562215 -0.3
    vertex -76.983812984732 -76.11954293275932 -0.3
    vertex -76.983812984732 -61.11954293275931 -0.3
  endloop
endfacet
facet normal 0.0 0.0 1.0
  outer loop
    vertex -76.983812984732 -61.11954293275931 -0.3
    vertex -76.983812984732 -76.11954293275932 -0.3
    vertex -74.60003364576363 -79.22614465055753 -0.3
  endloop
endfacet
facet normal 0.0 0.0 1.0
  outer loop
    vertex -76.983812984732 -61.11954293275931 -0.3
    vertex -74.60003364576363 -79.22614465055753 -0.3
    vertex -74.60003364576363 -58.0129412149611 -0.3
  endloop
endfacet
facet normal 0.0 0.0 1.0
  outer loop
    vertex -74.60003364576363 -58.0129412149611 -0.3
    vertex -74.60003364576363 -79.22614465055753 -0.3
    vertex -71.49343192796542 -81.60992398952588 -0.3
  endloop
endfacet
facet normal 0.0 0.0 1.0
  outer loop
    vertex -74.60003364576363 -58.0129412149611 -0.3
    vertex -71.49343192796542 -81.60992398952588 -0.3
    vertex -71.4934319279654 -55.629161875992736 -0.3
  endloop
endfacet
facet normal 0.0 0.0 1.0
  outer loop
    vertex -71.4934319279654 -55.629161875992736 -0.3
    vertex -71.49343192796542 -81.60992398952588 -0.3
    vertex -67.87571760450324 -83.10843032709533 -0.3
  endloop
endfacet
facet normal 0.0 0.0 1.0
  outer loop
    vertex -71.4934319279654 -55.629161875992736 -0.3
    vertex -67.87571760450324 -83.10843032709533 -0.3
    vertex -69.16494578388044 -69.16309094175111 -0.3
  endloop
endfacet
facet normal 0.0 0.0 1.0
  outer loop
    vertex -71.4934319279654 -55.629161875992736 -0.3
    vertex -69.16494578388044 -69.16309094175111 -0.3
    vertex -69.1863055086892 -68.34739596029601 -0.3
  endloop
endfacet
facet normal 0.0 0.0 1.0
  outer loop
    vertex -69.16494578388044 -69.16309094175111 -0.3
    vertex -67.87571760450324 -83.10843032709533 -0.3
    vertex -69.01624622466856 -69.96540196729242 -0.3
  endloop
endfacet
facet normal 0.0 0.0 1.0
  outer loop
    vertex -69.01624622466856 -69.96540196729242 -0.3
    vertex -67.87571760450324 -83.10843032709533 -0.3
    vertex -68.74386830770693 -70.73457347675348 -0.3
  endloop
endfacet
facet normal 0.0 0.0 1.0
  outer loop
    vertex -68.74386830770693 -70.73457347675348 -0.3
    vertex -67.87571760450324 -83.10843032709533 -0.3
    vertex -68.3545188812816 -71.45166591483745 -0.3
  endloop
endfacet
facet normal 0.0 0.0 1.0
  outer loop
    vertex -68.3545188812816 -71.45166591483745 -0.3
    vertex -67.87571760450324 -83.10843032709533 -0.3
    vertex -67.85778502044786 -72.09902208582537 -0.3
  endloop
endfacet
facet normal 0.0 0.0 1.0
  outer loop
    vertex -67.85778502044786 -72.09902208582537 -0.3
    vertex -67.87571760450324 -83.10843032709533 -0.3
    vertex -63.99343192796541 -83.61954293275932 -0.3
  endloop
endfacet
facet normal 0.0 0.0 1.0
  outer loop
    vertex -67.85778502044786 -72.09902208582537 -0.3
    vertex -63.99343192796541 -83.61954293275932 -0.3
    vertex -67.26589796142456 -72.66070193233556 -0.3
  endloop
endfacet
facet normal 0.0 0.0 1.0
  outer loop
    vertex -67.26589796142456 -72.66070193233556 -0.3
    vertex -63.99343192796541 -83.61954293275932 -0.3
    vertex -66.5934319279654 -73.12287503243839 -0.3
  endloop
endfacet
facet normal 0.0 0.0 1.0
  outer loop
    vertex -66.5934319279654 -73.12287503243839 -0.3
    vertex -63.99343192796541 -83.61954293275932 -0.3
    vertex -65.85694526560097 -73.47416115054476 -0.3
  endloop
endfacet
facet normal 0.0 0.0 1.0
  outer loop
    vertex -65.85694526560097 -73.47416115054476 -0.3
    vertex -63.99343192796541 -83.61954293275932 -0.3
    vertex -65.07457272021774 -73.7059104565751 -0.3
  endloop
endfacet
facet normal 0.0 0.0 1.0
  outer loop
    vertex -65.07457272021774 -73.7059104565751 -0.3
    vertex -63.99343192796541 -83.61954293275932 -0.3
    vertex -64.26557890042871 -73.8124165134831 -0.3
  endloop
endfacet
facet normal 0.0 0.0 1.0
  outer loop
    vertex -64.26557890042871 -73.8124165134831 -0.3
    vertex -63.99343192796541 -83.61954293275932 -0.3
    vertex -63.449883918973605 -73.79105678867434 -0.3
  endloop
endfacet
facet normal 0.0 0.0 1.0
  outer loop
    vertex -63.449883918973605 -73.79105678867434 -0.3
    vertex -63.99343192796541 -83.61954293275932 -0.3
    vertex -60.1111462514276 -83.10843032709535 -0.3
  endloop
endfacet
facet normal 0.0 0.0 1.0
  outer loop
    vertex -63.449883918973605 -73.79105678867434 -0.3
    vertex -60.1111462514276 -83.10843032709535 -0.3
    vertex -62.6475728934323 -73.64235722946245 -0.3
  endloop
endfacet
facet normal 0.0 0.0 1.0
  outer loop
    vertex -62.6475728934323 -73.64235722946245 -0.3
    vertex -60.1111462514276 -83.10843032709535 -0.3
    vertex -61.87840138397124 -73.36997931250083 -0.3
  endloop
endfacet
facet normal 0.0 0.0 1.0
  outer loop
    vertex -61.87840138397124 -73.36997931250083 -0.3
    vertex -60.1111462514276 -83.10843032709535 -0.3
    vertex -61.161308945887264 -72.9806298860755 -0.3
  endloop
endfacet
facet normal 0.0 0.0 1.0
  outer loop
    vertex -61.161308945887264 -72.9806298860755 -0.3
    vertex -60.1111462514276 -83.10843032709535 -0.3
    vertex -60.513952774899344 -72.48389602524176 -0.3
  endloop
endfacet
facet normal 0.0 0.0 1.0
  outer loop
    vertex -60.513952774899344 -72.48389602524176 -0.3
    vertex -60.1111462514276 -83.10843032709535 -0.3
    vertex -59.95227292838916 -71.89200896621846 -0.3
  endloop
endfacet
facet normal 0.0 0.0 1.0
  outer loop
    vertex -59.95227292838916 -71.89200896621846 -0.3
    vertex -60.1111462514276 -83.10843032709535 -0.3
    vertex -56.493431927965425 -81.6099239895259 -0.3
  endloop
endfacet
facet normal 0.0 0.0 1.0
  outer loop
    vertex -59.95227292838916 -71.89200896621846 -0.3
    vertex -56.493431927965425 -81.6099239895259 -0.3
    vertex -59.490099828286326 -71.2195429327593 -0.3
  endloop
endfacet
facet normal 0.0 0.0 1.0
  outer loop
    vertex -59.490099828286326 -71.2195429327593 -0.3
    vertex -56.493431927965425 -81.6099239895259 -0.3
    vertex -59.13881371017996 -70.48305627039487 -0.3
  endloop
endfacet
facet normal 0.0 0.0 1.0
  outer loop
    vertex -59.13881371017996 -70.48305627039487 -0.3
    vertex -56.493431927965425 -81.6099239895259 -0.3
    vertex -58.90706440414962 -69.70068372501164 -0.3
  endloop
endfacet
facet normal 0.0 0.0 1.0
  outer loop
    vertex -58.90706440414962 -69.70068372501164 -0.3
    vertex -56.493431927965425 -81.6099239895259 -0.3
    vertex -58.80055834724162 -68.8916899052226 -0.3
  endloop
endfacet
facet normal 0.0 0.0 1.0
  outer loop
    vertex -69.1863055086892 -68.34739596029601 -0.3
    vertex -67.87571760450322 -54.130655538423284 -0.3
    vertex -71.4934319279654 -55.629161875992736 -0.3
  endloop
endfacet
facet normal 0.0 0.0 1.0
  outer loop
    vertex -67.87571760450322 -54.130655538423284 -0.3
    vertex -69.1863055086892 -68.34739596029601 -0.3
    vertex -69.0797994517812 -67.53840214050697 -0.3
  endloop
endfacet
facet normal 0.0 0.0 1.0
  outer loop
    vertex -67.87571760450322 -54.130655538423284 -0.3
    vertex -69.0797994517812 -67.53840214050697 -0.3
    vertex -68.84805014575086 -66.75602959512375 -0.3
  endloop
endfacet
facet normal 0.0 0.0 1.0
  outer loop
    vertex -67.87571760450322 -54.130655538423284 -0.3
    vertex -68.84805014575086 -66.75602959512375 -0.3
    vertex -68.49676402764449 -66.01954293275931 -0.3
  endloop
endfacet
facet normal 0.0 0.0 1.0
  outer loop
    vertex -67.87571760450322 -54.130655538423284 -0.3
    vertex -68.49676402764449 -66.01954293275931 -0.3
    vertex -68.03459092754166 -65.34707689930016 -0.3
  endloop
endfacet
facet normal 0.0 0.0 1.0
  outer loop
    vertex -67.87571760450322 -54.130655538423284 -0.3
    vertex -68.03459092754166 -65.34707689930016 -0.3
    vertex -67.47291108103147 -64.75518984027687 -0.3
  endloop
endfacet
facet normal 0.0 0.0 1.0
  outer loop
    vertex -67.87571760450322 -54.130655538423284 -0.3
    vertex -67.47291108103147 -64.75518984027687 -0.3
    vertex -63.99343192796541 -53.61954293275931 -0.3
  endloop
endfacet
facet normal 0.0 0.0 1.0
  outer loop
    vertex -63.99343192796541 -53.61954293275931 -0.3
    vertex -67.47291108103147 -64.75518984027687 -0.3
    vertex -66.82555491004355 -64.2584559794431 -0.3
  endloop
endfacet
facet normal 0.0 0.0 1.0
  outer loop
    vertex -63.99343192796541 -53.61954293275931 -0.3
    vertex -66.82555491004355 -64.2584559794431 -0.3
    vertex -66.10846247195958 -63.86910655301779 -0.3
  endloop
endfacet
facet normal 0.0 0.0 1.0
  outer loop
    vertex -63.99343192796541 -53.61954293275931 -0.3
    vertex -66.10846247195958 -63.86910655301779 -0.3
    vertex -65.33929096249852 -63.596728636056156 -0.3
  endloop
endfacet
facet normal 0.0 0.0 1.0
  outer loop
    vertex -63.99343192796541 -53.61954293275931 -0.3
    vertex -65.33929096249852 -63.596728636056156 -0.3
    vertex -64.53697993695721 -63.44802907684428 -0.3
  endloop
endfacet
facet normal 0.0 0.0 1.0
  outer loop
    vertex -63.99343192796541 -53.61954293275931 -0.3
    vertex -64.53697993695721 -63.44802907684428 -0.3
    vertex -63.72128495550211 -63.42666935203552 -0.3
  endloop
endfacet
facet normal 0.0 0.0 1.0
  outer loop
    vertex -63.99343192796541 -53.61954293275931 -0.3
    vertex -63.72128495550211 -63.42666935203552 -0.3
    vertex -60.1111462514276 -54.130655538423284 -0.3
  endloop
endfacet
facet normal 0.0 0.0 1.0
  outer loop
    vertex -60.1111462514276 -54.130655538423284 -0.3
    vertex -63.72128495550211 -63.42666935203552 -0.3
    vertex -62.91229113571307 -63.53317540894352 -0.3
  endloop
endfacet
facet normal 0.0 0.0 1.0
  outer loop
    vertex -60.1111462514276 -54.130655538423284 -0.3
    vertex -62.91229113571307 -63.53317540894352 -0.3
    vertex -62.12991859032985 -63.76492471497386 -0.3
  endloop
endfacet
facet normal 0.0 0.0 1.0
  outer loop
    vertex -60.1111462514276 -54.130655538423284 -0.3
    vertex -62.12991859032985 -63.76492471497386 -0.3
    vertex -61.393431927965416 -64.11621083308023 -0.3
  endloop
endfacet
facet normal 0.0 0.0 1.0
  outer loop
    vertex -60.1111462514276 -54.130655538423284 -0.3
    vertex -61.393431927965416 -64.11621083308023 -0.3
    vertex -60.720965894506264 -64.57838393318305 -0.3
  endloop
endfacet
facet normal 0.0 0.0 1.0
  outer loop
    vertex -60.1111462514276 -54.130655538423284 -0.3
    vertex -60.720965894506264 -64.57838393318305 -0.3
    vertex -60.12907883548296 -65.14006377969324 -0.3
  endloop
endfacet
facet normal 0.0 0.0 1.0
  outer loop
    vertex -60.1111462514276 -54.130655538423284 -0.3
    vertex -60.12907883548296 -65.14006377969324 -0.3
    vertex -59.63234497464921 -65.78741995068116 -0.3
  endloop
endfacet
facet normal 0.0 0.0 1.0
  outer loop
    vertex -60.1111462514276 -54.130655538423284 -0.3
    vertex -59.63234497464921 -65.78741995068116 -0.3
    vertex -56.4934319279654 -55.629161875992736 -0.3
  endloop
endfacet
facet normal 0.0 0.0 1.0
  outer loop
    vertex -56.4934319279654 -55.629161875992736 -0.3
    vertex -59.63234497464921 -65.78741995068116 -0.3
    vertex -59.24299554822389 -66.50451238876514 -0.3
  endloop
endfacet
facet normal 0.0 0.0 1.0
  outer loop
    vertex -56.4934319279654 -55.629161875992736 -0.3
    vertex -59.24299554822389 -66.50451238876514 -0.3
    vertex -58.970617631262265 -67.2736838982262 -0.3
  endloop
endfacet
facet normal 0.0 0.0 1.0
  outer loop
    vertex -56.4934319279654 -55.629161875992736 -0.3
    vertex -58.970617631262265 -67.2736838982262 -0.3
    vertex -58.82191807205038 -68.0759949237675 -0.3
  endloop
endfacet
facet normal 0.0 0.0 1.0
  outer loop
    vertex -56.4934319279654 -55.629161875992736 -0.3
    vertex -58.82191807205038 -68.0759949237675 -0.3
    vertex -58.80055834724162 -68.8916899052226 -0.3
  endloop
endfacet
facet normal 0.0 0.0 1.0
  outer loop
    vertex -56.4934319279654 -55.629161875992736 -0.3
    vertex -58.80055834724162 -68.8916899052226 -0.3
    vertex -56.493431927965425 -81.6099239895259 -0.3
  endloop
endfacet
facet normal 0.0 0.0 1.0
  outer loop
    vertex -56.4934319279654 -55.629161875992736 -0.3
    vertex -56.493431927965425 -81.6099239895259 -0.3
    vertex -53.38683021016719 -79.22614465055753 -0.3
  endloop
endfacet
facet normal 0.0 0.0 1.0
  outer loop
    vertex -56.4934319279654 -55.629161875992736 -0.3
    vertex -53.38683021016719 -79.22614465055753 -0.3
    vertex -53.38683021016719 -58.0129412149611 -0.3
  endloop
endfacet
facet normal 0.0 0.0 1.0
  outer loop
    vertex -53.38683021016719 -58.0129412149611 -0.3
    vertex -53.38683021016719 -79.22614465055753 -0.3
    vertex -51.00305087119884 -76.11954293275932 -0.3
  endloop
endfacet
facet normal 0.0 0.0 1.0
  outer loop
    vertex -53.38683021016719 -58.0129412149611 -0.3
    vertex -51.00305087119884 -76.11954293275932 -0.3
    vertex -51.00305087119883 -61.11954293275932 -0.3
  endloop
endfacet
facet normal 0.0 0.0 1.0
  outer loop
    vertex -51.00305087119883 -61.11954293275932 -0.3
    vertex -51.00305087119884 -76.11954293275932 -0.3
    vertex -49.504544533629385 -72.50182860929714 -0.3
  endloop
endfacet
facet normal 0.0 0.0 1.0
  outer loop
    vertex -51.00305087119883 -61.11954293275932 -0.3
    vertex -49.504544533629385 -72.50182860929714 -0.3
    vertex -49.504544533629385 -64.7372572562215 -0.3
  endloop
endfacet
facet normal 0.0 0.0 1.0
  outer loop
    vertex -49.504544533629385 -64.7372572562215 -0.3
    vertex -49.504544533629385 -72.50182860929714 -0.3
    vertex -48.99343192796541 -68.6195429327593 -0.3
  endloop
endfacet
facet normal -0.4305110968082948 -0.9025852843498607 -0.0
  outer loop
    vertex -61.393431927965416 -64.11621083308023 -0.3
    vertex -62.12991859032985 -63.76492471497386 -2.3
    vertex -61.393431927965416 -64.11621083308023 -2.3
  endloop
endfacet
facet normal -0.4305110968082948 -0.9025852843498607 -0.0
  outer loop
    vertex -62.12991859032985 -63.76492471497386 -2.3
    vertex -61.393431927965416 -64.11621083308023 -0.3
    vertex -62.12991859032985 -63.76492471497386 -0.3
  endloop
endfacet
facet normal -0.28401534470391554 -0.9588197348681952 -0.0
  outer loop
    vertex -62.12991859032985 -63.76492471497386 -0.3
    vertex -62.91229113571307 -63.53317540894352 -2.3
    vertex -62.12991859032985 -63.76492471497386 -2.3
  endloop
endfacet
facet normal -0.28401534470391554 -0.9588197348681952 -0.0
  outer loop
    vertex -62.91229113571307 -63.53317540894352 -2.3
    vertex -62.12991859032985 -63.76492471497386 -0.3
    vertex -62.91229113571307 -63.53317540894352 -0.3
  endloop
endfacet
facet normal -0.13052619222006695 -0.9914448613738084 -0.0
  outer loop
    vertex -62.91229113571307 -63.53317540894352 -0.3
    vertex -63.72128495550211 -63.42666935203552 -2.3
    vertex -62.91229113571307 -63.53317540894352 -2.3
  endloop
endfacet
facet normal -0.13052619222006695 -0.9914448613738084 -0.0
  outer loop
    vertex -63.72128495550211 -63.42666935203552 -2.3
    vertex -62.91229113571307 -63.53317540894352 -0.3
    vertex -63.72128495550211 -63.42666935203552 -0.3
  endloop
endfacet
facet normal 0.02617694830787751 -0.9996573249755573 0.0
  outer loop
    vertex -63.72128495550211 -63.42666935203552 -0.3
    vertex -64.53697993695721 -63.44802907684428 -2.3
    vertex -63.72128495550211 -63.42666935203552 -2.3
  endloop
endfacet
facet normal 0.02617694830787751 -0.9996573249755573 0.0
  outer loop
    vertex -64.53697993695721 -63.44802907684428 -2.3
    vertex -63.72128495550211 -63.42666935203552 -0.3
    vertex -64.53697993695721 -63.44802907684428 -0.3
  endloop
endfacet
facet normal 0.18223552549216054 -0.9832549075639523 0.0
  outer loop
    vertex -64.53697993695721 -63.44802907684428 -0.3
    vertex -65.33929096249852 -63.596728636056156 -2.3
    vertex -64.53697993695721 -63.44802907684428 -2.3
  endloop
endfacet
facet normal 0.18223552549216054 -0.9832549075639523 0.0
  outer loop
    vertex -65.33929096249852 -63.596728636056156 -2.3
    vertex -64.53697993695721 -63.44802907684428 -0.3
    vertex -65.33929096249852 -63.596728636056156 -0.3
  endloop
endfacet
facet normal 0.3338068592337699 -0.9426414910921789 0.0
  outer loop
    vertex -65.33929096249852 -63.596728636056156 -0.3
    vertex -66.10846247195958 -63.86910655301779 -2.3
    vertex -65.33929096249852 -63.596728636056156 -2.3
  endloop
endfacet
facet normal 0.3338068592337699 -0.9426414910921789 0.0
  outer loop
    vertex -66.10846247195958 -63.86910655301779 -2.3
    vertex -65.33929096249852 -63.596728636056156 -0.3
    vertex -66.10846247195958 -63.86910655301779 -0.3
  endloop
endfacet
facet normal 0.4771587602596063 -0.8788171126619666 0.0
  outer loop
    vertex -66.10846247195958 -63.86910655301779 -0.3
    vertex -66.82555491004355 -64.2584559794431 -2.3
    vertex -66.10846247195958 -63.86910655301779 -2.3
  endloop
endfacet
facet normal 0.4771587602596063 -0.8788171126619666 0.0
  outer loop
    vertex -66.82555491004355 -64.2584559794431 -2.3
    vertex -66.10846247195958 -63.86910655301779 -0.3
    vertex -66.82555491004355 -64.2584559794431 -0.3
  endloop
endfacet
facet normal 0.6087614290087296 -0.7933533402912284 0.0
  outer loop
    vertex -66.82555491004355 -64.2584559794431 -0.3
    vertex -67.47291108103147 -64.75518984027687 -2.3
    vertex -66.82555491004355 -64.2584559794431 -2.3
  endloop
endfacet
facet normal 0.6087614290087296 -0.7933533402912284 0.0
  outer loop
    vertex -67.47291108103147 -64.75518984027687 -2.3
    vertex -66.82555491004355 -64.2584559794431 -0.3
    vertex -67.47291108103147 -64.75518984027687 -0.3
  endloop
endfacet
facet normal 0.7253743710122837 -0.688354575693758 0.0
  outer loop
    vertex -67.47291108103147 -64.75518984027687 -2.3
    vertex -68.03459092754166 -65.34707689930016 -0.3
    vertex -68.03459092754166 -65.34707689930016 -2.3
  endloop
endfacet
facet normal 0.7253743710122837 -0.688354575693758 0.0
  outer loop
    vertex -68.03459092754166 -65.34707689930016 -0.3
    vertex -67.47291108103147 -64.75518984027687 -2.3
    vertex -67.47291108103147 -64.75518984027687 -0.3
  endloop
endfacet
facet normal 0.8241261886220181 -0.5664062369248294 0.0
  outer loop
    vertex -68.03459092754166 -65.34707689930016 -2.3
    vertex -68.49676402764449 -66.01954293275931 -0.3
    vertex -68.49676402764449 -66.01954293275931 -2.3
  endloop
endfacet
facet normal 0.8241261886220181 -0.5664062369248294 0.0
  outer loop
    vertex -68.49676402764449 -66.01954293275931 -0.3
    vertex -68.03459092754166 -65.34707689930016 -2.3
    vertex -68.03459092754166 -65.34707689930016 -0.3
  endloop
endfacet
facet normal 0.9025852843498607 -0.4305110968082948 0.0
  outer loop
    vertex -68.49676402764449 -66.01954293275931 -2.3
    vertex -68.84805014575086 -66.75602959512375 -0.3
    vertex -68.84805014575086 -66.75602959512375 -2.3
  endloop
endfacet
facet normal 0.9025852843498607 -0.4305110968082948 0.0
  outer loop
    vertex -68.84805014575086 -66.75602959512375 -0.3
    vertex -68.49676402764449 -66.01954293275931 -2.3
    vertex -68.49676402764449 -66.01954293275931 -0.3
  endloop
endfacet
facet normal 0.9588197348681952 -0.28401534470391554 0.0
  outer loop
    vertex -68.84805014575086 -66.75602959512375 -2.3
    vertex -69.0797994517812 -67.53840214050697 -0.3
    vertex -69.0797994517812 -67.53840214050697 -2.3
  endloop
endfacet
facet normal 0.9588197348681952 -0.28401534470391554 0.0
  outer loop
    vertex -69.0797994517812 -67.53840214050697 -0.3
    vertex -68.84805014575086 -66.75602959512375 -2.3
    vertex -68.84805014575086 -66.75602959512375 -0.3
  endloop
endfacet
facet normal 0.9914448613738084 -0.13052619222006695 0.0
  outer loop
    vertex -69.0797994517812 -67.53840214050697 -2.3
    vertex -69.1863055086892 -68.34739596029601 -0.3
    vertex -69.1863055086892 -68.34739596029601 -2.3
  endloop
endfacet
facet normal 0.9914448613738084 -0.13052619222006695 0.0
  outer loop
    vertex -69.1863055086892 -68.34739596029601 -0.3
    vertex -69.0797994517812 -67.53840214050697 -2.3
    vertex -69.0797994517812 -67.53840214050697 -0.3
  endloop
endfacet
facet normal 0.9996573249755573 0.02617694830787751 0.0
  outer loop
    vertex -69.1863055086892 -68.34739596029601 -2.3
    vertex -69.16494578388044 -69.16309094175111 -0.3
    vertex -69.16494578388044 -69.16309094175111 -2.3
  endloop
endfacet
facet normal 0.9996573249755573 0.02617694830787751 0.0
  outer loop
    vertex -69.16494578388044 -69.16309094175111 -0.3
    vertex -69.1863055086892 -68.34739596029601 -2.3
    vertex -69.1863055086892 -68.34739596029601 -0.3
  endloop
endfacet
facet normal 0.9832549075639523 0.18223552549216054 0.0
  outer loop
    vertex -69.16494578388044 -69.16309094175111 -2.3
    vertex -69.01624622466856 -69.96540196729242 -0.3
    vertex -69.01624622466856 -69.96540196729242 -2.3
  endloop
endfacet
facet normal 0.9832549075639523 0.18223552549216054 0.0
  outer loop
    vertex -69.01624622466856 -69.96540196729242 -0.3
    vertex -69.16494578388044 -69.16309094175111 -2.3
    vertex -69.16494578388044 -69.16309094175111 -0.3
  endloop
endfacet
facet normal 0.9426414910921789 0.3338068592337699 0.0
  outer loop
    vertex -69.01624622466856 -69.96540196729242 -2.3
    vertex -68.74386830770693 -70.73457347675348 -0.3
    vertex -68.74386830770693 -70.73457347675348 -2.3
  endloop
endfacet
facet normal 0.9426414910921789 0.3338068592337699 0.0
  outer loop
    vertex -68.74386830770693 -70.73457347675348 -0.3
    vertex -69.01624622466856 -69.96540196729242 -2.3
    vertex -69.01624622466856 -69.96540196729242 -0.3
  endloop
endfacet
facet normal 0.8788171126619666 0.4771587602596063 0.0
  outer loop
    vertex -68.74386830770693 -70.73457347675348 -2.3
    vertex -68.3545188812816 -71.45166591483745 -0.3
    vertex -68.3545188812816 -71.45166591483745 -2.3
  endloop
endfacet
facet normal 0.8788171126619666 0.4771587602596063 0.0
  outer loop
    vertex -68.3545188812816 -71.45166591483745 -0.3
    vertex -68.74386830770693 -70.73457347675348 -2.3
    vertex -68.74386830770693 -70.73457347675348 -0.3
  endloop
endfacet
facet normal 0.7933533402912352 0.6087614290087209 0.0
  outer loop
    vertex -68.3545188812816 -71.45166591483745 -2.3
    vertex -67.85778502044786 -72.09902208582537 -0.3
    vertex -67.85778502044786 -72.09902208582537 -2.3
  endloop
endfacet
facet normal 0.7933533402912352 0.6087614290087209 0.0
  outer loop
    vertex -67.85778502044786 -72.09902208582537 -0.3
    vertex -68.3545188812816 -71.45166591483745 -2.3
    vertex -68.3545188812816 -71.45166591483745 -0.3
  endloop
endfacet
facet normal 0.6883545756937511 0.7253743710122904 0.0
  outer loop
    vertex -67.85778502044786 -72.09902208582537 -0.3
    vertex -67.26589796142456 -72.66070193233556 -2.3
    vertex -67.85778502044786 -72.09902208582537 -2.3
  endloop
endfacet
facet normal 0.6883545756937511 0.7253743710122904 0.0
  outer loop
    vertex -67.26589796142456 -72.66070193233556 -2.3
    vertex -67.85778502044786 -72.09902208582537 -0.3
    vertex -67.26589796142456 -72.66070193233556 -0.3
  endloop
endfacet
facet normal 0.5664062369248294 0.8241261886220181 0.0
  outer loop
    vertex -67.26589796142456 -72.66070193233556 -0.3
    vertex -66.5934319279654 -73.12287503243839 -2.3
    vertex -67.26589796142456 -72.66070193233556 -2.3
  endloop
endfacet
facet normal 0.5664062369248294 0.8241261886220181 0.0
  outer loop
    vertex -66.5934319279654 -73.12287503243839 -2.3
    vertex -67.26589796142456 -72.66070193233556 -0.3
    vertex -66.5934319279654 -73.12287503243839 -0.3
  endloop
endfacet
facet normal 0.4305110968082948 0.9025852843498607 0.0
  outer loop
    vertex -66.5934319279654 -73.12287503243839 -0.3
    vertex -65.85694526560097 -73.47416115054476 -2.3
    vertex -66.5934319279654 -73.12287503243839 -2.3
  endloop
endfacet
facet normal 0.4305110968082948 0.9025852843498607 0.0
  outer loop
    vertex -65.85694526560097 -73.47416115054476 -2.3
    vertex -66.5934319279654 -73.12287503243839 -0.3
    vertex -65.85694526560097 -73.47416115054476 -0.3
  endloop
endfacet
facet normal 0.28401534470391554 0.9588197348681952 0.0
  outer loop
    vertex -65.85694526560097 -73.47416115054476 -0.3
    vertex -65.07457272021774 -73.7059104565751 -2.3
    vertex -65.85694526560097 -73.47416115054476 -2.3
  endloop
endfacet
facet normal 0.28401534470391554 0.9588197348681952 0.0
  outer loop
    vertex -65.07457272021774 -73.7059104565751 -2.3
    vertex -65.85694526560097 -73.47416115054476 -0.3
    vertex -65.07457272021774 -73.7059104565751 -0.3
  endloop
endfacet
facet normal 0.13052619222006695 0.9914448613738084 0.0
  outer loop
    vertex -65.07457272021774 -73.7059104565751 -0.3
    vertex -64.26557890042871 -73.8124165134831 -2.3
    vertex -65.07457272021774 -73.7059104565751 -2.3
  endloop
endfacet
facet normal 0.13052619222006695 0.9914448613738084 0.0
  outer loop
    vertex -64.26557890042871 -73.8124165134831 -2.3
    vertex -65.07457272021774 -73.7059104565751 -0.3
    vertex -64.26557890042871 -73.8124165134831 -0.3
  endloop
endfacet
facet normal -0.02617694830787751 0.9996573249755573 0.0
  outer loop
    vertex -64.26557890042871 -73.8124165134831 -0.3
    vertex -63.449883918973605 -73.79105678867434 -2.3
    vertex -64.26557890042871 -73.8124165134831 -2.3
  endloop
endfacet
facet normal -0.02617694830787751 0.9996573249755573 0.0
  outer loop
    vertex -63.449883918973605 -73.79105678867434 -2.3
    vertex -64.26557890042871 -73.8124165134831 -0.3
    vertex -63.449883918973605 -73.79105678867434 -0.3
  endloop
endfacet
facet normal -0.18223552549216301 0.9832549075639518 0.0
  outer loop
    vertex -63.449883918973605 -73.79105678867434 -0.3
    vertex -62.6475728934323 -73.64235722946245 -2.3
    vertex -63.449883918973605 -73.79105678867434 -2.3
  endloop
endfacet
facet normal -0.18223552549216301 0.9832549075639518 0.0
  outer loop
    vertex -62.6475728934323 -73.64235722946245 -2.3
    vertex -63.449883918973605 -73.79105678867434 -0.3
    vertex -62.6475728934323 -73.64235722946245 -0.3
  endloop
endfacet
facet normal -0.3338068592337656 0.9426414910921804 0.0
  outer loop
    vertex -62.6475728934323 -73.64235722946245 -0.3
    vertex -61.87840138397124 -73.36997931250083 -2.3
    vertex -62.6475728934323 -73.64235722946245 -2.3
  endloop
endfacet
facet normal -0.3338068592337656 0.9426414910921804 0.0
  outer loop
    vertex -61.87840138397124 -73.36997931250083 -2.3
    vertex -62.6475728934323 -73.64235722946245 -0.3
    vertex -61.87840138397124 -73.36997931250083 -0.3
  endloop
endfacet
facet normal -0.4771587602596063 0.8788171126619666 0.0
  outer loop
    vertex -61.87840138397124 -73.36997931250083 -0.3
    vertex -61.161308945887264 -72.9806298860755 -2.3
    vertex -61.87840138397124 -73.36997931250083 -2.3
  endloop
endfacet
facet normal -0.4771587602596063 0.8788171126619666 0.0
  outer loop
    vertex -61.161308945887264 -72.9806298860755 -2.3
    vertex -61.87840138397124 -73.36997931250083 -0.3
    vertex -61.161308945887264 -72.9806298860755 -0.3
  endloop
endfacet
facet normal -0.6087614290087209 0.7933533402912352 0.0
  outer loop
    vertex -61.161308945887264 -72.9806298860755 -0.3
    vertex -60.513952774899344 -72.48389602524176 -2.3
    vertex -61.161308945887264 -72.9806298860755 -2.3
  endloop
endfacet
facet normal -0.6087614290087209 0.7933533402912352 0.0
  outer loop
    vertex -60.513952774899344 -72.48389602524176 -2.3
    vertex -61.161308945887264 -72.9806298860755 -0.3
    vertex -60.513952774899344 -72.48389602524176 -0.3
  endloop
endfacet
facet normal -0.7253743710122904 0.6883545756937511 0.0
  outer loop
    vertex -59.95227292838916 -71.89200896621846 -0.3
    vertex -60.513952774899344 -72.48389602524176 -2.3
    vertex -60.513952774899344 -72.48389602524176 -0.3
  endloop
endfacet
facet normal -0.7253743710122904 0.6883545756937511 0.0
  outer loop
    vertex -60.513952774899344 -72.48389602524176 -2.3
    vertex -59.95227292838916 -71.89200896621846 -0.3
    vertex -59.95227292838916 -71.89200896621846 -2.3
  endloop
endfacet
facet normal -0.8241261886220181 0.5664062369248294 0.0
  outer loop
    vertex -59.490099828286326 -71.2195429327593 -0.3
    vertex -59.95227292838916 -71.89200896621846 -2.3
    vertex -59.95227292838916 -71.89200896621846 -0.3
  endloop
endfacet
facet normal -0.8241261886220181 0.5664062369248294 0.0
  outer loop
    vertex -59.95227292838916 -71.89200896621846 -2.3
    vertex -59.490099828286326 -71.2195429327593 -0.3
    vertex -59.490099828286326 -71.2195429327593 -2.3
  endloop
endfacet
facet normal -0.9025852843498607 0.4305110968082948 0.0
  outer loop
    vertex -59.13881371017996 -70.48305627039487 -0.3
    vertex -59.490099828286326 -71.2195429327593 -2.3
    vertex -59.490099828286326 -71.2195429327593 -0.3
  endloop
endfacet
facet normal -0.9025852843498607 0.4305110968082948 0.0
  outer loop
    vertex -59.490099828286326 -71.2195429327593 -2.3
    vertex -59.13881371017996 -70.48305627039487 -0.3
    vertex -59.13881371017996 -70.48305627039487 -2.3
  endloop
endfacet
facet normal -0.9588197348681952 0.28401534470391554 0.0
  outer loop
    vertex -58.90706440414962 -69.70068372501164 -0.3
    vertex -59.13881371017996 -70.48305627039487 -2.3
    vertex -59.13881371017996 -70.48305627039487 -0.3
  endloop
endfacet
facet normal -0.9588197348681952 0.28401534470391554 0.0
  outer loop
    vertex -59.13881371017996 -70.48305627039487 -2.3
    vertex -58.90706440414962 -69.70068372501164 -0.3
    vertex -58.90706440414962 -69.70068372501164 -2.3
  endloop
endfacet
facet normal -0.9914448613738084 0.13052619222006695 0.0
  outer loop
    vertex -58.80055834724162 -68.8916899052226 -0.3
    vertex -58.90706440414962 -69.70068372501164 -2.3
    vertex -58.90706440414962 -69.70068372501164 -0.3
  endloop
endfacet
facet normal -0.9914448613738084 0.13052619222006695 0.0
  outer loop
    vertex -58.90706440414962 -69.70068372501164 -2.3
    vertex -58.80055834724162 -68.8916899052226 -0.3
    vertex -58.80055834724162 -68.8916899052226 -2.3
  endloop
endfacet
facet normal -0.9996573249755573 -0.02617694830787751 -0.0
  outer loop
    vertex -58.82191807205038 -68.0759949237675 -0.3
    vertex -58.80055834724162 -68.8916899052226 -2.3
    vertex -58.80055834724162 -68.8916899052226 -0.3
  endloop
endfacet
facet normal -0.9996573249755573 -0.02617694830787751 -0.0
  outer loop
    vertex -58.80055834724162 -68.8916899052226 -2.3
    vertex -58.82191807205038 -68.0759949237675 -0.3
    vertex -58.82191807205038 -68.0759949237675 -2.3
  endloop
endfacet
facet normal -0.9832549075639518 -0.18223552549216301 -0.0
  outer loop
    vertex -58.970617631262265 -67.2736838982262 -0.3
    vertex -58.82191807205038 -68.0759949237675 -2.3
    vertex -58.82191807205038 -68.0759949237675 -0.3
  endloop
endfacet
facet normal -0.9832549075639518 -0.18223552549216301 -0.0
  outer loop
    vertex -58.82191807205038 -68.0759949237675 -2.3
    vertex -58.970617631262265 -67.2736838982262 -0.3
    vertex -58.970617631262265 -67.2736838982262 -2.3
  endloop
endfacet
facet normal -0.9426414910921804 -0.3338068592337656 -0.0
  outer loop
    vertex -59.24299554822389 -66.50451238876514 -0.3
    vertex -58.970617631262265 -67.2736838982262 -2.3
    vertex -58.970617631262265 -67.2736838982262 -0.3
  endloop
endfacet
facet normal -0.9426414910921804 -0.3338068592337656 -0.0
  outer loop
    vertex -58.970617631262265 -67.2736838982262 -2.3
    vertex -59.24299554822389 -66.50451238876514 -0.3
    vertex -59.24299554822389 -66.50451238876514 -2.3
  endloop
endfacet
facet normal -0.8788171126619666 -0.4771587602596063 -0.0
  outer loop
    vertex -59.63234497464921 -65.78741995068116 -0.3
    vertex -59.24299554822389 -66.50451238876514 -2.3
    vertex -59.24299554822389 -66.50451238876514 -0.3
  endloop
endfacet
facet normal -0.8788171126619666 -0.4771587602596063 -0.0
  outer loop
    vertex -59.24299554822389 -66.50451238876514 -2.3
    vertex -59.63234497464921 -65.78741995068116 -0.3
    vertex -59.63234497464921 -65.78741995068116 -2.3
  endloop
endfacet
facet normal -0.7933533402912352 -0.6087614290087209 -0.0
  outer loop
    vertex -60.12907883548296 -65.14006377969324 -0.3
    vertex -59.63234497464921 -65.78741995068116 -2.3
    vertex -59.63234497464921 -65.78741995068116 -0.3
  endloop
endfacet
facet normal -0.7933533402912352 -0.6087614290087209 -0.0
  outer loop
    vertex -59.63234497464921 -65.78741995068116 -2.3
    vertex -60.12907883548296 -65.14006377969324 -0.3
    vertex -60.12907883548296 -65.14006377969324 -2.3
  endloop
endfacet
facet normal -0.6883545756937511 -0.7253743710122904 -0.0
  outer loop
    vertex -60.12907883548296 -65.14006377969324 -0.3
    vertex -60.720965894506264 -64.57838393318305 -2.3
    vertex -60.12907883548296 -65.14006377969324 -2.3
  endloop
endfacet
facet normal -0.6883545756937511 -0.7253743710122904 -0.0
  outer loop
    vertex -60.720965894506264 -64.57838393318305 -2.3
    vertex -60.12907883548296 -65.14006377969324 -0.3
    vertex -60.720965894506264 -64.57838393318305 -0.3
  endloop
endfacet
facet normal -0.5664062369248294 -0.8241261886220181 -0.0
  outer loop
    vertex -60.720965894506264 -64.57838393318305 -0.3
    vertex -61.393431927965416 -64.11621083308023 -2.3
    vertex -60.720965894506264 -64.57838393318305 -2.3
  endloop
endfacet
facet normal -0.5664062369248294 -0.8241261886220181 -0.0
  outer loop
    vertex -61.393431927965416 -64.11621083308023 -2.3
    vertex -60.720965894506264 -64.57838393318305 -0.3
    vertex -61.393431927965416 -64.11621083308023 -0.3
  endloop
endfacet
endsolid Remote Control
