solid Remote Control
facet normal 3.718771455021268e-32 -1.0 -3.524958103184873e-16
  outer loop
    vertex -129.17366642331712 95.13686267212397 -7.589999999999952
    vertex -169.26861642331693 95.13686267212397 -6.589999999999956
    vertex -169.26861642331693 95.13686267212397 -7.589999999999956
  endloop
endfacet
facet normal 3.718771455021268e-32 -1.0 -3.524958103184873e-16
  outer loop
    vertex -169.26861642331693 95.13686267212397 -6.589999999999956
    vertex -129.17366642331712 95.13686267212397 -7.589999999999952
    vertex -129.17366642331712 95.13686267212397 -6.589999999999953
  endloop
endfacet
facet normal -5.274915823341676e-17 -3.524958103184872e-16 1.0
  outer loop
    vertex -129.17366642331712 95.13686267212397 -6.589999999999953
    vertex -169.26861642331693 101.13686267212397 -6.589999999999953
    vertex -169.26861642331693 95.13686267212397 -6.589999999999956
  endloop
endfacet
facet normal -5.274915823341676e-17 -3.524958103184872e-16 1.0
  outer loop
    vertex -169.26861642331693 101.13686267212397 -6.589999999999953
    vertex -129.17366642331712 95.13686267212397 -6.589999999999953
    vertex -129.17366642331712 101.13686267212397 -6.589999999999953
  endloop
endfacet
facet normal -1.0 3.7187714550212684e-32 -5.2749158233416764e-17
  outer loop
    vertex -169.26861642331693 101.13686267212397 -6.589999999999953
    vertex -169.26861642331693 95.13686267212397 -7.589999999999956
    vertex -169.26861642331693 95.13686267212397 -6.589999999999956
  endloop
endfacet
facet normal -1.0 3.7187714550212684e-32 -5.2749158233416764e-17
  outer loop
    vertex -169.26861642331693 95.13686267212397 -7.589999999999956
    vertex -169.26861642331693 101.13686267212397 -6.589999999999953
    vertex -169.26861642331693 101.13686267212397 -7.589999999999952
  endloop
endfacet
facet normal 1.0 0.0 5.2749158233416764e-17
  outer loop
    vertex -129.17366642331712 101.13686267212397 -7.589999999999952
    vertex -129.17366642331712 95.13686267212397 -6.589999999999953
    vertex -129.17366642331712 95.13686267212397 -7.589999999999952
  endloop
endfacet
facet normal 1.0 0.0 5.2749158233416764e-17
  outer loop
    vertex -129.17366642331712 95.13686267212397 -6.589999999999953
    vertex -129.17366642331712 101.13686267212397 -7.589999999999952
    vertex -129.17366642331712 101.13686267212397 -6.589999999999953
  endloop
endfacet
facet normal 0.0 1.0 3.524958103184873e-16
  outer loop
    vertex -169.26861642331693 101.13686267212397 -6.589999999999953
    vertex -129.17366642331712 101.13686267212397 -7.589999999999952
    vertex -169.26861642331693 101.13686267212397 -7.589999999999952
  endloop
endfacet
facet normal 0.0 1.0 3.524958103184873e-16
  outer loop
    vertex -129.17366642331712 101.13686267212397 -7.589999999999952
    vertex -169.26861642331693 101.13686267212397 -6.589999999999953
    vertex -129.17366642331712 101.13686267212397 -6.589999999999953
  endloop
endfacet
facet normal 5.274915823341676e-17 3.524958103184872e-16 -1.0
  outer loop
    vertex -129.17366642331712 101.13686267212397 -7.589999999999952
    vertex -169.26861642331693 95.13686267212397 -7.589999999999956
    vertex -169.26861642331693 101.13686267212397 -7.589999999999952
  endloop
endfacet
facet normal 5.274915823341676e-17 3.524958103184872e-16 -1.0
  outer loop
    vertex -169.26861642331693 95.13686267212397 -7.589999999999956
    vertex -129.17366642331712 101.13686267212397 -7.589999999999952
    vertex -129.17366642331712 95.13686267212397 -7.589999999999952
  endloop
endfacet
endsolid Remote Control
