solid Remote Control
facet normal -0.13052619222005202 -0.9914448613738105 -0.0
  outer loop
    vertex -63.99343192796541 -47.89739493275932 0.0
    vertex -67.87571760450324 -47.38628232709534 -1.9999999999999998
    vertex -63.99343192796541 -47.89739493275932 -1.9999999999999998
  endloop
endfacet
facet normal -0.13052619222005202 -0.9914448613738105 -0.0
  outer loop
    vertex -67.87571760450324 -47.38628232709534 -1.9999999999999998
    vertex -63.99343192796541 -47.89739493275932 0.0
    vertex -67.87571760450324 -47.38628232709534 0.0
  endloop
endfacet
facet normal -0.6087614290087221 -0.7933533402912342 -0.0
  outer loop
    vertex -71.49343192796542 -45.88777598952589 0.0
    vertex -74.60003364576363 -43.503996650557525 -1.9999999999999998
    vertex -71.49343192796542 -45.88777598952589 -1.9999999999999998
  endloop
endfacet
facet normal -0.6087614290087221 -0.7933533402912342 -0.0
  outer loop
    vertex -74.60003364576363 -43.503996650557525 -1.9999999999999998
    vertex -71.49343192796542 -45.88777598952589 0.0
    vertex -74.60003364576363 -43.503996650557525 0.0
  endloop
endfacet
facet normal 0.13052619222005116 -0.9914448613738106 0.0
  outer loop
    vertex -60.1111462514276 -47.38628232709535 0.0
    vertex -63.99343192796541 -47.89739493275932 -1.9999999999999998
    vertex -60.1111462514276 -47.38628232709535 -1.9999999999999998
  endloop
endfacet
facet normal 0.13052619222005116 -0.9914448613738106 0.0
  outer loop
    vertex -63.99343192796541 -47.89739493275932 -1.9999999999999998
    vertex -60.1111462514276 -47.38628232709535 0.0
    vertex -63.99343192796541 -47.89739493275932 0.0
  endloop
endfacet
facet normal -0.38268343236508967 -0.9238795325112867 -0.0
  outer loop
    vertex -67.87571760450324 -47.38628232709534 0.0
    vertex -71.49343192796542 -45.88777598952589 -1.9999999999999998
    vertex -67.87571760450324 -47.38628232709534 -1.9999999999999998
  endloop
endfacet
facet normal -0.38268343236508967 -0.9238795325112867 -0.0
  outer loop
    vertex -71.49343192796542 -45.88777598952589 -1.9999999999999998
    vertex -67.87571760450324 -47.38628232709534 0.0
    vertex -71.49343192796542 -45.88777598952589 0.0
  endloop
endfacet
facet normal 0.3826834323650891 -0.9238795325112871 0.0
  outer loop
    vertex -56.493431927965425 -45.887775989525906 0.0
    vertex -60.1111462514276 -47.38628232709535 -1.9999999999999998
    vertex -56.493431927965425 -45.887775989525906 -1.9999999999999998
  endloop
endfacet
facet normal 0.3826834323650891 -0.9238795325112871 0.0
  outer loop
    vertex -60.1111462514276 -47.38628232709535 -1.9999999999999998
    vertex -56.493431927965425 -45.887775989525906 0.0
    vertex -60.1111462514276 -47.38628232709535 0.0
  endloop
endfacet
facet normal 0.7933533402912349 -0.608761429008721 0.0
  outer loop
    vertex -51.00305087119884 -40.397394932759326 -1.9999999999999998
    vertex -53.38683021016719 -43.50399665055753 0.0
    vertex -53.38683021016719 -43.50399665055753 -1.9999999999999998
  endloop
endfacet
facet normal 0.7933533402912349 -0.608761429008721 0.0
  outer loop
    vertex -53.38683021016719 -43.50399665055753 0.0
    vertex -51.00305087119884 -40.397394932759326 -1.9999999999999998
    vertex -51.00305087119884 -40.397394932759326 0.0
  endloop
endfacet
facet normal 0.9238795325112863 -0.382683432365091 0.0
  outer loop
    vertex -49.504544533629385 -36.779680609297145 -1.9999999999999998
    vertex -51.00305087119884 -40.397394932759326 0.0
    vertex -51.00305087119884 -40.397394932759326 -1.9999999999999998
  endloop
endfacet
facet normal 0.9238795325112863 -0.382683432365091 0.0
  outer loop
    vertex -51.00305087119884 -40.397394932759326 0.0
    vertex -49.504544533629385 -36.779680609297145 -1.9999999999999998
    vertex -49.504544533629385 -36.779680609297145 0.0
  endloop
endfacet
facet normal 0.6087614290087203 0.7933533402912356 0.0
  outer loop
    vertex -56.4934319279654 -19.907013875992742 0.0
    vertex -53.38683021016719 -22.29079321496111 -1.9999999999999998
    vertex -56.4934319279654 -19.907013875992742 -1.9999999999999998
  endloop
endfacet
facet normal 0.6087614290087203 0.7933533402912356 0.0
  outer loop
    vertex -53.38683021016719 -22.29079321496111 -1.9999999999999998
    vertex -56.4934319279654 -19.907013875992742 0.0
    vertex -53.38683021016719 -22.29079321496111 0.0
  endloop
endfacet
facet normal 0.7933533402912356 0.6087614290087201 0.0
  outer loop
    vertex -53.38683021016719 -22.29079321496111 -1.9999999999999998
    vertex -51.00305087119883 -25.397394932759322 0.0
    vertex -51.00305087119883 -25.397394932759322 -1.9999999999999998
  endloop
endfacet
facet normal 0.7933533402912356 0.6087614290087201 0.0
  outer loop
    vertex -51.00305087119883 -25.397394932759322 0.0
    vertex -53.38683021016719 -22.29079321496111 -1.9999999999999998
    vertex -53.38683021016719 -22.29079321496111 0.0
  endloop
endfacet
facet normal 0.923879532511287 0.3826834323650894 0.0
  outer loop
    vertex -51.00305087119883 -25.397394932759322 -1.9999999999999998
    vertex -49.504544533629385 -29.015109256221507 0.0
    vertex -49.504544533629385 -29.015109256221507 -1.9999999999999998
  endloop
endfacet
facet normal 0.923879532511287 0.3826834323650894 0.0
  outer loop
    vertex -49.504544533629385 -29.015109256221507 0.0
    vertex -51.00305087119883 -25.397394932759322 -1.9999999999999998
    vertex -51.00305087119883 -25.397394932759322 0.0
  endloop
endfacet
facet normal 0.9914448613738105 -0.13052619222005132 0.0
  outer loop
    vertex -48.99343192796541 -32.89739493275932 -1.9999999999999998
    vertex -49.504544533629385 -36.779680609297145 0.0
    vertex -49.504544533629385 -36.779680609297145 -1.9999999999999998
  endloop
endfacet
facet normal 0.9914448613738105 -0.13052619222005132 0.0
  outer loop
    vertex -49.504544533629385 -36.779680609297145 0.0
    vertex -48.99343192796541 -32.89739493275932 -1.9999999999999998
    vertex -48.99343192796541 -32.89739493275932 0.0
  endloop
endfacet
facet normal 0.6087614290087207 -0.793353340291235 0.0
  outer loop
    vertex -53.38683021016719 -43.50399665055753 0.0
    vertex -56.493431927965425 -45.887775989525906 -1.9999999999999998
    vertex -53.38683021016719 -43.50399665055753 -1.9999999999999998
  endloop
endfacet
facet normal 0.6087614290087207 -0.793353340291235 0.0
  outer loop
    vertex -56.493431927965425 -45.887775989525906 -1.9999999999999998
    vertex -53.38683021016719 -43.50399665055753 0.0
    vertex -56.493431927965425 -45.887775989525906 0.0
  endloop
endfacet
facet normal 0.9914448613738104 0.13052619222005174 0.0
  outer loop
    vertex -49.504544533629385 -29.015109256221507 -1.9999999999999998
    vertex -48.99343192796541 -32.89739493275932 0.0
    vertex -48.99343192796541 -32.89739493275932 -1.9999999999999998
  endloop
endfacet
facet normal 0.9914448613738104 0.13052619222005174 0.0
  outer loop
    vertex -48.99343192796541 -32.89739493275932 0.0
    vertex -49.504544533629385 -29.015109256221507 -1.9999999999999998
    vertex -49.504544533629385 -29.015109256221507 0.0
  endloop
endfacet
facet normal 0.0 0.0 1.0
  outer loop
    vertex -78.48231932230144 -36.779680609297124 0.0
    vertex -78.48231932230144 -29.015109256221507 0.0
    vertex -78.99343192796542 -32.89739493275931 0.0
  endloop
endfacet
facet normal 0.0 0.0 1.0
  outer loop
    vertex -78.48231932230144 -29.015109256221507 0.0
    vertex -78.48231932230144 -36.779680609297124 0.0
    vertex -76.983812984732 -40.39739493275932 0.0
  endloop
endfacet
facet normal 0.0 0.0 1.0
  outer loop
    vertex -78.48231932230144 -29.015109256221507 0.0
    vertex -76.983812984732 -40.39739493275932 0.0
    vertex -76.983812984732 -25.397394932759312 0.0
  endloop
endfacet
facet normal 0.0 0.0 1.0
  outer loop
    vertex -76.983812984732 -25.397394932759312 0.0
    vertex -76.983812984732 -40.39739493275932 0.0
    vertex -74.60003364576363 -43.503996650557525 0.0
  endloop
endfacet
facet normal 0.0 0.0 1.0
  outer loop
    vertex -76.983812984732 -25.397394932759312 0.0
    vertex -74.60003364576363 -43.503996650557525 0.0
    vertex -74.60003364576363 -22.29079321496111 0.0
  endloop
endfacet
facet normal 0.0 0.0 1.0
  outer loop
    vertex -74.60003364576363 -22.29079321496111 0.0
    vertex -74.60003364576363 -43.503996650557525 0.0
    vertex -71.49343192796542 -45.88777598952589 0.0
  endloop
endfacet
facet normal 0.0 0.0 1.0
  outer loop
    vertex -74.60003364576363 -22.29079321496111 0.0
    vertex -71.49343192796542 -45.88777598952589 0.0
    vertex -71.4934319279654 -19.907013875992735 0.0
  endloop
endfacet
facet normal 0.0 0.0 1.0
  outer loop
    vertex -71.4934319279654 -19.907013875992735 0.0
    vertex -71.49343192796542 -45.88777598952589 0.0
    vertex -69.9977464082555 -32.89739493275932 0.0
  endloop
endfacet
facet normal 0.0 0.0 1.0
  outer loop
    vertex -69.9977464082555 -32.89739493275932 0.0
    vertex -71.49343192796542 -45.88777598952589 0.0
    vertex -69.79315435363903 -34.451425873043206 0.0
  endloop
endfacet
facet normal 0.0 0.0 1.0
  outer loop
    vertex -69.79315435363903 -34.451425873043206 0.0
    vertex -71.49343192796542 -45.88777598952589 0.0
    vertex -67.87571760450324 -47.38628232709534 0.0
  endloop
endfacet
facet normal 0.0 0.0 1.0
  outer loop
    vertex -69.79315435363903 -34.451425873043206 0.0
    vertex -67.87571760450324 -47.38628232709534 0.0
    vertex -69.19332080020737 -35.899552172904365 0.0
  endloop
endfacet
facet normal 0.0 0.0 1.0
  outer loop
    vertex -69.19332080020737 -35.899552172904365 0.0
    vertex -67.87571760450324 -47.38628232709534 0.0
    vertex -68.2391234133551 -37.143086418149025 0.0
  endloop
endfacet
facet normal 0.0 0.0 1.0
  outer loop
    vertex -68.2391234133551 -37.143086418149025 0.0
    vertex -67.87571760450324 -47.38628232709534 0.0
    vertex -66.99558916811046 -38.09728380500128 0.0
  endloop
endfacet
facet normal 0.0 0.0 1.0
  outer loop
    vertex -66.99558916811046 -38.09728380500128 0.0
    vertex -67.87571760450324 -47.38628232709534 0.0
    vertex -63.99343192796541 -47.89739493275932 0.0
  endloop
endfacet
facet normal 0.0 0.0 1.0
  outer loop
    vertex -66.99558916811046 -38.09728380500128 0.0
    vertex -63.99343192796541 -47.89739493275932 0.0
    vertex -65.54746286824935 -38.697117358432926 0.0
  endloop
endfacet
facet normal 0.0 0.0 1.0
  outer loop
    vertex -65.54746286824935 -38.697117358432926 0.0
    vertex -63.99343192796541 -47.89739493275932 0.0
    vertex -63.99343192796541 -38.901709413049396 0.0
  endloop
endfacet
facet normal 0.0 0.0 1.0
  outer loop
    vertex -63.99343192796541 -38.901709413049396 0.0
    vertex -63.99343192796541 -47.89739493275932 0.0
    vertex -60.1111462514276 -47.38628232709535 0.0
  endloop
endfacet
facet normal 0.0 0.0 1.0
  outer loop
    vertex -63.99343192796541 -38.901709413049396 0.0
    vertex -60.1111462514276 -47.38628232709535 0.0
    vertex -62.43940098768146 -38.69711735843292 0.0
  endloop
endfacet
facet normal 0.0 0.0 1.0
  outer loop
    vertex -62.43940098768146 -38.69711735843292 0.0
    vertex -60.1111462514276 -47.38628232709535 0.0
    vertex -60.9912746878204 -38.097283805001304 0.0
  endloop
endfacet
facet normal 0.0 0.0 1.0
  outer loop
    vertex -60.9912746878204 -38.097283805001304 0.0
    vertex -60.1111462514276 -47.38628232709535 0.0
    vertex -59.7477404425757 -37.14308641814899 0.0
  endloop
endfacet
facet normal 0.0 0.0 1.0
  outer loop
    vertex -59.7477404425757 -37.14308641814899 0.0
    vertex -60.1111462514276 -47.38628232709535 0.0
    vertex -56.493431927965425 -45.887775989525906 0.0
  endloop
endfacet
facet normal 0.0 0.0 1.0
  outer loop
    vertex -59.7477404425757 -37.14308641814899 0.0
    vertex -56.493431927965425 -45.887775989525906 0.0
    vertex -58.79354305572345 -35.89955217290436 0.0
  endloop
endfacet
facet normal 0.0 0.0 1.0
  outer loop
    vertex -58.79354305572345 -35.89955217290436 0.0
    vertex -56.493431927965425 -45.887775989525906 0.0
    vertex -58.193709502291796 -34.451425873043206 0.0
  endloop
endfacet
facet normal 0.0 0.0 1.0
  outer loop
    vertex -58.193709502291796 -34.451425873043206 0.0
    vertex -56.493431927965425 -45.887775989525906 0.0
    vertex -57.98911744767532 -32.89739493275931 0.0
  endloop
endfacet
facet normal 0.0 0.0 1.0
  outer loop
    vertex -71.4934319279654 -19.907013875992735 0.0
    vertex -69.79315435363903 -31.343363992475435 0.0
    vertex -67.87571760450322 -18.408507538423294 0.0
  endloop
endfacet
facet normal 0.0 0.0 1.0
  outer loop
    vertex -69.79315435363903 -31.343363992475435 0.0
    vertex -71.4934319279654 -19.907013875992735 0.0
    vertex -69.9977464082555 -32.89739493275932 0.0
  endloop
endfacet
facet normal 0.0 0.0 1.0
  outer loop
    vertex -67.87571760450322 -18.408507538423294 0.0
    vertex -69.79315435363903 -31.343363992475435 0.0
    vertex -69.19332080020737 -29.89523769261426 0.0
  endloop
endfacet
facet normal 0.0 0.0 1.0
  outer loop
    vertex -67.87571760450322 -18.408507538423294 0.0
    vertex -69.19332080020737 -29.89523769261426 0.0
    vertex -68.23912341335513 -28.651703447369655 0.0
  endloop
endfacet
facet normal 0.0 0.0 1.0
  outer loop
    vertex -67.87571760450322 -18.408507538423294 0.0
    vertex -68.23912341335513 -28.651703447369655 0.0
    vertex -66.99558916811041 -27.697506060517338 0.0
  endloop
endfacet
facet normal 0.0 0.0 1.0
  outer loop
    vertex -67.87571760450322 -18.408507538423294 0.0
    vertex -66.99558916811041 -27.697506060517338 0.0
    vertex -63.99343192796541 -17.89739493275932 0.0
  endloop
endfacet
facet normal 0.0 0.0 1.0
  outer loop
    vertex -63.99343192796541 -17.89739493275932 0.0
    vertex -66.99558916811041 -27.697506060517338 0.0
    vertex -65.54746286824935 -27.09767250708572 0.0
  endloop
endfacet
facet normal 0.0 0.0 1.0
  outer loop
    vertex -63.99343192796541 -17.89739493275932 0.0
    vertex -65.54746286824935 -27.09767250708572 0.0
    vertex -63.99343192796541 -26.893080452469246 0.0
  endloop
endfacet
facet normal 0.0 0.0 1.0
  outer loop
    vertex -63.99343192796541 -17.89739493275932 0.0
    vertex -63.99343192796541 -26.893080452469246 0.0
    vertex -62.43940098768149 -27.097672507085708 0.0
  endloop
endfacet
facet normal 0.0 0.0 1.0
  outer loop
    vertex -63.99343192796541 -17.89739493275932 0.0
    vertex -62.43940098768149 -27.097672507085708 0.0
    vertex -60.1111462514276 -18.408507538423294 0.0
  endloop
endfacet
facet normal 0.0 0.0 1.0
  outer loop
    vertex -60.1111462514276 -18.408507538423294 0.0
    vertex -62.43940098768149 -27.097672507085708 0.0
    vertex -60.991274687820365 -27.69750606051735 0.0
  endloop
endfacet
facet normal 0.0 0.0 1.0
  outer loop
    vertex -60.1111462514276 -18.408507538423294 0.0
    vertex -60.991274687820365 -27.69750606051735 0.0
    vertex -59.747740442575754 -28.651703447369588 0.0
  endloop
endfacet
facet normal 0.0 0.0 1.0
  outer loop
    vertex -60.1111462514276 -18.408507538423294 0.0
    vertex -59.747740442575754 -28.651703447369588 0.0
    vertex -56.4934319279654 -19.907013875992742 0.0
  endloop
endfacet
facet normal 0.0 0.0 1.0
  outer loop
    vertex -56.4934319279654 -19.907013875992742 0.0
    vertex -59.747740442575754 -28.651703447369588 0.0
    vertex -58.793543055723426 -29.89523769261432 0.0
  endloop
endfacet
facet normal 0.0 0.0 1.0
  outer loop
    vertex -56.4934319279654 -19.907013875992742 0.0
    vertex -58.793543055723426 -29.89523769261432 0.0
    vertex -58.193709502291796 -31.343363992475407 0.0
  endloop
endfacet
facet normal 0.0 0.0 1.0
  outer loop
    vertex -56.4934319279654 -19.907013875992742 0.0
    vertex -58.193709502291796 -31.343363992475407 0.0
    vertex -57.98911744767532 -32.89739493275931 0.0
  endloop
endfacet
facet normal 0.0 0.0 1.0
  outer loop
    vertex -56.4934319279654 -19.907013875992742 0.0
    vertex -57.98911744767532 -32.89739493275931 0.0
    vertex -56.493431927965425 -45.887775989525906 0.0
  endloop
endfacet
facet normal 0.0 0.0 1.0
  outer loop
    vertex -56.4934319279654 -19.907013875992742 0.0
    vertex -56.493431927965425 -45.887775989525906 0.0
    vertex -53.38683021016719 -43.50399665055753 0.0
  endloop
endfacet
facet normal 0.0 0.0 1.0
  outer loop
    vertex -56.4934319279654 -19.907013875992742 0.0
    vertex -53.38683021016719 -43.50399665055753 0.0
    vertex -53.38683021016719 -22.29079321496111 0.0
  endloop
endfacet
facet normal 0.0 0.0 1.0
  outer loop
    vertex -53.38683021016719 -22.29079321496111 0.0
    vertex -53.38683021016719 -43.50399665055753 0.0
    vertex -51.00305087119884 -40.397394932759326 0.0
  endloop
endfacet
facet normal 0.0 0.0 1.0
  outer loop
    vertex -53.38683021016719 -22.29079321496111 0.0
    vertex -51.00305087119884 -40.397394932759326 0.0
    vertex -51.00305087119883 -25.397394932759322 0.0
  endloop
endfacet
facet normal 0.0 0.0 1.0
  outer loop
    vertex -51.00305087119883 -25.397394932759322 0.0
    vertex -51.00305087119884 -40.397394932759326 0.0
    vertex -49.504544533629385 -36.779680609297145 0.0
  endloop
endfacet
facet normal 0.0 0.0 1.0
  outer loop
    vertex -51.00305087119883 -25.397394932759322 0.0
    vertex -49.504544533629385 -36.779680609297145 0.0
    vertex -49.504544533629385 -29.015109256221507 0.0
  endloop
endfacet
facet normal 0.0 0.0 1.0
  outer loop
    vertex -49.504544533629385 -29.015109256221507 0.0
    vertex -49.504544533629385 -36.779680609297145 0.0
    vertex -48.99343192796541 -32.89739493275932 0.0
  endloop
endfacet
facet normal -0.6087614290087201 0.7933533402912357 0.0
  outer loop
    vertex -74.60003364576363 -22.29079321496111 0.0
    vertex -71.4934319279654 -19.907013875992735 -1.9999999999999998
    vertex -74.60003364576363 -22.29079321496111 -1.9999999999999998
  endloop
endfacet
facet normal -0.6087614290087201 0.7933533402912357 0.0
  outer loop
    vertex -71.4934319279654 -19.907013875992735 -1.9999999999999998
    vertex -74.60003364576363 -22.29079321496111 0.0
    vertex -71.4934319279654 -19.907013875992735 0.0
  endloop
endfacet
facet normal -0.3826834323650892 0.923879532511287 0.0
  outer loop
    vertex -71.4934319279654 -19.907013875992735 0.0
    vertex -67.87571760450322 -18.408507538423294 -1.9999999999999998
    vertex -71.4934319279654 -19.907013875992735 -1.9999999999999998
  endloop
endfacet
facet normal -0.3826834323650892 0.923879532511287 0.0
  outer loop
    vertex -67.87571760450322 -18.408507538423294 -1.9999999999999998
    vertex -71.4934319279654 -19.907013875992735 0.0
    vertex -67.87571760450322 -18.408507538423294 0.0
  endloop
endfacet
facet normal -0.7933533402912353 -0.6087614290087208 -0.0
  outer loop
    vertex -76.983812984732 -40.39739493275932 0.0
    vertex -74.60003364576363 -43.503996650557525 -1.9999999999999998
    vertex -74.60003364576363 -43.503996650557525 0.0
  endloop
endfacet
facet normal -0.7933533402912353 -0.6087614290087208 -0.0
  outer loop
    vertex -74.60003364576363 -43.503996650557525 -1.9999999999999998
    vertex -76.983812984732 -40.39739493275932 0.0
    vertex -76.983812984732 -40.39739493275932 -1.9999999999999998
  endloop
endfacet
facet normal -0.9238795325112871 0.38268343236508917 0.0
  outer loop
    vertex -76.983812984732 -25.397394932759312 0.0
    vertex -78.48231932230144 -29.015109256221507 -1.9999999999999998
    vertex -78.48231932230144 -29.015109256221507 0.0
  endloop
endfacet
facet normal -0.9238795325112871 0.38268343236508917 0.0
  outer loop
    vertex -78.48231932230144 -29.015109256221507 -1.9999999999999998
    vertex -76.983812984732 -25.397394932759312 0.0
    vertex -76.983812984732 -25.397394932759312 -1.9999999999999998
  endloop
endfacet
facet normal 0.13052619222005168 0.9914448613738104 0.0
  outer loop
    vertex -63.99343192796541 -17.89739493275932 0.0
    vertex -60.1111462514276 -18.408507538423294 -1.9999999999999998
    vertex -63.99343192796541 -17.89739493275932 -1.9999999999999998
  endloop
endfacet
facet normal 0.13052619222005168 0.9914448613738104 0.0
  outer loop
    vertex -60.1111462514276 -18.408507538423294 -1.9999999999999998
    vertex -63.99343192796541 -17.89739493275932 0.0
    vertex -60.1111462514276 -18.408507538423294 0.0
  endloop
endfacet
facet normal -0.7933533402912349 0.608761429008721 0.0
  outer loop
    vertex -74.60003364576363 -22.29079321496111 0.0
    vertex -76.983812984732 -25.397394932759312 -1.9999999999999998
    vertex -76.983812984732 -25.397394932759312 0.0
  endloop
endfacet
facet normal -0.7933533402912349 0.608761429008721 0.0
  outer loop
    vertex -76.983812984732 -25.397394932759312 -1.9999999999999998
    vertex -74.60003364576363 -22.29079321496111 0.0
    vertex -74.60003364576363 -22.29079321496111 -1.9999999999999998
  endloop
endfacet
facet normal -0.9238795325112871 -0.38268343236508917 -0.0
  outer loop
    vertex -78.48231932230144 -36.779680609297124 0.0
    vertex -76.983812984732 -40.39739493275932 -1.9999999999999998
    vertex -76.983812984732 -40.39739493275932 0.0
  endloop
endfacet
facet normal -0.9238795325112871 -0.38268343236508917 -0.0
  outer loop
    vertex -76.983812984732 -40.39739493275932 -1.9999999999999998
    vertex -78.48231932230144 -36.779680609297124 0.0
    vertex -78.48231932230144 -36.779680609297124 -1.9999999999999998
  endloop
endfacet
facet normal -0.9914448613738103 -0.1305261922200533 -0.0
  outer loop
    vertex -78.99343192796542 -32.89739493275931 0.0
    vertex -78.48231932230144 -36.779680609297124 -1.9999999999999998
    vertex -78.48231932230144 -36.779680609297124 0.0
  endloop
endfacet
facet normal -0.9914448613738103 -0.1305261922200533 -0.0
  outer loop
    vertex -78.48231932230144 -36.779680609297124 -1.9999999999999998
    vertex -78.99343192796542 -32.89739493275931 0.0
    vertex -78.99343192796542 -32.89739493275931 -1.9999999999999998
  endloop
endfacet
facet normal 0.3826834323650899 0.9238795325112868 0.0
  outer loop
    vertex -60.1111462514276 -18.408507538423294 0.0
    vertex -56.4934319279654 -19.907013875992742 -1.9999999999999998
    vertex -60.1111462514276 -18.408507538423294 -1.9999999999999998
  endloop
endfacet
facet normal 0.3826834323650899 0.9238795325112868 0.0
  outer loop
    vertex -56.4934319279654 -19.907013875992742 -1.9999999999999998
    vertex -60.1111462514276 -18.408507538423294 0.0
    vertex -56.4934319279654 -19.907013875992742 0.0
  endloop
endfacet
facet normal -0.13052619222005188 0.9914448613738104 0.0
  outer loop
    vertex -67.87571760450322 -18.408507538423294 0.0
    vertex -63.99343192796541 -17.89739493275932 -1.9999999999999998
    vertex -67.87571760450322 -18.408507538423294 -1.9999999999999998
  endloop
endfacet
facet normal -0.13052619222005188 0.9914448613738104 0.0
  outer loop
    vertex -63.99343192796541 -17.89739493275932 -1.9999999999999998
    vertex -67.87571760450322 -18.408507538423294 0.0
    vertex -63.99343192796541 -17.89739493275932 0.0
  endloop
endfacet
facet normal -0.9914448613738103 0.1305261922200531 0.0
  outer loop
    vertex -78.48231932230144 -29.015109256221507 0.0
    vertex -78.99343192796542 -32.89739493275931 -1.9999999999999998
    vertex -78.99343192796542 -32.89739493275931 0.0
  endloop
endfacet
facet normal -0.9914448613738103 0.1305261922200531 0.0
  outer loop
    vertex -78.99343192796542 -32.89739493275931 -1.9999999999999998
    vertex -78.48231932230144 -29.015109256221507 0.0
    vertex -78.48231932230144 -29.015109256221507 -1.9999999999999998
  endloop
endfacet
facet normal 0.0 0.0 -1.0
  outer loop
    vertex -67.87571760450322 -18.408507538423294 -1.9999999999999998
    vertex -69.4934319279654 -32.89739493275932 -1.9999999999999998
    vertex -71.4934319279654 -19.907013875992735 -1.9999999999999998
  endloop
endfacet
facet normal 0.0 0.0 -1.0
  outer loop
    vertex -69.4934319279654 -32.89739493275932 -1.9999999999999998
    vertex -67.87571760450322 -18.408507538423294 -1.9999999999999998
    vertex -69.3060239725553 -31.473890184695456 -1.9999999999999998
  endloop
endfacet
facet normal 0.0 0.0 -1.0
  outer loop
    vertex -69.3060239725553 -31.473890184695456 -1.9999999999999998
    vertex -67.87571760450322 -18.408507538423294 -1.9999999999999998
    vertex -68.75657164877983 -30.14739493275932 -1.9999999999999998
  endloop
endfacet
facet normal 0.0 0.0 -1.0
  outer loop
    vertex -68.75657164877983 -30.14739493275932 -1.9999999999999998
    vertex -67.87571760450322 -18.408507538423294 -1.9999999999999998
    vertex -67.88251922449142 -29.008307636233308 -1.9999999999999998
  endloop
endfacet
facet normal 0.0 0.0 -1.0
  outer loop
    vertex -67.88251922449142 -29.008307636233308 -1.9999999999999998
    vertex -67.87571760450322 -18.408507538423294 -1.9999999999999998
    vertex -66.74343192796542 -28.134255211944907 -1.9999999999999998
  endloop
endfacet
facet normal 0.0 0.0 -1.0
  outer loop
    vertex -66.74343192796542 -28.134255211944907 -1.9999999999999998
    vertex -67.87571760450322 -18.408507538423294 -1.9999999999999998
    vertex -63.99343192796541 -17.89739493275932 -1.9999999999999998
  endloop
endfacet
facet normal 0.0 0.0 -1.0
  outer loop
    vertex -66.74343192796542 -28.134255211944907 -1.9999999999999998
    vertex -63.99343192796541 -17.89739493275932 -1.9999999999999998
    vertex -65.41693667602928 -27.584802888169445 -1.9999999999999998
  endloop
endfacet
facet normal 0.0 0.0 -1.0
  outer loop
    vertex -65.41693667602928 -27.584802888169445 -1.9999999999999998
    vertex -63.99343192796541 -17.89739493275932 -1.9999999999999998
    vertex -63.99343192796541 -27.39739493275932 -1.9999999999999998
  endloop
endfacet
facet normal 0.0 0.0 -1.0
  outer loop
    vertex -63.99343192796541 -27.39739493275932 -1.9999999999999998
    vertex -63.99343192796541 -17.89739493275932 -1.9999999999999998
    vertex -60.1111462514276 -18.408507538423294 -1.9999999999999998
  endloop
endfacet
facet normal 0.0 0.0 -1.0
  outer loop
    vertex -63.99343192796541 -27.39739493275932 -1.9999999999999998
    vertex -60.1111462514276 -18.408507538423294 -1.9999999999999998
    vertex -62.56992717990155 -27.58480288816944 -1.9999999999999998
  endloop
endfacet
facet normal 0.0 0.0 -1.0
  outer loop
    vertex -62.56992717990155 -27.58480288816944 -1.9999999999999998
    vertex -60.1111462514276 -18.408507538423294 -1.9999999999999998
    vertex -61.24343192796541 -28.134255211944907 -1.9999999999999998
  endloop
endfacet
facet normal 0.0 0.0 -1.0
  outer loop
    vertex -61.24343192796541 -28.134255211944907 -1.9999999999999998
    vertex -60.1111462514276 -18.408507538423294 -1.9999999999999998
    vertex -60.104344631439396 -29.008307636233305 -1.9999999999999998
  endloop
endfacet
facet normal 0.0 0.0 -1.0
  outer loop
    vertex -60.104344631439396 -29.008307636233305 -1.9999999999999998
    vertex -60.1111462514276 -18.408507538423294 -1.9999999999999998
    vertex -56.4934319279654 -19.907013875992742 -1.9999999999999998
  endloop
endfacet
facet normal 0.0 0.0 -1.0
  outer loop
    vertex -60.104344631439396 -29.008307636233305 -1.9999999999999998
    vertex -56.4934319279654 -19.907013875992742 -1.9999999999999998
    vertex -59.230292207151 -30.14739493275932 -1.9999999999999998
  endloop
endfacet
facet normal 0.0 0.0 -1.0
  outer loop
    vertex -59.230292207151 -30.14739493275932 -1.9999999999999998
    vertex -56.4934319279654 -19.907013875992742 -1.9999999999999998
    vertex -58.680839883375526 -31.47389018469545 -1.9999999999999998
  endloop
endfacet
facet normal 0.0 0.0 -1.0
  outer loop
    vertex -58.680839883375526 -31.47389018469545 -1.9999999999999998
    vertex -56.4934319279654 -19.907013875992742 -1.9999999999999998
    vertex -58.49343192796541 -32.89739493275932 -1.9999999999999998
  endloop
endfacet
facet normal 0.0 0.0 -1.0
  outer loop
    vertex -58.49343192796541 -32.89739493275932 -1.9999999999999998
    vertex -56.4934319279654 -19.907013875992742 -1.9999999999999998
    vertex -56.493431927965425 -45.887775989525906 -1.9999999999999998
  endloop
endfacet
facet normal 0.0 0.0 -1.0
  outer loop
    vertex -56.493431927965425 -45.887775989525906 -1.9999999999999998
    vertex -56.4934319279654 -19.907013875992742 -1.9999999999999998
    vertex -53.38683021016719 -43.50399665055753 -1.9999999999999998
  endloop
endfacet
facet normal 0.0 0.0 -1.0
  outer loop
    vertex -53.38683021016719 -43.50399665055753 -1.9999999999999998
    vertex -56.4934319279654 -19.907013875992742 -1.9999999999999998
    vertex -53.38683021016719 -22.29079321496111 -1.9999999999999998
  endloop
endfacet
facet normal 0.0 0.0 -1.0
  outer loop
    vertex -53.38683021016719 -43.50399665055753 -1.9999999999999998
    vertex -53.38683021016719 -22.29079321496111 -1.9999999999999998
    vertex -51.00305087119883 -25.397394932759322 -1.9999999999999998
  endloop
endfacet
facet normal 0.0 0.0 -1.0
  outer loop
    vertex -53.38683021016719 -43.50399665055753 -1.9999999999999998
    vertex -51.00305087119883 -25.397394932759322 -1.9999999999999998
    vertex -51.00305087119884 -40.397394932759326 -1.9999999999999998
  endloop
endfacet
facet normal 0.0 0.0 -1.0
  outer loop
    vertex -51.00305087119884 -40.397394932759326 -1.9999999999999998
    vertex -51.00305087119883 -25.397394932759322 -1.9999999999999998
    vertex -49.504544533629385 -36.779680609297145 -1.9999999999999998
  endloop
endfacet
facet normal 0.0 0.0 -1.0
  outer loop
    vertex -49.504544533629385 -36.779680609297145 -1.9999999999999998
    vertex -51.00305087119883 -25.397394932759322 -1.9999999999999998
    vertex -49.504544533629385 -29.015109256221507 -1.9999999999999998
  endloop
endfacet
facet normal 0.0 0.0 -1.0
  outer loop
    vertex -49.504544533629385 -36.779680609297145 -1.9999999999999998
    vertex -49.504544533629385 -29.015109256221507 -1.9999999999999998
    vertex -48.99343192796541 -32.89739493275932 -1.9999999999999998
  endloop
endfacet
facet normal 0.0 0.0 -1.0
  outer loop
    vertex -78.48231932230144 -29.015109256221507 -1.9999999999999998
    vertex -78.48231932230144 -36.779680609297124 -1.9999999999999998
    vertex -78.99343192796542 -32.89739493275931 -1.9999999999999998
  endloop
endfacet
facet normal 0.0 0.0 -1.0
  outer loop
    vertex -78.48231932230144 -36.779680609297124 -1.9999999999999998
    vertex -78.48231932230144 -29.015109256221507 -1.9999999999999998
    vertex -76.983812984732 -25.397394932759312 -1.9999999999999998
  endloop
endfacet
facet normal 0.0 0.0 -1.0
  outer loop
    vertex -78.48231932230144 -36.779680609297124 -1.9999999999999998
    vertex -76.983812984732 -25.397394932759312 -1.9999999999999998
    vertex -76.983812984732 -40.39739493275932 -1.9999999999999998
  endloop
endfacet
facet normal 0.0 0.0 -1.0
  outer loop
    vertex -76.983812984732 -40.39739493275932 -1.9999999999999998
    vertex -76.983812984732 -25.397394932759312 -1.9999999999999998
    vertex -74.60003364576363 -22.29079321496111 -1.9999999999999998
  endloop
endfacet
facet normal 0.0 0.0 -1.0
  outer loop
    vertex -76.983812984732 -40.39739493275932 -1.9999999999999998
    vertex -74.60003364576363 -22.29079321496111 -1.9999999999999998
    vertex -74.60003364576363 -43.503996650557525 -1.9999999999999998
  endloop
endfacet
facet normal 0.0 0.0 -1.0
  outer loop
    vertex -74.60003364576363 -43.503996650557525 -1.9999999999999998
    vertex -74.60003364576363 -22.29079321496111 -1.9999999999999998
    vertex -71.4934319279654 -19.907013875992735 -1.9999999999999998
  endloop
endfacet
facet normal 0.0 0.0 -1.0
  outer loop
    vertex -74.60003364576363 -43.503996650557525 -1.9999999999999998
    vertex -71.4934319279654 -19.907013875992735 -1.9999999999999998
    vertex -71.49343192796542 -45.88777598952589 -1.9999999999999998
  endloop
endfacet
facet normal 0.0 0.0 -1.0
  outer loop
    vertex -71.49343192796542 -45.88777598952589 -1.9999999999999998
    vertex -71.4934319279654 -19.907013875992735 -1.9999999999999998
    vertex -67.87571760450324 -47.38628232709534 -1.9999999999999998
  endloop
endfacet
facet normal 0.0 0.0 -1.0
  outer loop
    vertex -67.87571760450324 -47.38628232709534 -1.9999999999999998
    vertex -71.4934319279654 -19.907013875992735 -1.9999999999999998
    vertex -69.4934319279654 -32.89739493275932 -1.9999999999999998
  endloop
endfacet
facet normal 0.0 0.0 -1.0
  outer loop
    vertex -67.87571760450324 -47.38628232709534 -1.9999999999999998
    vertex -69.4934319279654 -32.89739493275932 -1.9999999999999998
    vertex -69.3060239725553 -34.32089968082318 -1.9999999999999998
  endloop
endfacet
facet normal 0.0 0.0 -1.0
  outer loop
    vertex -67.87571760450324 -47.38628232709534 -1.9999999999999998
    vertex -69.3060239725553 -34.32089968082318 -1.9999999999999998
    vertex -68.75657164877983 -35.64739493275932 -1.9999999999999998
  endloop
endfacet
facet normal 0.0 0.0 -1.0
  outer loop
    vertex -67.87571760450324 -47.38628232709534 -1.9999999999999998
    vertex -68.75657164877983 -35.64739493275932 -1.9999999999999998
    vertex -67.88251922449142 -36.78648222928533 -1.9999999999999998
  endloop
endfacet
facet normal 0.0 0.0 -1.0
  outer loop
    vertex -67.87571760450324 -47.38628232709534 -1.9999999999999998
    vertex -67.88251922449142 -36.78648222928533 -1.9999999999999998
    vertex -66.7434319279654 -37.660534653573734 -1.9999999999999998
  endloop
endfacet
facet normal 0.0 0.0 -1.0
  outer loop
    vertex -67.87571760450324 -47.38628232709534 -1.9999999999999998
    vertex -66.7434319279654 -37.660534653573734 -1.9999999999999998
    vertex -63.99343192796541 -47.89739493275932 -1.9999999999999998
  endloop
endfacet
facet normal 0.0 0.0 -1.0
  outer loop
    vertex -63.99343192796541 -47.89739493275932 -1.9999999999999998
    vertex -66.7434319279654 -37.660534653573734 -1.9999999999999998
    vertex -65.41693667602928 -38.209986977349196 -1.9999999999999998
  endloop
endfacet
facet normal 0.0 0.0 -1.0
  outer loop
    vertex -63.99343192796541 -47.89739493275932 -1.9999999999999998
    vertex -65.41693667602928 -38.209986977349196 -1.9999999999999998
    vertex -63.99343192796541 -38.39739493275932 -1.9999999999999998
  endloop
endfacet
facet normal 0.0 0.0 -1.0
  outer loop
    vertex -63.99343192796541 -47.89739493275932 -1.9999999999999998
    vertex -63.99343192796541 -38.39739493275932 -1.9999999999999998
    vertex -62.56992717990154 -38.209986977349196 -1.9999999999999998
  endloop
endfacet
facet normal 0.0 0.0 -1.0
  outer loop
    vertex -63.99343192796541 -47.89739493275932 -1.9999999999999998
    vertex -62.56992717990154 -38.209986977349196 -1.9999999999999998
    vertex -60.1111462514276 -47.38628232709535 -1.9999999999999998
  endloop
endfacet
facet normal 0.0 0.0 -1.0
  outer loop
    vertex -60.1111462514276 -47.38628232709535 -1.9999999999999998
    vertex -62.56992717990154 -38.209986977349196 -1.9999999999999998
    vertex -61.2434319279654 -37.660534653573734 -1.9999999999999998
  endloop
endfacet
facet normal 0.0 0.0 -1.0
  outer loop
    vertex -60.1111462514276 -47.38628232709535 -1.9999999999999998
    vertex -61.2434319279654 -37.660534653573734 -1.9999999999999998
    vertex -60.104344631439396 -36.786482229285326 -1.9999999999999998
  endloop
endfacet
facet normal 0.0 0.0 -1.0
  outer loop
    vertex -60.1111462514276 -47.38628232709535 -1.9999999999999998
    vertex -60.104344631439396 -36.786482229285326 -1.9999999999999998
    vertex -56.493431927965425 -45.887775989525906 -1.9999999999999998
  endloop
endfacet
facet normal 0.0 0.0 -1.0
  outer loop
    vertex -56.493431927965425 -45.887775989525906 -1.9999999999999998
    vertex -60.104344631439396 -36.786482229285326 -1.9999999999999998
    vertex -59.23029220715099 -35.64739493275931 -1.9999999999999998
  endloop
endfacet
facet normal 0.0 0.0 -1.0
  outer loop
    vertex -56.493431927965425 -45.887775989525906 -1.9999999999999998
    vertex -59.23029220715099 -35.64739493275931 -1.9999999999999998
    vertex -58.680839883375526 -34.32089968082318 -1.9999999999999998
  endloop
endfacet
facet normal 0.0 0.0 -1.0
  outer loop
    vertex -56.493431927965425 -45.887775989525906 -1.9999999999999998
    vertex -58.680839883375526 -34.32089968082318 -1.9999999999999998
    vertex -58.49343192796541 -32.89739493275932 -1.9999999999999998
  endloop
endfacet
facet normal -0.923879532511286 0.3826834323650919 7.138157056895053e-16
  outer loop
    vertex -59.23029220715099 -35.647394932759305 -0.49999999999999994
    vertex -58.680839883375526 -34.32089968082318 -1.9999999999999998
    vertex -59.23029220715099 -35.64739493275931 -1.9999999999999998
  endloop
endfacet
facet normal -0.923879532511286 0.3826834323650919 7.138157056895053e-16
  outer loop
    vertex -58.680839883375526 -34.32089968082318 -1.9999999999999998
    vertex -59.23029220715099 -35.647394932759305 -0.49999999999999994
    vertex -58.680839883375526 -34.320899680823196 -0.49999999999999994
  endloop
endfacet
facet normal -0.9914448613738107 -0.1305261922200488 9.819926179015737e-16
  outer loop
    vertex -58.49343192796541 -32.89739493275931 -0.49999999999999994
    vertex -58.680839883375526 -31.47389018469545 -1.9999999999999998
    vertex -58.49343192796541 -32.89739493275932 -1.9999999999999998
  endloop
endfacet
facet normal -0.9914448613738107 -0.1305261922200488 9.819926179015737e-16
  outer loop
    vertex -58.680839883375526 -31.47389018469545 -1.9999999999999998
    vertex -58.49343192796541 -32.89739493275931 -0.49999999999999994
    vertex -58.680839883375526 -31.47389018469543 -0.49999999999999994
  endloop
endfacet
facet normal 0.9914448613738107 0.13052619222004957 2.434692441078296e-16
  outer loop
    vertex -69.3060239725553 -34.32089968082318 -1.9999999999999998
    vertex -69.4934319279654 -32.89739493275932 -0.49999999999999994
    vertex -69.3060239725553 -34.32089968082319 -0.49999999999999994
  endloop
endfacet
facet normal 0.9914448613738107 0.13052619222004957 2.434692441078296e-16
  outer loop
    vertex -69.4934319279654 -32.89739493275932 -0.49999999999999994
    vertex -69.3060239725553 -34.32089968082318 -1.9999999999999998
    vertex -69.4934319279654 -32.89739493275932 -1.9999999999999998
  endloop
endfacet
facet normal 0.13052619222005513 0.99144486137381 -1.864743616522944e-15
  outer loop
    vertex -65.41693667602928 -38.20998697734919 -0.49999999999999994
    vertex -63.99343192796541 -38.39739493275932 -1.9999999999999998
    vertex -65.41693667602928 -38.209986977349196 -1.9999999999999998
  endloop
endfacet
facet normal 0.13052619222005513 0.99144486137381 -1.864743616522944e-15
  outer loop
    vertex -63.99343192796541 -38.39739493275932 -1.9999999999999998
    vertex -65.41693667602928 -38.20998697734919 -0.49999999999999994
    vertex -63.99343192796541 -38.39739493275932 -0.49999999999999994
  endloop
endfacet
facet normal -0.38268343236508895 0.9238795325112871 1.7376644206914369e-15
  outer loop
    vertex -62.56992717990152 -38.20998697734919 -0.49999999999999994
    vertex -61.2434319279654 -37.660534653573734 -1.9999999999999998
    vertex -62.56992717990154 -38.209986977349196 -1.9999999999999998
  endloop
endfacet
facet normal -0.38268343236508895 0.9238795325112871 1.7376644206914369e-15
  outer loop
    vertex -61.2434319279654 -37.660534653573734 -1.9999999999999998
    vertex -62.56992717990152 -38.20998697734919 -0.49999999999999994
    vertex -61.243431927965425 -37.66053465357374 -0.49999999999999994
  endloop
endfacet
facet normal 0.9914448613738107 -0.13052619222004957 2.4346924410782955e-16
  outer loop
    vertex -69.3060239725553 -31.473890184695456 -1.9999999999999998
    vertex -69.4934319279654 -32.89739493275932 -0.49999999999999994
    vertex -69.4934319279654 -32.89739493275932 -1.9999999999999998
  endloop
endfacet
facet normal 0.9914448613738107 -0.13052619222004957 2.4346924410782955e-16
  outer loop
    vertex -69.4934319279654 -32.89739493275932 -0.49999999999999994
    vertex -69.3060239725553 -31.473890184695456 -1.9999999999999998
    vertex -69.3060239725553 -31.47389018469545 -0.49999999999999994
  endloop
endfacet
facet normal 0.38268343236508895 -0.9238795325112871 1.7376644206914369e-15
  outer loop
    vertex -65.4169366760293 -27.584802888169452 -0.49999999999999994
    vertex -66.74343192796542 -28.134255211944907 -1.9999999999999998
    vertex -65.41693667602928 -27.584802888169445 -1.9999999999999998
  endloop
endfacet
facet normal 0.38268343236508895 -0.9238795325112871 1.7376644206914369e-15
  outer loop
    vertex -66.74343192796542 -28.134255211944907 -1.9999999999999998
    vertex -65.4169366760293 -27.584802888169452 -0.49999999999999994
    vertex -66.74343192796539 -28.134255211944893 -0.49999999999999994
  endloop
endfacet
facet normal 0.608761429008717 0.7933533402912379 7.854606744093159e-16
  outer loop
    vertex -67.88251922449143 -36.786482229285326 -0.49999999999999994
    vertex -66.7434319279654 -37.660534653573734 -1.9999999999999998
    vertex -67.88251922449142 -36.78648222928533 -1.9999999999999998
  endloop
endfacet
facet normal 0.608761429008717 0.7933533402912379 7.854606744093159e-16
  outer loop
    vertex -66.7434319279654 -37.660534653573734 -1.9999999999999998
    vertex -67.88251922449143 -36.786482229285326 -0.49999999999999994
    vertex -66.7434319279654 -37.660534653573734 -0.49999999999999994
  endloop
endfacet
facet normal -0.13052619222005413 0.99144486137381 -8.827509986213294e-16
  outer loop
    vertex -63.99343192796541 -38.39739493275932 -0.49999999999999994
    vertex -62.56992717990154 -38.209986977349196 -1.9999999999999998
    vertex -63.99343192796541 -38.39739493275932 -1.9999999999999998
  endloop
endfacet
facet normal -0.13052619222005413 0.99144486137381 -8.827509986213294e-16
  outer loop
    vertex -62.56992717990154 -38.209986977349196 -1.9999999999999998
    vertex -63.99343192796541 -38.39739493275932 -0.49999999999999994
    vertex -62.56992717990152 -38.20998697734919 -0.49999999999999994
  endloop
endfacet
facet normal 0.7933533402912348 0.6087614290087211 1.824151820640703e-15
  outer loop
    vertex -68.75657164877983 -35.64739493275932 -1.9999999999999998
    vertex -67.88251922449143 -36.786482229285326 -0.49999999999999994
    vertex -67.88251922449142 -36.78648222928533 -1.9999999999999998
  endloop
endfacet
facet normal 0.7933533402912348 0.6087614290087211 1.824151820640703e-15
  outer loop
    vertex -67.88251922449143 -36.786482229285326 -0.49999999999999994
    vertex -68.75657164877983 -35.64739493275932 -1.9999999999999998
    vertex -68.75657164877983 -35.64739493275932 -0.49999999999999994
  endloop
endfacet
facet normal -0.3826834323650917 -0.923879532511286 -1.4360862980920536e-17
  outer loop
    vertex -61.24343192796541 -28.134255211944907 -0.49999999999999994
    vertex -62.56992717990155 -27.58480288816944 -1.9999999999999998
    vertex -61.24343192796541 -28.134255211944907 -1.9999999999999998
  endloop
endfacet
facet normal -0.3826834323650917 -0.923879532511286 -1.4360862980920536e-17
  outer loop
    vertex -62.56992717990155 -27.58480288816944 -1.9999999999999998
    vertex -61.24343192796541 -28.134255211944907 -0.49999999999999994
    vertex -62.56992717990155 -27.58480288816944 -0.49999999999999994
  endloop
endfacet
facet normal 0.7933533402912315 -0.6087614290087254 1.4076725584960432e-15
  outer loop
    vertex -67.88251922449142 -29.008307636233308 -1.9999999999999998
    vertex -68.75657164877983 -30.147394932759312 -0.49999999999999994
    vertex -68.75657164877983 -30.14739493275932 -1.9999999999999998
  endloop
endfacet
facet normal 0.7933533402912315 -0.6087614290087254 1.4076725584960432e-15
  outer loop
    vertex -68.75657164877983 -30.147394932759312 -0.49999999999999994
    vertex -67.88251922449142 -29.008307636233308 -1.9999999999999998
    vertex -67.88251922449145 -29.008307636233337 -0.49999999999999994
  endloop
endfacet
facet normal -0.6087614290087258 0.7933533402912314 -5.2989553308975175e-15
  outer loop
    vertex -61.243431927965425 -37.66053465357374 -0.49999999999999994
    vertex -60.104344631439396 -36.786482229285326 -1.9999999999999998
    vertex -61.2434319279654 -37.660534653573734 -1.9999999999999998
  endloop
endfacet
facet normal -0.6087614290087258 0.7933533402912314 -5.2989553308975175e-15
  outer loop
    vertex -60.104344631439396 -36.786482229285326 -1.9999999999999998
    vertex -61.243431927965425 -37.66053465357374 -0.49999999999999994
    vertex -60.10434463143939 -36.786482229285305 -0.49999999999999994
  endloop
endfacet
facet normal -0.7933533402912375 -0.6087614290087175 -1.5955852540453472e-15
  outer loop
    vertex -60.10434463143941 -29.00830763623329 -0.49999999999999994
    vertex -59.230292207151 -30.14739493275932 -1.9999999999999998
    vertex -59.23029220715098 -30.14739493275935 -0.49999999999999994
  endloop
endfacet
facet normal -0.7933533402912375 -0.6087614290087175 -1.5955852540453472e-15
  outer loop
    vertex -59.230292207151 -30.14739493275932 -1.9999999999999998
    vertex -60.10434463143941 -29.00830763623329 -0.49999999999999994
    vertex -60.104344631439396 -29.008307636233305 -1.9999999999999998
  endloop
endfacet
facet normal 0.9238795325112873 -0.38268343236508845 1.4395283398071553e-15
  outer loop
    vertex -68.75657164877983 -30.14739493275932 -1.9999999999999998
    vertex -69.3060239725553 -31.47389018469545 -0.49999999999999994
    vertex -69.3060239725553 -31.473890184695456 -1.9999999999999998
  endloop
endfacet
facet normal 0.9238795325112873 -0.38268343236508845 1.4395283398071553e-15
  outer loop
    vertex -69.3060239725553 -31.47389018469545 -0.49999999999999994
    vertex -68.75657164877983 -30.14739493275932 -1.9999999999999998
    vertex -68.75657164877983 -30.147394932759312 -0.49999999999999994
  endloop
endfacet
facet normal 0.38268343236508967 0.9238795325112868 -1.7376644206914363e-15
  outer loop
    vertex -66.7434319279654 -37.660534653573734 -0.49999999999999994
    vertex -65.41693667602928 -38.209986977349196 -1.9999999999999998
    vertex -66.7434319279654 -37.660534653573734 -1.9999999999999998
  endloop
endfacet
facet normal 0.38268343236508967 0.9238795325112868 -1.7376644206914363e-15
  outer loop
    vertex -65.41693667602928 -38.209986977349196 -1.9999999999999998
    vertex -66.7434319279654 -37.660534653573734 -0.49999999999999994
    vertex -65.41693667602928 -38.20998697734919 -0.49999999999999994
  endloop
endfacet
facet normal 0.608761429008725 -0.7933533402912317 -4.488830751261449e-15
  outer loop
    vertex -66.74343192796539 -28.134255211944893 -0.49999999999999994
    vertex -67.88251922449142 -29.008307636233308 -1.9999999999999998
    vertex -66.74343192796542 -28.134255211944907 -1.9999999999999998
  endloop
endfacet
facet normal 0.608761429008725 -0.7933533402912317 -4.488830751261449e-15
  outer loop
    vertex -67.88251922449142 -29.008307636233308 -1.9999999999999998
    vertex -66.74343192796539 -28.134255211944893 -0.49999999999999994
    vertex -67.88251922449145 -29.008307636233337 -0.49999999999999994
  endloop
endfacet
facet normal -0.7933533402912334 0.608761429008723 -2.7064381553833562e-15
  outer loop
    vertex -60.10434463143939 -36.786482229285305 -0.49999999999999994
    vertex -59.23029220715099 -35.64739493275931 -1.9999999999999998
    vertex -60.104344631439396 -36.786482229285326 -1.9999999999999998
  endloop
endfacet
facet normal -0.7933533402912334 0.608761429008723 -2.7064381553833562e-15
  outer loop
    vertex -59.23029220715099 -35.64739493275931 -1.9999999999999998
    vertex -60.10434463143939 -36.786482229285305 -0.49999999999999994
    vertex -59.23029220715099 -35.647394932759305 -0.49999999999999994
  endloop
endfacet
facet normal -0.9238795325112843 -0.38268343236509617 4.785416708840869e-15
  outer loop
    vertex -58.680839883375526 -31.47389018469543 -0.49999999999999994
    vertex -59.230292207151 -30.14739493275932 -1.9999999999999998
    vertex -58.680839883375526 -31.47389018469545 -1.9999999999999998
  endloop
endfacet
facet normal -0.9238795325112843 -0.38268343236509617 4.785416708840869e-15
  outer loop
    vertex -59.230292207151 -30.14739493275932 -1.9999999999999998
    vertex -58.680839883375526 -31.47389018469543 -0.49999999999999994
    vertex -59.23029220715098 -30.14739493275935 -0.49999999999999994
  endloop
endfacet
facet normal 0.13052619222005363 -0.9914448613738103 -1.3737473075721384e-15
  outer loop
    vertex -63.993431927965396 -27.39739493275932 -0.49999999999999994
    vertex -65.41693667602928 -27.584802888169445 -1.9999999999999998
    vertex -63.99343192796541 -27.39739493275932 -1.9999999999999998
  endloop
endfacet
facet normal 0.13052619222005363 -0.9914448613738103 -1.3737473075721384e-15
  outer loop
    vertex -65.41693667602928 -27.584802888169445 -1.9999999999999998
    vertex -63.993431927965396 -27.39739493275932 -0.49999999999999994
    vertex -65.4169366760293 -27.584802888169452 -0.49999999999999994
  endloop
endfacet
facet normal -0.13052619222005088 -0.9914448613738105 4.909963089507946e-16
  outer loop
    vertex -62.56992717990155 -27.58480288816944 -0.49999999999999994
    vertex -63.99343192796541 -27.39739493275932 -1.9999999999999998
    vertex -62.56992717990155 -27.58480288816944 -1.9999999999999998
  endloop
endfacet
facet normal -0.13052619222005088 -0.9914448613738105 4.909963089507946e-16
  outer loop
    vertex -63.99343192796541 -27.39739493275932 -1.9999999999999998
    vertex -62.56992717990155 -27.58480288816944 -0.49999999999999994
    vertex -63.993431927965396 -27.39739493275932 -0.49999999999999994
  endloop
endfacet
facet normal -0.6087614290087172 -0.7933533402912379 6.754483590839604e-16
  outer loop
    vertex -60.10434463143941 -29.00830763623329 -0.49999999999999994
    vertex -61.24343192796541 -28.134255211944907 -1.9999999999999998
    vertex -60.104344631439396 -29.008307636233305 -1.9999999999999998
  endloop
endfacet
facet normal -0.6087614290087172 -0.7933533402912379 6.754483590839604e-16
  outer loop
    vertex -61.24343192796541 -28.134255211944907 -1.9999999999999998
    vertex -60.10434463143941 -29.00830763623329 -0.49999999999999994
    vertex -61.24343192796541 -28.134255211944907 -0.49999999999999994
  endloop
endfacet
facet normal 0.9238795325112871 0.38268343236508917 7.138157056895e-16
  outer loop
    vertex -69.3060239725553 -34.32089968082318 -1.9999999999999998
    vertex -68.75657164877983 -35.64739493275932 -0.49999999999999994
    vertex -68.75657164877983 -35.64739493275932 -1.9999999999999998
  endloop
endfacet
facet normal 0.9238795325112871 0.38268343236508917 7.138157056895e-16
  outer loop
    vertex -68.75657164877983 -35.64739493275932 -0.49999999999999994
    vertex -69.3060239725553 -34.32089968082318 -1.9999999999999998
    vertex -69.3060239725553 -34.32089968082319 -0.49999999999999994
  endloop
endfacet
facet normal -0.9914448613738107 0.13052619222004908 2.4346924410782867e-16
  outer loop
    vertex -58.49343192796541 -32.89739493275931 -0.49999999999999994
    vertex -58.680839883375526 -34.32089968082318 -1.9999999999999998
    vertex -58.680839883375526 -34.320899680823196 -0.49999999999999994
  endloop
endfacet
facet normal -0.9914448613738107 0.13052619222004908 2.4346924410782867e-16
  outer loop
    vertex -58.680839883375526 -34.32089968082318 -1.9999999999999998
    vertex -58.49343192796541 -32.89739493275931 -0.49999999999999994
    vertex -58.49343192796541 -32.89739493275932 -1.9999999999999998
  endloop
endfacet
facet normal -0.43045933457688246 0.5609855267969281 0.707106781186548
  outer loop
    vertex -60.9912746878204 -38.097283805001304 0.0
    vertex -60.10434463143939 -36.786482229285305 -0.49999999999999994
    vertex -61.243431927965425 -37.66053465357374 -0.49999999999999994
  endloop
endfacet
facet normal -0.43045933457688246 0.5609855267969281 0.707106781186548
  outer loop
    vertex -60.10434463143939 -36.786482229285305 -0.49999999999999994
    vertex -60.9912746878204 -38.097283805001304 0.0
    vertex -59.7477404425757 -37.14308641814899 0.0
  endloop
endfacet
facet normal 0.560985526796927 -0.43045933457688107 0.7071067811865497
  outer loop
    vertex -68.75657164877983 -30.147394932759312 -0.49999999999999994
    vertex -68.23912341335513 -28.651703447369655 0.0
    vertex -69.19332080020737 -29.89523769261426 0.0
  endloop
endfacet
facet normal 0.560985526796927 -0.43045933457688107 0.7071067811865497
  outer loop
    vertex -68.23912341335513 -28.651703447369655 0.0
    vertex -68.75657164877983 -30.147394932759312 -0.49999999999999994
    vertex -67.88251922449145 -29.008307636233337 -0.49999999999999994
  endloop
endfacet
facet normal -0.7010573846499754 -0.09229595564125694 0.7071067811865502
  outer loop
    vertex -58.49343192796541 -32.89739493275931 -0.49999999999999994
    vertex -58.193709502291796 -31.343363992475407 0.0
    vertex -58.680839883375526 -31.47389018469543 -0.49999999999999994
  endloop
endfacet
facet normal -0.7010573846499754 -0.09229595564125694 0.7071067811865502
  outer loop
    vertex -58.193709502291796 -31.343363992475407 0.0
    vertex -58.49343192796541 -32.89739493275931 -0.49999999999999994
    vertex -57.98911744767532 -32.89739493275931 0.0
  endloop
endfacet
facet normal 0.7010573846499757 0.09229595564125806 0.7071067811865497
  outer loop
    vertex -69.79315435363903 -34.451425873043206 0.0
    vertex -69.4934319279654 -32.89739493275932 -0.49999999999999994
    vertex -69.9977464082555 -32.89739493275932 0.0
  endloop
endfacet
facet normal 0.7010573846499757 0.09229595564125806 0.7071067811865497
  outer loop
    vertex -69.4934319279654 -32.89739493275932 -0.49999999999999994
    vertex -69.79315435363903 -34.451425873043206 0.0
    vertex -69.3060239725553 -34.32089968082319 -0.49999999999999994
  endloop
endfacet
facet normal 0.09229595564125888 0.7010573846499768 0.7071067811865485
  outer loop
    vertex -63.99343192796541 -38.901709413049396 0.0
    vertex -65.41693667602928 -38.20998697734919 -0.49999999999999994
    vertex -65.54746286824935 -38.697117358432926 0.0
  endloop
endfacet
facet normal 0.09229595564125888 0.7010573846499768 0.7071067811865485
  outer loop
    vertex -65.41693667602928 -38.20998697734919 -0.49999999999999994
    vertex -63.99343192796541 -38.901709413049396 0.0
    vertex -63.99343192796541 -38.39739493275932 -0.49999999999999994
  endloop
endfacet
facet normal -0.6532814824381935 0.2705980500731026 0.7071067811865412
  outer loop
    vertex -58.79354305572345 -35.89955217290436 0.0
    vertex -58.680839883375526 -34.320899680823196 -0.49999999999999994
    vertex -59.23029220715099 -35.647394932759305 -0.49999999999999994
  endloop
endfacet
facet normal -0.6532814824381935 0.2705980500731026 0.7071067811865412
  outer loop
    vertex -58.680839883375526 -34.320899680823196 -0.49999999999999994
    vertex -58.79354305572345 -35.89955217290436 0.0
    vertex -58.193709502291796 -34.451425873043206 0.0
  endloop
endfacet
facet normal -0.2705980500730984 -0.6532814824381867 0.7071067811865491
  outer loop
    vertex -61.24343192796541 -28.134255211944907 -0.49999999999999994
    vertex -62.43940098768149 -27.097672507085708 0.0
    vertex -62.56992717990155 -27.58480288816944 -0.49999999999999994
  endloop
endfacet
facet normal -0.2705980500730984 -0.6532814824381867 0.7071067811865491
  outer loop
    vertex -62.43940098768149 -27.097672507085708 0.0
    vertex -61.24343192796541 -28.134255211944907 -0.49999999999999994
    vertex -60.991274687820365 -27.69750606051735 0.0
  endloop
endfacet
facet normal 0.43045933457687524 0.5609855267969301 0.7071067811865509
  outer loop
    vertex -66.99558916811046 -38.09728380500128 0.0
    vertex -67.88251922449143 -36.786482229285326 -0.49999999999999994
    vertex -68.2391234133551 -37.143086418149025 0.0
  endloop
endfacet
facet normal 0.43045933457687524 0.5609855267969301 0.7071067811865509
  outer loop
    vertex -67.88251922449143 -36.786482229285326 -0.49999999999999994
    vertex -66.99558916811046 -38.09728380500128 0.0
    vertex -66.7434319279654 -37.660534653573734 -0.49999999999999994
  endloop
endfacet
facet normal 0.5609855267969331 0.4304593345768801 0.7071067811865455
  outer loop
    vertex -68.2391234133551 -37.143086418149025 0.0
    vertex -68.75657164877983 -35.64739493275932 -0.49999999999999994
    vertex -69.19332080020737 -35.899552172904365 0.0
  endloop
endfacet
facet normal 0.5609855267969331 0.4304593345768801 0.7071067811865455
  outer loop
    vertex -68.75657164877983 -35.64739493275932 -0.49999999999999994
    vertex -68.2391234133551 -37.143086418149025 0.0
    vertex -67.88251922449143 -36.786482229285326 -0.49999999999999994
  endloop
endfacet
facet normal -0.09229595564125957 0.7010573846499794 0.7071067811865458
  outer loop
    vertex -62.43940098768146 -38.69711735843292 0.0
    vertex -63.99343192796541 -38.39739493275932 -0.49999999999999994
    vertex -63.99343192796541 -38.901709413049396 0.0
  endloop
endfacet
facet normal -0.09229595564125957 0.7010573846499794 0.7071067811865458
  outer loop
    vertex -63.99343192796541 -38.39739493275932 -0.49999999999999994
    vertex -62.43940098768146 -38.69711735843292 0.0
    vertex -62.56992717990152 -38.20998697734919 -0.49999999999999994
  endloop
endfacet
facet normal 0.7010573846499756 -0.09229595564125802 0.7071067811865498
  outer loop
    vertex -69.4934319279654 -32.89739493275932 -0.49999999999999994
    vertex -69.79315435363903 -31.343363992475435 0.0
    vertex -69.9977464082555 -32.89739493275932 0.0
  endloop
endfacet
facet normal 0.7010573846499756 -0.09229595564125802 0.7071067811865498
  outer loop
    vertex -69.79315435363903 -31.343363992475435 0.0
    vertex -69.4934319279654 -32.89739493275932 -0.49999999999999994
    vertex -69.3060239725553 -31.47389018469545 -0.49999999999999994
  endloop
endfacet
facet normal 0.27059805007309806 -0.6532814824381881 0.707106781186548
  outer loop
    vertex -66.74343192796539 -28.134255211944893 -0.49999999999999994
    vertex -65.54746286824935 -27.09767250708572 0.0
    vertex -66.99558916811041 -27.697506060517338 0.0
  endloop
endfacet
facet normal 0.27059805007309806 -0.6532814824381881 0.707106781186548
  outer loop
    vertex -65.54746286824935 -27.09767250708572 0.0
    vertex -66.74343192796539 -28.134255211944893 -0.49999999999999994
    vertex -65.4169366760293 -27.584802888169452 -0.49999999999999994
  endloop
endfacet
facet normal -0.27059805007309806 0.6532814824381881 0.707106781186548
  outer loop
    vertex -62.43940098768146 -38.69711735843292 0.0
    vertex -61.243431927965425 -37.66053465357374 -0.49999999999999994
    vertex -62.56992717990152 -38.20998697734919 -0.49999999999999994
  endloop
endfacet
facet normal -0.27059805007309806 0.6532814824381881 0.707106781186548
  outer loop
    vertex -61.243431927965425 -37.66053465357374 -0.49999999999999994
    vertex -62.43940098768146 -38.69711735843292 0.0
    vertex -60.9912746878204 -38.097283805001304 0.0
  endloop
endfacet
facet normal -0.5609855267969299 0.43045933457687935 0.7071067811865485
  outer loop
    vertex -59.7477404425757 -37.14308641814899 0.0
    vertex -59.23029220715099 -35.647394932759305 -0.49999999999999994
    vertex -60.10434463143939 -36.786482229285305 -0.49999999999999994
  endloop
endfacet
facet normal -0.5609855267969299 0.43045933457687935 0.7071067811865485
  outer loop
    vertex -59.23029220715099 -35.647394932759305 -0.49999999999999994
    vertex -59.7477404425757 -37.14308641814899 0.0
    vertex -58.79354305572345 -35.89955217290436 0.0
  endloop
endfacet
facet normal -0.43045933457687624 -0.5609855267969303 0.7071067811865501
  outer loop
    vertex -60.10434463143941 -29.00830763623329 -0.49999999999999994
    vertex -60.991274687820365 -27.69750606051735 0.0
    vertex -61.24343192796541 -28.134255211944907 -0.49999999999999994
  endloop
endfacet
facet normal -0.43045933457687624 -0.5609855267969303 0.7071067811865501
  outer loop
    vertex -60.991274687820365 -27.69750606051735 0.0
    vertex -60.10434463143941 -29.00830763623329 -0.49999999999999994
    vertex -59.747740442575754 -28.651703447369588 0.0
  endloop
endfacet
facet normal 0.09229595564125918 -0.7010573846499789 0.7071067811865464
  outer loop
    vertex -65.4169366760293 -27.584802888169452 -0.49999999999999994
    vertex -63.99343192796541 -26.893080452469246 0.0
    vertex -65.54746286824935 -27.09767250708572 0.0
  endloop
endfacet
facet normal 0.09229595564125918 -0.7010573846499789 0.7071067811865464
  outer loop
    vertex -63.99343192796541 -26.893080452469246 0.0
    vertex -65.4169366760293 -27.584802888169452 -0.49999999999999994
    vertex -63.993431927965396 -27.39739493275932 -0.49999999999999994
  endloop
endfacet
facet normal -0.5609855267969355 -0.43045933457688074 0.7071067811865432
  outer loop
    vertex -59.23029220715098 -30.14739493275935 -0.49999999999999994
    vertex -59.747740442575754 -28.651703447369588 0.0
    vertex -60.10434463143941 -29.00830763623329 -0.49999999999999994
  endloop
endfacet
facet normal -0.5609855267969355 -0.43045933457688074 0.7071067811865432
  outer loop
    vertex -59.747740442575754 -28.651703447369588 0.0
    vertex -59.23029220715098 -30.14739493275935 -0.49999999999999994
    vertex -58.793543055723426 -29.89523769261432 0.0
  endloop
endfacet
facet normal -0.7010573846499757 0.09229595564125735 0.7071067811865498
  outer loop
    vertex -58.193709502291796 -34.451425873043206 0.0
    vertex -58.49343192796541 -32.89739493275931 -0.49999999999999994
    vertex -58.680839883375526 -34.320899680823196 -0.49999999999999994
  endloop
endfacet
facet normal -0.7010573846499757 0.09229595564125735 0.7071067811865498
  outer loop
    vertex -58.49343192796541 -32.89739493275931 -0.49999999999999994
    vertex -58.193709502291796 -34.451425873043206 0.0
    vertex -57.98911744767532 -32.89739493275931 0.0
  endloop
endfacet
facet normal 0.43045933457688146 -0.5609855267969286 0.7071067811865481
  outer loop
    vertex -67.88251922449145 -29.008307636233337 -0.49999999999999994
    vertex -66.99558916811041 -27.697506060517338 0.0
    vertex -68.23912341335513 -28.651703447369655 0.0
  endloop
endfacet
facet normal 0.43045933457688146 -0.5609855267969286 0.7071067811865481
  outer loop
    vertex -66.99558916811041 -27.697506060517338 0.0
    vertex -67.88251922449145 -29.008307636233337 -0.49999999999999994
    vertex -66.74343192796539 -28.134255211944893 -0.49999999999999994
  endloop
endfacet
facet normal -0.6532814824381903 -0.27059805007310256 0.7071067811865441
  outer loop
    vertex -58.680839883375526 -31.47389018469543 -0.49999999999999994
    vertex -58.793543055723426 -29.89523769261432 0.0
    vertex -59.23029220715098 -30.14739493275935 -0.49999999999999994
  endloop
endfacet
facet normal -0.6532814824381903 -0.27059805007310256 0.7071067811865441
  outer loop
    vertex -58.793543055723426 -29.89523769261432 0.0
    vertex -58.680839883375526 -31.47389018469543 -0.49999999999999994
    vertex -58.193709502291796 -31.343363992475407 0.0
  endloop
endfacet
facet normal 0.2705980500730965 0.6532814824381836 0.7071067811865526
  outer loop
    vertex -65.54746286824935 -38.697117358432926 0.0
    vertex -66.7434319279654 -37.660534653573734 -0.49999999999999994
    vertex -66.99558916811046 -38.09728380500128 0.0
  endloop
endfacet
facet normal 0.2705980500730965 0.6532814824381836 0.7071067811865526
  outer loop
    vertex -66.7434319279654 -37.660534653573734 -0.49999999999999994
    vertex -65.54746286824935 -38.697117358432926 0.0
    vertex -65.41693667602928 -38.20998697734919 -0.49999999999999994
  endloop
endfacet
facet normal 0.6532814824381945 -0.27059805007309795 0.7071067811865419
  outer loop
    vertex -69.3060239725553 -31.47389018469545 -0.49999999999999994
    vertex -69.19332080020737 -29.89523769261426 0.0
    vertex -69.79315435363903 -31.343363992475435 0.0
  endloop
endfacet
facet normal 0.6532814824381945 -0.27059805007309795 0.7071067811865419
  outer loop
    vertex -69.19332080020737 -29.89523769261426 0.0
    vertex -69.3060239725553 -31.47389018469545 -0.49999999999999994
    vertex -68.75657164877983 -30.147394932759312 -0.49999999999999994
  endloop
endfacet
facet normal -0.09229595564125684 -0.7010573846499801 0.7071067811865455
  outer loop
    vertex -63.993431927965396 -27.39739493275932 -0.49999999999999994
    vertex -62.43940098768149 -27.097672507085708 0.0
    vertex -63.99343192796541 -26.893080452469246 0.0
  endloop
endfacet
facet normal -0.09229595564125684 -0.7010573846499801 0.7071067811865455
  outer loop
    vertex -62.43940098768149 -27.097672507085708 0.0
    vertex -63.993431927965396 -27.39739493275932 -0.49999999999999994
    vertex -62.56992717990155 -27.58480288816944 -0.49999999999999994
  endloop
endfacet
facet normal 0.6532814824381946 0.27059805007309967 0.7071067811865414
  outer loop
    vertex -69.19332080020737 -35.899552172904365 0.0
    vertex -69.3060239725553 -34.32089968082319 -0.49999999999999994
    vertex -69.79315435363903 -34.451425873043206 0.0
  endloop
endfacet
facet normal 0.6532814824381946 0.27059805007309967 0.7071067811865414
  outer loop
    vertex -69.3060239725553 -34.32089968082319 -0.49999999999999994
    vertex -69.19332080020737 -35.899552172904365 0.0
    vertex -68.75657164877983 -35.64739493275932 -0.49999999999999994
  endloop
endfacet
endsolid Remote Control
