solid Remote Control
facet normal -0.13052619222005202 -0.9914448613738105 -0.0
  outer loop
    vertex -116.3880223381827 -98.35781125148509 0.0
    vertex -120.27030801472053 -97.8466986458211 -2.3
    vertex -116.3880223381827 -98.35781125148509 -2.3
  endloop
endfacet
facet normal -0.13052619222005202 -0.9914448613738105 -0.0
  outer loop
    vertex -120.27030801472053 -97.8466986458211 -2.3
    vertex -116.3880223381827 -98.35781125148509 0.0
    vertex -120.27030801472053 -97.8466986458211 0.0
  endloop
endfacet
facet normal -0.6087614290087221 -0.7933533402912342 -0.0
  outer loop
    vertex -123.88802233818271 -96.34819230825167 0.0
    vertex -126.99462405598089 -93.96441296928329 -2.3
    vertex -123.88802233818271 -96.34819230825167 -2.3
  endloop
endfacet
facet normal -0.6087614290087221 -0.7933533402912342 -0.0
  outer loop
    vertex -126.99462405598089 -93.96441296928329 -2.3
    vertex -123.88802233818271 -96.34819230825167 0.0
    vertex -126.99462405598089 -93.96441296928329 0.0
  endloop
endfacet
facet normal 0.13052619222005116 -0.9914448613738106 0.0
  outer loop
    vertex -112.50573666164487 -97.84669864582112 0.0
    vertex -116.3880223381827 -98.35781125148509 -2.3
    vertex -112.50573666164487 -97.84669864582112 -2.3
  endloop
endfacet
facet normal 0.13052619222005116 -0.9914448613738106 0.0
  outer loop
    vertex -116.3880223381827 -98.35781125148509 -2.3
    vertex -112.50573666164487 -97.84669864582112 0.0
    vertex -116.3880223381827 -98.35781125148509 0.0
  endloop
endfacet
facet normal -0.3826834323650898 -0.923879532511287 -0.0
  outer loop
    vertex -120.27030801472053 -97.8466986458211 0.0
    vertex -123.88802233818271 -96.34819230825167 -2.3
    vertex -120.27030801472053 -97.8466986458211 -2.3
  endloop
endfacet
facet normal -0.3826834323650898 -0.923879532511287 -0.0
  outer loop
    vertex -123.88802233818271 -96.34819230825167 -2.3
    vertex -120.27030801472053 -97.8466986458211 0.0
    vertex -123.88802233818271 -96.34819230825167 0.0
  endloop
endfacet
facet normal 0.3826834323650891 -0.9238795325112871 0.0
  outer loop
    vertex -108.8880223381827 -96.34819230825168 0.0
    vertex -112.50573666164487 -97.84669864582112 -2.3
    vertex -108.8880223381827 -96.34819230825168 -2.3
  endloop
endfacet
facet normal 0.3826834323650891 -0.9238795325112871 0.0
  outer loop
    vertex -112.50573666164487 -97.84669864582112 -2.3
    vertex -108.8880223381827 -96.34819230825168 0.0
    vertex -112.50573666164487 -97.84669864582112 0.0
  endloop
endfacet
facet normal 0.7933533402912349 -0.608761429008721 0.0
  outer loop
    vertex -103.3976412814161 -90.8578112514851 -2.3
    vertex -105.78142062038447 -93.96441296928332 0.0
    vertex -105.78142062038447 -93.96441296928332 -2.3
  endloop
endfacet
facet normal 0.7933533402912349 -0.608761429008721 0.0
  outer loop
    vertex -105.78142062038447 -93.96441296928332 0.0
    vertex -103.3976412814161 -90.8578112514851 -2.3
    vertex -103.3976412814161 -90.8578112514851 0.0
  endloop
endfacet
facet normal 0.9238795325112863 -0.382683432365091 0.0
  outer loop
    vertex -101.89913494384668 -87.24009692802292 -2.3
    vertex -103.3976412814161 -90.8578112514851 0.0
    vertex -103.3976412814161 -90.8578112514851 -2.3
  endloop
endfacet
facet normal 0.9238795325112863 -0.382683432365091 0.0
  outer loop
    vertex -103.3976412814161 -90.8578112514851 0.0
    vertex -101.89913494384668 -87.24009692802292 -2.3
    vertex -101.89913494384668 -87.24009692802292 0.0
  endloop
endfacet
facet normal 0.6087614290087203 0.7933533402912356 0.0
  outer loop
    vertex -108.8880223381827 -70.36743019471852 0.0
    vertex -105.78142062038447 -72.75120953368688 -2.3
    vertex -108.8880223381827 -70.36743019471852 -2.3
  endloop
endfacet
facet normal 0.6087614290087203 0.7933533402912356 0.0
  outer loop
    vertex -105.78142062038447 -72.75120953368688 -2.3
    vertex -108.8880223381827 -70.36743019471852 0.0
    vertex -105.78142062038447 -72.75120953368688 0.0
  endloop
endfacet
facet normal 0.7933533402912356 0.6087614290087201 0.0
  outer loop
    vertex -105.78142062038447 -72.75120953368688 -2.3
    vertex -103.3976412814161 -75.85781125148509 0.0
    vertex -103.3976412814161 -75.85781125148509 -2.3
  endloop
endfacet
facet normal 0.7933533402912356 0.6087614290087201 0.0
  outer loop
    vertex -103.3976412814161 -75.85781125148509 0.0
    vertex -105.78142062038447 -72.75120953368688 -2.3
    vertex -105.78142062038447 -72.75120953368688 0.0
  endloop
endfacet
facet normal 0.923879532511287 0.3826834323650894 0.0
  outer loop
    vertex -103.3976412814161 -75.85781125148509 -2.3
    vertex -101.89913494384668 -79.47552557494728 0.0
    vertex -101.89913494384668 -79.47552557494728 -2.3
  endloop
endfacet
facet normal 0.923879532511287 0.3826834323650894 0.0
  outer loop
    vertex -101.89913494384668 -79.47552557494728 0.0
    vertex -103.3976412814161 -75.85781125148509 -2.3
    vertex -103.3976412814161 -75.85781125148509 0.0
  endloop
endfacet
facet normal 0.9914448613738105 -0.13052619222005132 0.0
  outer loop
    vertex -101.38802233818268 -83.3578112514851 -2.3
    vertex -101.89913494384668 -87.24009692802292 0.0
    vertex -101.89913494384668 -87.24009692802292 -2.3
  endloop
endfacet
facet normal 0.9914448613738105 -0.13052619222005132 0.0
  outer loop
    vertex -101.89913494384668 -87.24009692802292 0.0
    vertex -101.38802233818268 -83.3578112514851 -2.3
    vertex -101.38802233818268 -83.3578112514851 0.0
  endloop
endfacet
facet normal 0.6087614290087208 -0.7933533402912353 0.0
  outer loop
    vertex -105.78142062038447 -93.96441296928332 0.0
    vertex -108.8880223381827 -96.34819230825168 -2.3
    vertex -105.78142062038447 -93.96441296928332 -2.3
  endloop
endfacet
facet normal 0.6087614290087208 -0.7933533402912353 0.0
  outer loop
    vertex -108.8880223381827 -96.34819230825168 -2.3
    vertex -105.78142062038447 -93.96441296928332 0.0
    vertex -108.8880223381827 -96.34819230825168 0.0
  endloop
endfacet
facet normal 0.9914448613738104 0.13052619222005174 0.0
  outer loop
    vertex -101.89913494384668 -79.47552557494728 -2.3
    vertex -101.38802233818268 -83.3578112514851 0.0
    vertex -101.38802233818268 -83.3578112514851 -2.3
  endloop
endfacet
facet normal 0.9914448613738104 0.13052619222005174 0.0
  outer loop
    vertex -101.38802233818268 -83.3578112514851 0.0
    vertex -101.89913494384668 -79.47552557494728 -2.3
    vertex -101.89913494384668 -79.47552557494728 0.0
  endloop
endfacet
facet normal 0.0 0.0 1.0
  outer loop
    vertex -130.87690973251873 -87.2400969280229 0.0
    vertex -130.87690973251873 -79.47552557494728 0.0
    vertex -131.38802233818268 -83.35781125148509 0.0
  endloop
endfacet
facet normal 0.0 0.0 1.0
  outer loop
    vertex -130.87690973251873 -79.47552557494728 0.0
    vertex -130.87690973251873 -87.2400969280229 0.0
    vertex -129.37840339494926 -90.85781125148509 0.0
  endloop
endfacet
facet normal 0.0 0.0 1.0
  outer loop
    vertex -130.87690973251873 -79.47552557494728 0.0
    vertex -129.37840339494926 -90.85781125148509 0.0
    vertex -129.37840339494926 -75.85781125148509 0.0
  endloop
endfacet
facet normal 0.0 0.0 1.0
  outer loop
    vertex -129.37840339494926 -75.85781125148509 0.0
    vertex -129.37840339494926 -90.85781125148509 0.0
    vertex -126.99462405598089 -93.96441296928329 0.0
  endloop
endfacet
facet normal 0.0 0.0 1.0
  outer loop
    vertex -129.37840339494926 -75.85781125148509 0.0
    vertex -126.99462405598089 -93.96441296928329 0.0
    vertex -126.99462405598089 -72.75120953368688 0.0
  endloop
endfacet
facet normal 0.0 0.0 1.0
  outer loop
    vertex -126.99462405598089 -72.75120953368688 0.0
    vertex -126.99462405598089 -93.96441296928329 0.0
    vertex -123.88802233818271 -96.34819230825167 0.0
  endloop
endfacet
facet normal 0.0 0.0 1.0
  outer loop
    vertex -126.99462405598089 -72.75120953368688 0.0
    vertex -123.88802233818271 -96.34819230825167 0.0
    vertex -123.88802233818268 -70.36743019471851 0.0
  endloop
endfacet
facet normal 0.0 0.0 1.0
  outer loop
    vertex -123.88802233818268 -70.36743019471851 0.0
    vertex -123.88802233818271 -96.34819230825167 0.0
    vertex -122.39233681847276 -83.3578112514851 0.0
  endloop
endfacet
facet normal 0.0 0.0 1.0
  outer loop
    vertex -122.39233681847276 -83.3578112514851 0.0
    vertex -123.88802233818271 -96.34819230825167 0.0
    vertex -122.18774476385632 -84.91184219176897 0.0
  endloop
endfacet
facet normal 0.0 0.0 1.0
  outer loop
    vertex -122.18774476385632 -84.91184219176897 0.0
    vertex -123.88802233818271 -96.34819230825167 0.0
    vertex -120.27030801472053 -97.8466986458211 0.0
  endloop
endfacet
facet normal 0.0 0.0 1.0
  outer loop
    vertex -122.18774476385632 -84.91184219176897 0.0
    vertex -120.27030801472053 -97.8466986458211 0.0
    vertex -121.58791121042464 -86.35996849163014 0.0
  endloop
endfacet
facet normal 0.0 0.0 1.0
  outer loop
    vertex -121.58791121042464 -86.35996849163014 0.0
    vertex -120.27030801472053 -97.8466986458211 0.0
    vertex -120.63371382357238 -87.6035027368748 0.0
  endloop
endfacet
facet normal 0.0 0.0 1.0
  outer loop
    vertex -120.63371382357238 -87.6035027368748 0.0
    vertex -120.27030801472053 -97.8466986458211 0.0
    vertex -119.39017957832773 -88.55770012372706 0.0
  endloop
endfacet
facet normal 0.0 0.0 1.0
  outer loop
    vertex -119.39017957832773 -88.55770012372706 0.0
    vertex -120.27030801472053 -97.8466986458211 0.0
    vertex -116.3880223381827 -98.35781125148509 0.0
  endloop
endfacet
facet normal 0.0 0.0 1.0
  outer loop
    vertex -119.39017957832773 -88.55770012372706 0.0
    vertex -116.3880223381827 -98.35781125148509 0.0
    vertex -117.94205327846662 -89.1575336771587 0.0
  endloop
endfacet
facet normal 0.0 0.0 1.0
  outer loop
    vertex -117.94205327846662 -89.1575336771587 0.0
    vertex -116.3880223381827 -98.35781125148509 0.0
    vertex -116.3880223381827 -89.36212573177517 0.0
  endloop
endfacet
facet normal 0.0 0.0 1.0
  outer loop
    vertex -116.3880223381827 -89.36212573177517 0.0
    vertex -116.3880223381827 -98.35781125148509 0.0
    vertex -112.50573666164487 -97.84669864582112 0.0
  endloop
endfacet
facet normal 0.0 0.0 1.0
  outer loop
    vertex -116.3880223381827 -89.36212573177517 0.0
    vertex -112.50573666164487 -97.84669864582112 0.0
    vertex -114.83399139789873 -89.1575336771587 0.0
  endloop
endfacet
facet normal 0.0 0.0 1.0
  outer loop
    vertex -114.83399139789873 -89.1575336771587 0.0
    vertex -112.50573666164487 -97.84669864582112 0.0
    vertex -113.38586509803768 -88.55770012372709 0.0
  endloop
endfacet
facet normal 0.0 0.0 1.0
  outer loop
    vertex -113.38586509803768 -88.55770012372709 0.0
    vertex -112.50573666164487 -97.84669864582112 0.0
    vertex -112.14233085279298 -87.60350273687476 0.0
  endloop
endfacet
facet normal 0.0 0.0 1.0
  outer loop
    vertex -112.14233085279298 -87.60350273687476 0.0
    vertex -112.50573666164487 -97.84669864582112 0.0
    vertex -108.8880223381827 -96.34819230825168 0.0
  endloop
endfacet
facet normal 0.0 0.0 1.0
  outer loop
    vertex -112.14233085279298 -87.60350273687476 0.0
    vertex -108.8880223381827 -96.34819230825168 0.0
    vertex -111.18813346594071 -86.35996849163013 0.0
  endloop
endfacet
facet normal 0.0 0.0 1.0
  outer loop
    vertex -111.18813346594071 -86.35996849163013 0.0
    vertex -108.8880223381827 -96.34819230825168 0.0
    vertex -110.58829991250909 -84.91184219176898 0.0
  endloop
endfacet
facet normal 0.0 0.0 1.0
  outer loop
    vertex -110.58829991250909 -84.91184219176898 0.0
    vertex -108.8880223381827 -96.34819230825168 0.0
    vertex -110.38370785789259 -83.35781125148509 0.0
  endloop
endfacet
facet normal 0.0 0.0 1.0
  outer loop
    vertex -123.88802233818268 -70.36743019471851 0.0
    vertex -122.18774476385632 -81.80378031120121 0.0
    vertex -120.27030801472048 -68.86892385714907 0.0
  endloop
endfacet
facet normal 0.0 0.0 1.0
  outer loop
    vertex -122.18774476385632 -81.80378031120121 0.0
    vertex -123.88802233818268 -70.36743019471851 0.0
    vertex -122.39233681847276 -83.3578112514851 0.0
  endloop
endfacet
facet normal 0.0 0.0 1.0
  outer loop
    vertex -120.27030801472048 -68.86892385714907 0.0
    vertex -122.18774476385632 -81.80378031120121 0.0
    vertex -121.58791121042464 -80.35565401134004 0.0
  endloop
endfacet
facet normal 0.0 0.0 1.0
  outer loop
    vertex -120.27030801472048 -68.86892385714907 0.0
    vertex -121.58791121042464 -80.35565401134004 0.0
    vertex -120.63371382357239 -79.11211976609542 0.0
  endloop
endfacet
facet normal 0.0 0.0 1.0
  outer loop
    vertex -120.27030801472048 -68.86892385714907 0.0
    vertex -120.63371382357239 -79.11211976609542 0.0
    vertex -119.3901795783277 -78.15792237924312 0.0
  endloop
endfacet
facet normal 0.0 0.0 1.0
  outer loop
    vertex -120.27030801472048 -68.86892385714907 0.0
    vertex -119.3901795783277 -78.15792237924312 0.0
    vertex -116.3880223381827 -68.35781125148509 0.0
  endloop
endfacet
facet normal 0.0 0.0 1.0
  outer loop
    vertex -116.3880223381827 -68.35781125148509 0.0
    vertex -119.3901795783277 -78.15792237924312 0.0
    vertex -117.94205327846664 -77.5580888258115 0.0
  endloop
endfacet
facet normal 0.0 0.0 1.0
  outer loop
    vertex -116.3880223381827 -68.35781125148509 0.0
    vertex -117.94205327846664 -77.5580888258115 0.0
    vertex -116.3880223381827 -77.35349677119501 0.0
  endloop
endfacet
facet normal 0.0 0.0 1.0
  outer loop
    vertex -116.3880223381827 -68.35781125148509 0.0
    vertex -116.3880223381827 -77.35349677119501 0.0
    vertex -114.83399139789879 -77.55808882581148 0.0
  endloop
endfacet
facet normal 0.0 0.0 1.0
  outer loop
    vertex -116.3880223381827 -68.35781125148509 0.0
    vertex -114.83399139789879 -77.55808882581148 0.0
    vertex -112.50573666164487 -68.86892385714907 0.0
  endloop
endfacet
facet normal 0.0 0.0 1.0
  outer loop
    vertex -112.50573666164487 -68.86892385714907 0.0
    vertex -114.83399139789879 -77.55808882581148 0.0
    vertex -113.38586509803764 -78.15792237924313 0.0
  endloop
endfacet
facet normal 0.0 0.0 1.0
  outer loop
    vertex -112.50573666164487 -68.86892385714907 0.0
    vertex -113.38586509803764 -78.15792237924313 0.0
    vertex -112.14233085279305 -79.11211976609536 0.0
  endloop
endfacet
facet normal 0.0 0.0 1.0
  outer loop
    vertex -112.50573666164487 -68.86892385714907 0.0
    vertex -112.14233085279305 -79.11211976609536 0.0
    vertex -108.8880223381827 -70.36743019471852 0.0
  endloop
endfacet
facet normal 0.0 0.0 1.0
  outer loop
    vertex -108.8880223381827 -70.36743019471852 0.0
    vertex -112.14233085279305 -79.11211976609536 0.0
    vertex -111.18813346594071 -80.35565401134009 0.0
  endloop
endfacet
facet normal 0.0 0.0 1.0
  outer loop
    vertex -108.8880223381827 -70.36743019471852 0.0
    vertex -111.18813346594071 -80.35565401134009 0.0
    vertex -110.58829991250909 -81.80378031120118 0.0
  endloop
endfacet
facet normal 0.0 0.0 1.0
  outer loop
    vertex -108.8880223381827 -70.36743019471852 0.0
    vertex -110.58829991250909 -81.80378031120118 0.0
    vertex -110.38370785789259 -83.35781125148509 0.0
  endloop
endfacet
facet normal 0.0 0.0 1.0
  outer loop
    vertex -108.8880223381827 -70.36743019471852 0.0
    vertex -110.38370785789259 -83.35781125148509 0.0
    vertex -108.8880223381827 -96.34819230825168 0.0
  endloop
endfacet
facet normal 0.0 0.0 1.0
  outer loop
    vertex -108.8880223381827 -70.36743019471852 0.0
    vertex -108.8880223381827 -96.34819230825168 0.0
    vertex -105.78142062038447 -93.96441296928332 0.0
  endloop
endfacet
facet normal 0.0 0.0 1.0
  outer loop
    vertex -108.8880223381827 -70.36743019471852 0.0
    vertex -105.78142062038447 -93.96441296928332 0.0
    vertex -105.78142062038447 -72.75120953368688 0.0
  endloop
endfacet
facet normal 0.0 0.0 1.0
  outer loop
    vertex -105.78142062038447 -72.75120953368688 0.0
    vertex -105.78142062038447 -93.96441296928332 0.0
    vertex -103.3976412814161 -90.8578112514851 0.0
  endloop
endfacet
facet normal 0.0 0.0 1.0
  outer loop
    vertex -105.78142062038447 -72.75120953368688 0.0
    vertex -103.3976412814161 -90.8578112514851 0.0
    vertex -103.3976412814161 -75.85781125148509 0.0
  endloop
endfacet
facet normal 0.0 0.0 1.0
  outer loop
    vertex -103.3976412814161 -75.85781125148509 0.0
    vertex -103.3976412814161 -90.8578112514851 0.0
    vertex -101.89913494384668 -87.24009692802292 0.0
  endloop
endfacet
facet normal 0.0 0.0 1.0
  outer loop
    vertex -103.3976412814161 -75.85781125148509 0.0
    vertex -101.89913494384668 -87.24009692802292 0.0
    vertex -101.89913494384668 -79.47552557494728 0.0
  endloop
endfacet
facet normal 0.0 0.0 1.0
  outer loop
    vertex -101.89913494384668 -79.47552557494728 0.0
    vertex -101.89913494384668 -87.24009692802292 0.0
    vertex -101.38802233818268 -83.3578112514851 0.0
  endloop
endfacet
facet normal -0.6087614290087201 0.7933533402912357 0.0
  outer loop
    vertex -126.99462405598089 -72.75120953368688 0.0
    vertex -123.88802233818268 -70.36743019471851 -2.3
    vertex -126.99462405598089 -72.75120953368688 -2.3
  endloop
endfacet
facet normal -0.6087614290087201 0.7933533402912357 0.0
  outer loop
    vertex -123.88802233818268 -70.36743019471851 -2.3
    vertex -126.99462405598089 -72.75120953368688 0.0
    vertex -123.88802233818268 -70.36743019471851 0.0
  endloop
endfacet
facet normal -0.3826834323650892 0.923879532511287 0.0
  outer loop
    vertex -123.88802233818268 -70.36743019471851 0.0
    vertex -120.27030801472048 -68.86892385714907 -2.3
    vertex -123.88802233818268 -70.36743019471851 -2.3
  endloop
endfacet
facet normal -0.3826834323650892 0.923879532511287 0.0
  outer loop
    vertex -120.27030801472048 -68.86892385714907 -2.3
    vertex -123.88802233818268 -70.36743019471851 0.0
    vertex -120.27030801472048 -68.86892385714907 0.0
  endloop
endfacet
facet normal -0.793353340291235 -0.6087614290087207 -0.0
  outer loop
    vertex -129.37840339494926 -90.85781125148509 0.0
    vertex -126.99462405598089 -93.96441296928329 -2.3
    vertex -126.99462405598089 -93.96441296928329 0.0
  endloop
endfacet
facet normal -0.793353340291235 -0.6087614290087207 -0.0
  outer loop
    vertex -126.99462405598089 -93.96441296928329 -2.3
    vertex -129.37840339494926 -90.85781125148509 0.0
    vertex -129.37840339494926 -90.85781125148509 -2.3
  endloop
endfacet
facet normal -0.9238795325112871 0.38268343236508917 0.0
  outer loop
    vertex -129.37840339494926 -75.85781125148509 0.0
    vertex -130.87690973251873 -79.47552557494728 -2.3
    vertex -130.87690973251873 -79.47552557494728 0.0
  endloop
endfacet
facet normal -0.9238795325112871 0.38268343236508917 0.0
  outer loop
    vertex -130.87690973251873 -79.47552557494728 -2.3
    vertex -129.37840339494926 -75.85781125148509 0.0
    vertex -129.37840339494926 -75.85781125148509 -2.3
  endloop
endfacet
facet normal 0.13052619222005168 0.9914448613738104 0.0
  outer loop
    vertex -116.3880223381827 -68.35781125148509 0.0
    vertex -112.50573666164487 -68.86892385714907 -2.3
    vertex -116.3880223381827 -68.35781125148509 -2.3
  endloop
endfacet
facet normal 0.13052619222005168 0.9914448613738104 0.0
  outer loop
    vertex -112.50573666164487 -68.86892385714907 -2.3
    vertex -116.3880223381827 -68.35781125148509 0.0
    vertex -112.50573666164487 -68.86892385714907 0.0
  endloop
endfacet
facet normal -0.7933533402912349 0.608761429008721 0.0
  outer loop
    vertex -126.99462405598089 -72.75120953368688 0.0
    vertex -129.37840339494926 -75.85781125148509 -2.3
    vertex -129.37840339494926 -75.85781125148509 0.0
  endloop
endfacet
facet normal -0.7933533402912349 0.608761429008721 0.0
  outer loop
    vertex -129.37840339494926 -75.85781125148509 -2.3
    vertex -126.99462405598089 -72.75120953368688 0.0
    vertex -126.99462405598089 -72.75120953368688 -2.3
  endloop
endfacet
facet normal -0.9238795325112871 -0.38268343236508917 -0.0
  outer loop
    vertex -130.87690973251873 -87.2400969280229 0.0
    vertex -129.37840339494926 -90.85781125148509 -2.3
    vertex -129.37840339494926 -90.85781125148509 0.0
  endloop
endfacet
facet normal -0.9238795325112871 -0.38268343236508917 -0.0
  outer loop
    vertex -129.37840339494926 -90.85781125148509 -2.3
    vertex -130.87690973251873 -87.2400969280229 0.0
    vertex -130.87690973251873 -87.2400969280229 -2.3
  endloop
endfacet
facet normal -0.9914448613738103 -0.1305261922200533 -0.0
  outer loop
    vertex -131.38802233818268 -83.35781125148509 0.0
    vertex -130.87690973251873 -87.2400969280229 -2.3
    vertex -130.87690973251873 -87.2400969280229 0.0
  endloop
endfacet
facet normal -0.9914448613738103 -0.1305261922200533 -0.0
  outer loop
    vertex -130.87690973251873 -87.2400969280229 -2.3
    vertex -131.38802233818268 -83.35781125148509 0.0
    vertex -131.38802233818268 -83.35781125148509 -2.3
  endloop
endfacet
facet normal 0.3826834323650899 0.9238795325112868 0.0
  outer loop
    vertex -112.50573666164487 -68.86892385714907 0.0
    vertex -108.8880223381827 -70.36743019471852 -2.3
    vertex -112.50573666164487 -68.86892385714907 -2.3
  endloop
endfacet
facet normal 0.3826834323650899 0.9238795325112868 0.0
  outer loop
    vertex -108.8880223381827 -70.36743019471852 -2.3
    vertex -112.50573666164487 -68.86892385714907 0.0
    vertex -108.8880223381827 -70.36743019471852 0.0
  endloop
endfacet
facet normal -0.13052619222005188 0.9914448613738104 0.0
  outer loop
    vertex -120.27030801472048 -68.86892385714907 0.0
    vertex -116.3880223381827 -68.35781125148509 -2.3
    vertex -120.27030801472048 -68.86892385714907 -2.3
  endloop
endfacet
facet normal -0.13052619222005188 0.9914448613738104 0.0
  outer loop
    vertex -116.3880223381827 -68.35781125148509 -2.3
    vertex -120.27030801472048 -68.86892385714907 0.0
    vertex -116.3880223381827 -68.35781125148509 0.0
  endloop
endfacet
facet normal -0.9914448613738103 0.1305261922200531 0.0
  outer loop
    vertex -130.87690973251873 -79.47552557494728 0.0
    vertex -131.38802233818268 -83.35781125148509 -2.3
    vertex -131.38802233818268 -83.35781125148509 0.0
  endloop
endfacet
facet normal -0.9914448613738103 0.1305261922200531 0.0
  outer loop
    vertex -131.38802233818268 -83.35781125148509 -2.3
    vertex -130.87690973251873 -79.47552557494728 0.0
    vertex -130.87690973251873 -79.47552557494728 -2.3
  endloop
endfacet
facet normal 0.0 0.0 -1.0
  outer loop
    vertex -120.27030801472048 -68.86892385714907 -2.3
    vertex -121.8880223381827 -83.3578112514851 -2.3
    vertex -123.88802233818268 -70.36743019471851 -2.3
  endloop
endfacet
facet normal 0.0 0.0 -1.0
  outer loop
    vertex -121.8880223381827 -83.3578112514851 -2.3
    vertex -120.27030801472048 -68.86892385714907 -2.3
    vertex -121.70061438277257 -81.93430650342123 -2.3
  endloop
endfacet
facet normal 0.0 0.0 -1.0
  outer loop
    vertex -121.70061438277257 -81.93430650342123 -2.3
    vertex -120.27030801472048 -68.86892385714907 -2.3
    vertex -121.1511620589971 -80.60781125148509 -2.3
  endloop
endfacet
facet normal 0.0 0.0 -1.0
  outer loop
    vertex -121.1511620589971 -80.60781125148509 -2.3
    vertex -120.27030801472048 -68.86892385714907 -2.3
    vertex -120.2771096347087 -79.46872395495907 -2.3
  endloop
endfacet
facet normal 0.0 0.0 -1.0
  outer loop
    vertex -120.2771096347087 -79.46872395495907 -2.3
    vertex -120.27030801472048 -68.86892385714907 -2.3
    vertex -119.13802233818271 -78.59467153067068 -2.3
  endloop
endfacet
facet normal 0.0 0.0 -1.0
  outer loop
    vertex -119.13802233818271 -78.59467153067068 -2.3
    vertex -120.27030801472048 -68.86892385714907 -2.3
    vertex -116.3880223381827 -68.35781125148509 -2.3
  endloop
endfacet
facet normal 0.0 0.0 -1.0
  outer loop
    vertex -119.13802233818271 -78.59467153067068 -2.3
    vertex -116.3880223381827 -68.35781125148509 -2.3
    vertex -117.81152708624654 -78.04521920689523 -2.3
  endloop
endfacet
facet normal 0.0 0.0 -1.0
  outer loop
    vertex -117.81152708624654 -78.04521920689523 -2.3
    vertex -116.3880223381827 -68.35781125148509 -2.3
    vertex -116.3880223381827 -77.85781125148509 -2.3
  endloop
endfacet
facet normal 0.0 0.0 -1.0
  outer loop
    vertex -116.3880223381827 -77.85781125148509 -2.3
    vertex -116.3880223381827 -68.35781125148509 -2.3
    vertex -112.50573666164487 -68.86892385714907 -2.3
  endloop
endfacet
facet normal 0.0 0.0 -1.0
  outer loop
    vertex -116.3880223381827 -77.85781125148509 -2.3
    vertex -112.50573666164487 -68.86892385714907 -2.3
    vertex -114.96451759011883 -78.04521920689521 -2.3
  endloop
endfacet
facet normal 0.0 0.0 -1.0
  outer loop
    vertex -114.96451759011883 -78.04521920689521 -2.3
    vertex -112.50573666164487 -68.86892385714907 -2.3
    vertex -113.6380223381827 -78.59467153067068 -2.3
  endloop
endfacet
facet normal 0.0 0.0 -1.0
  outer loop
    vertex -113.6380223381827 -78.59467153067068 -2.3
    vertex -112.50573666164487 -68.86892385714907 -2.3
    vertex -112.49893504165668 -79.46872395495907 -2.3
  endloop
endfacet
facet normal 0.0 0.0 -1.0
  outer loop
    vertex -112.49893504165668 -79.46872395495907 -2.3
    vertex -112.50573666164487 -68.86892385714907 -2.3
    vertex -108.8880223381827 -70.36743019471852 -2.3
  endloop
endfacet
facet normal 0.0 0.0 -1.0
  outer loop
    vertex -112.49893504165668 -79.46872395495907 -2.3
    vertex -108.8880223381827 -70.36743019471852 -2.3
    vertex -111.62488261736829 -80.60781125148509 -2.3
  endloop
endfacet
facet normal 0.0 0.0 -1.0
  outer loop
    vertex -111.62488261736829 -80.60781125148509 -2.3
    vertex -108.8880223381827 -70.36743019471852 -2.3
    vertex -111.0754302935928 -81.93430650342123 -2.3
  endloop
endfacet
facet normal 0.0 0.0 -1.0
  outer loop
    vertex -111.0754302935928 -81.93430650342123 -2.3
    vertex -108.8880223381827 -70.36743019471852 -2.3
    vertex -110.88802233818268 -83.3578112514851 -2.3
  endloop
endfacet
facet normal 0.0 0.0 -1.0
  outer loop
    vertex -110.88802233818268 -83.3578112514851 -2.3
    vertex -108.8880223381827 -70.36743019471852 -2.3
    vertex -108.8880223381827 -96.34819230825168 -2.3
  endloop
endfacet
facet normal 0.0 0.0 -1.0
  outer loop
    vertex -108.8880223381827 -96.34819230825168 -2.3
    vertex -108.8880223381827 -70.36743019471852 -2.3
    vertex -105.78142062038447 -93.96441296928332 -2.3
  endloop
endfacet
facet normal 0.0 0.0 -1.0
  outer loop
    vertex -105.78142062038447 -93.96441296928332 -2.3
    vertex -108.8880223381827 -70.36743019471852 -2.3
    vertex -105.78142062038447 -72.75120953368688 -2.3
  endloop
endfacet
facet normal 0.0 0.0 -1.0
  outer loop
    vertex -105.78142062038447 -93.96441296928332 -2.3
    vertex -105.78142062038447 -72.75120953368688 -2.3
    vertex -103.3976412814161 -75.85781125148509 -2.3
  endloop
endfacet
facet normal 0.0 0.0 -1.0
  outer loop
    vertex -105.78142062038447 -93.96441296928332 -2.3
    vertex -103.3976412814161 -75.85781125148509 -2.3
    vertex -103.3976412814161 -90.8578112514851 -2.3
  endloop
endfacet
facet normal 0.0 0.0 -1.0
  outer loop
    vertex -103.3976412814161 -90.8578112514851 -2.3
    vertex -103.3976412814161 -75.85781125148509 -2.3
    vertex -101.89913494384668 -87.24009692802292 -2.3
  endloop
endfacet
facet normal 0.0 0.0 -1.0
  outer loop
    vertex -101.89913494384668 -87.24009692802292 -2.3
    vertex -103.3976412814161 -75.85781125148509 -2.3
    vertex -101.89913494384668 -79.47552557494728 -2.3
  endloop
endfacet
facet normal 0.0 0.0 -1.0
  outer loop
    vertex -101.89913494384668 -87.24009692802292 -2.3
    vertex -101.89913494384668 -79.47552557494728 -2.3
    vertex -101.38802233818268 -83.3578112514851 -2.3
  endloop
endfacet
facet normal 0.0 0.0 -1.0
  outer loop
    vertex -130.87690973251873 -79.47552557494728 -2.3
    vertex -130.87690973251873 -87.2400969280229 -2.3
    vertex -131.38802233818268 -83.35781125148509 -2.3
  endloop
endfacet
facet normal 0.0 0.0 -1.0
  outer loop
    vertex -130.87690973251873 -87.2400969280229 -2.3
    vertex -130.87690973251873 -79.47552557494728 -2.3
    vertex -129.37840339494926 -75.85781125148509 -2.3
  endloop
endfacet
facet normal 0.0 0.0 -1.0
  outer loop
    vertex -130.87690973251873 -87.2400969280229 -2.3
    vertex -129.37840339494926 -75.85781125148509 -2.3
    vertex -129.37840339494926 -90.85781125148509 -2.3
  endloop
endfacet
facet normal 0.0 0.0 -1.0
  outer loop
    vertex -129.37840339494926 -90.85781125148509 -2.3
    vertex -129.37840339494926 -75.85781125148509 -2.3
    vertex -126.99462405598089 -72.75120953368688 -2.3
  endloop
endfacet
facet normal 0.0 0.0 -1.0
  outer loop
    vertex -129.37840339494926 -90.85781125148509 -2.3
    vertex -126.99462405598089 -72.75120953368688 -2.3
    vertex -126.99462405598089 -93.96441296928329 -2.3
  endloop
endfacet
facet normal 0.0 0.0 -1.0
  outer loop
    vertex -126.99462405598089 -93.96441296928329 -2.3
    vertex -126.99462405598089 -72.75120953368688 -2.3
    vertex -123.88802233818268 -70.36743019471851 -2.3
  endloop
endfacet
facet normal 0.0 0.0 -1.0
  outer loop
    vertex -126.99462405598089 -93.96441296928329 -2.3
    vertex -123.88802233818268 -70.36743019471851 -2.3
    vertex -123.88802233818271 -96.34819230825167 -2.3
  endloop
endfacet
facet normal 0.0 0.0 -1.0
  outer loop
    vertex -123.88802233818271 -96.34819230825167 -2.3
    vertex -123.88802233818268 -70.36743019471851 -2.3
    vertex -120.27030801472053 -97.8466986458211 -2.3
  endloop
endfacet
facet normal 0.0 0.0 -1.0
  outer loop
    vertex -120.27030801472053 -97.8466986458211 -2.3
    vertex -123.88802233818268 -70.36743019471851 -2.3
    vertex -121.8880223381827 -83.3578112514851 -2.3
  endloop
endfacet
facet normal 0.0 0.0 -1.0
  outer loop
    vertex -120.27030801472053 -97.8466986458211 -2.3
    vertex -121.8880223381827 -83.3578112514851 -2.3
    vertex -121.70061438277257 -84.78131599954895 -2.3
  endloop
endfacet
facet normal 0.0 0.0 -1.0
  outer loop
    vertex -120.27030801472053 -97.8466986458211 -2.3
    vertex -121.70061438277257 -84.78131599954895 -2.3
    vertex -121.1511620589971 -86.10781125148509 -2.3
  endloop
endfacet
facet normal 0.0 0.0 -1.0
  outer loop
    vertex -120.27030801472053 -97.8466986458211 -2.3
    vertex -121.1511620589971 -86.10781125148509 -2.3
    vertex -120.2771096347087 -87.2468985480111 -2.3
  endloop
endfacet
facet normal 0.0 0.0 -1.0
  outer loop
    vertex -120.27030801472053 -97.8466986458211 -2.3
    vertex -120.2771096347087 -87.2468985480111 -2.3
    vertex -119.13802233818268 -88.12095097229951 -2.3
  endloop
endfacet
facet normal 0.0 0.0 -1.0
  outer loop
    vertex -120.27030801472053 -97.8466986458211 -2.3
    vertex -119.13802233818268 -88.12095097229951 -2.3
    vertex -116.3880223381827 -98.35781125148509 -2.3
  endloop
endfacet
facet normal 0.0 0.0 -1.0
  outer loop
    vertex -116.3880223381827 -98.35781125148509 -2.3
    vertex -119.13802233818268 -88.12095097229951 -2.3
    vertex -117.81152708624654 -88.67040329607497 -2.3
  endloop
endfacet
facet normal 0.0 0.0 -1.0
  outer loop
    vertex -116.3880223381827 -98.35781125148509 -2.3
    vertex -117.81152708624654 -88.67040329607497 -2.3
    vertex -116.3880223381827 -88.85781125148509 -2.3
  endloop
endfacet
facet normal 0.0 0.0 -1.0
  outer loop
    vertex -116.3880223381827 -98.35781125148509 -2.3
    vertex -116.3880223381827 -88.85781125148509 -2.3
    vertex -114.9645175901188 -88.67040329607497 -2.3
  endloop
endfacet
facet normal 0.0 0.0 -1.0
  outer loop
    vertex -116.3880223381827 -98.35781125148509 -2.3
    vertex -114.9645175901188 -88.67040329607497 -2.3
    vertex -112.50573666164487 -97.84669864582112 -2.3
  endloop
endfacet
facet normal 0.0 0.0 -1.0
  outer loop
    vertex -112.50573666164487 -97.84669864582112 -2.3
    vertex -114.9645175901188 -88.67040329607497 -2.3
    vertex -113.6380223381827 -88.12095097229951 -2.3
  endloop
endfacet
facet normal 0.0 0.0 -1.0
  outer loop
    vertex -112.50573666164487 -97.84669864582112 -2.3
    vertex -113.6380223381827 -88.12095097229951 -2.3
    vertex -112.49893504165668 -87.2468985480111 -2.3
  endloop
endfacet
facet normal 0.0 0.0 -1.0
  outer loop
    vertex -112.50573666164487 -97.84669864582112 -2.3
    vertex -112.49893504165668 -87.2468985480111 -2.3
    vertex -108.8880223381827 -96.34819230825168 -2.3
  endloop
endfacet
facet normal 0.0 0.0 -1.0
  outer loop
    vertex -108.8880223381827 -96.34819230825168 -2.3
    vertex -112.49893504165668 -87.2468985480111 -2.3
    vertex -111.62488261736827 -86.10781125148509 -2.3
  endloop
endfacet
facet normal 0.0 0.0 -1.0
  outer loop
    vertex -108.8880223381827 -96.34819230825168 -2.3
    vertex -111.62488261736827 -86.10781125148509 -2.3
    vertex -111.0754302935928 -84.78131599954895 -2.3
  endloop
endfacet
facet normal 0.0 0.0 -1.0
  outer loop
    vertex -108.8880223381827 -96.34819230825168 -2.3
    vertex -111.0754302935928 -84.78131599954895 -2.3
    vertex -110.88802233818268 -83.3578112514851 -2.3
  endloop
endfacet
facet normal -0.9914448613738109 -0.13052619222004883 8.115641470260943e-16
  outer loop
    vertex -110.88802233818268 -83.35781125148509 -0.49999999999999994
    vertex -111.0754302935928 -81.93430650342123 -2.3
    vertex -110.88802233818268 -83.3578112514851 -2.3
  endloop
endfacet
facet normal -0.9914448613738109 -0.13052619222004883 8.115641470260943e-16
  outer loop
    vertex -111.0754302935928 -81.93430650342123 -2.3
    vertex -110.88802233818268 -83.35781125148509 -0.49999999999999994
    vertex -111.0754302935928 -81.93430650342121 -0.49999999999999994
  endloop
endfacet
facet normal -0.6087614290087172 -0.7933533402912377 5.647051124299811e-16
  outer loop
    vertex -112.4989350416567 -79.46872395495906 -0.49999999999999994
    vertex -113.6380223381827 -78.59467153067068 -2.3
    vertex -112.49893504165668 -79.46872395495907 -2.3
  endloop
endfacet
facet normal -0.6087614290087172 -0.7933533402912377 5.647051124299811e-16
  outer loop
    vertex -113.6380223381827 -78.59467153067068 -2.3
    vertex -112.4989350416567 -79.46872395495906 -0.49999999999999994
    vertex -113.6380223381827 -78.59467153067068 -0.49999999999999994
  endloop
endfacet
facet normal -0.7933533402912377 -0.6087614290087177 -1.3278228985111073e-15
  outer loop
    vertex -112.4989350416567 -79.46872395495906 -0.49999999999999994
    vertex -111.62488261736829 -80.60781125148509 -2.3
    vertex -111.62488261736824 -80.60781125148513 -0.49999999999999994
  endloop
endfacet
facet normal -0.7933533402912377 -0.6087614290087177 -1.3278228985111073e-15
  outer loop
    vertex -111.62488261736829 -80.60781125148509 -2.3
    vertex -112.4989350416567 -79.46872395495906 -0.49999999999999994
    vertex -112.49893504165668 -79.46872395495907 -2.3
  endloop
endfacet
facet normal -0.9238795325112843 -0.38268343236509617 3.983173702496924e-15
  outer loop
    vertex -111.0754302935928 -81.93430650342121 -0.49999999999999994
    vertex -111.62488261736829 -80.60781125148509 -2.3
    vertex -111.0754302935928 -81.93430650342123 -2.3
  endloop
endfacet
facet normal -0.9238795325112843 -0.38268343236509617 3.983173702496924e-15
  outer loop
    vertex -111.62488261736829 -80.60781125148509 -2.3
    vertex -111.0754302935928 -81.93430650342121 -0.49999999999999994
    vertex -111.62488261736824 -80.60781125148513 -0.49999999999999994
  endloop
endfacet
facet normal 0.38268343236508895 -0.9238795325112871 1.4460591196066253e-15
  outer loop
    vertex -117.81152708624658 -78.04521920689523 -0.49999999999999994
    vertex -119.13802233818271 -78.59467153067068 -2.3
    vertex -117.81152708624654 -78.04521920689523 -2.3
  endloop
endfacet
facet normal 0.38268343236508895 -0.9238795325112871 1.4460591196066253e-15
  outer loop
    vertex -119.13802233818271 -78.59467153067068 -2.3
    vertex -117.81152708624658 -78.04521920689523 -0.49999999999999994
    vertex -119.13802233818267 -78.59467153067067 -0.49999999999999994
  endloop
endfacet
facet normal 0.13052619222005363 -0.9914448613738103 -1.1460305091076154e-15
  outer loop
    vertex -116.38802233818268 -77.85781125148509 -0.49999999999999994
    vertex -117.81152708624654 -78.04521920689523 -2.3
    vertex -116.3880223381827 -77.85781125148509 -2.3
  endloop
endfacet
facet normal 0.13052619222005363 -0.9914448613738103 -1.1460305091076154e-15
  outer loop
    vertex -117.81152708624654 -78.04521920689523 -2.3
    vertex -116.38802233818268 -77.85781125148509 -0.49999999999999994
    vertex -117.81152708624658 -78.04521920689523 -0.49999999999999994
  endloop
endfacet
facet normal -0.13052619222005085 -0.9914448613738105 4.0578207351305323e-16
  outer loop
    vertex -114.96451759011883 -78.04521920689521 -0.49999999999999994
    vertex -116.3880223381827 -77.85781125148509 -2.3
    vertex -114.96451759011883 -78.04521920689521 -2.3
  endloop
endfacet
facet normal -0.13052619222005085 -0.9914448613738105 4.0578207351305323e-16
  outer loop
    vertex -116.3880223381827 -77.85781125148509 -2.3
    vertex -114.96451759011883 -78.04521920689521 -0.49999999999999994
    vertex -116.38802233818268 -77.85781125148509 -0.49999999999999994
  endloop
endfacet
facet normal -0.3826834323650918 -0.923879532511286 -2.834446352872089e-31
  outer loop
    vertex -113.6380223381827 -78.59467153067068 -0.49999999999999994
    vertex -114.96451759011883 -78.04521920689521 -2.3
    vertex -113.6380223381827 -78.59467153067068 -2.3
  endloop
endfacet
facet normal -0.3826834323650918 -0.923879532511286 -2.834446352872089e-31
  outer loop
    vertex -114.96451759011883 -78.04521920689521 -2.3
    vertex -113.6380223381827 -78.59467153067068 -0.49999999999999994
    vertex -114.96451759011883 -78.04521920689521 -0.49999999999999994
  endloop
endfacet
facet normal 0.9914448613738107 0.13052619222004955 2.0289103675652474e-16
  outer loop
    vertex -121.70061438277257 -84.78131599954895 -2.3
    vertex -121.8880223381827 -83.3578112514851 -0.49999999999999994
    vertex -121.70061438277257 -84.78131599954897 -0.49999999999999994
  endloop
endfacet
facet normal 0.9914448613738107 0.13052619222004955 2.0289103675652474e-16
  outer loop
    vertex -121.8880223381827 -83.3578112514851 -0.49999999999999994
    vertex -121.70061438277257 -84.78131599954895 -2.3
    vertex -121.8880223381827 -83.3578112514851 -2.3
  endloop
endfacet
facet normal 0.13052619222005515 0.99144486137381 -1.5518125826206768e-15
  outer loop
    vertex -117.81152708624654 -88.67040329607497 -0.49999999999999994
    vertex -116.3880223381827 -88.85781125148509 -2.3
    vertex -117.81152708624654 -88.67040329607497 -2.3
  endloop
endfacet
facet normal 0.13052619222005515 0.99144486137381 -1.5518125826206768e-15
  outer loop
    vertex -116.3880223381827 -88.85781125148509 -2.3
    vertex -117.81152708624654 -88.67040329607497 -0.49999999999999994
    vertex -116.3880223381827 -88.85781125148509 -0.49999999999999994
  endloop
endfacet
facet normal 0.38268343236508956 0.9238795325112868 -1.4543208754595128e-15
  outer loop
    vertex -119.13802233818268 -88.12095097229951 -0.49999999999999994
    vertex -117.81152708624654 -88.67040329607497 -2.3
    vertex -119.13802233818268 -88.12095097229951 -2.3
  endloop
endfacet
facet normal 0.38268343236508956 0.9238795325112868 -1.4543208754595128e-15
  outer loop
    vertex -117.81152708624654 -88.67040329607497 -2.3
    vertex -119.13802233818268 -88.12095097229951 -0.49999999999999994
    vertex -117.81152708624654 -88.67040329607497 -0.49999999999999994
  endloop
endfacet
facet normal 0.608761429008717 0.7933533402912379 6.55347593274054e-16
  outer loop
    vertex -120.2771096347087 -87.2468985480111 -0.49999999999999994
    vertex -119.13802233818268 -88.12095097229951 -2.3
    vertex -120.2771096347087 -87.2468985480111 -2.3
  endloop
endfacet
facet normal 0.608761429008717 0.7933533402912379 6.55347593274054e-16
  outer loop
    vertex -119.13802233818268 -88.12095097229951 -2.3
    vertex -120.2771096347087 -87.2468985480111 -0.49999999999999994
    vertex -119.13802233818268 -88.12095097229951 -0.49999999999999994
  endloop
endfacet
facet normal 0.9914448613738107 -0.13052619222004955 2.0289103675652474e-16
  outer loop
    vertex -121.70061438277257 -81.93430650342123 -2.3
    vertex -121.8880223381827 -83.3578112514851 -0.49999999999999994
    vertex -121.8880223381827 -83.3578112514851 -2.3
  endloop
endfacet
facet normal 0.9914448613738107 -0.13052619222004955 2.0289103675652474e-16
  outer loop
    vertex -121.8880223381827 -83.3578112514851 -0.49999999999999994
    vertex -121.70061438277257 -81.93430650342123 -2.3
    vertex -121.70061438277257 -81.93430650342123 -0.49999999999999994
  endloop
endfacet
facet normal 0.9238795325112871 0.38268343236508917 5.948464214079167e-16
  outer loop
    vertex -121.70061438277257 -84.78131599954895 -2.3
    vertex -121.1511620589971 -86.10781125148509 -0.49999999999999994
    vertex -121.1511620589971 -86.10781125148509 -2.3
  endloop
endfacet
facet normal 0.9238795325112871 0.38268343236508917 5.948464214079167e-16
  outer loop
    vertex -121.1511620589971 -86.10781125148509 -0.49999999999999994
    vertex -121.70061438277257 -84.78131599954895 -2.3
    vertex -121.70061438277257 -84.78131599954897 -0.49999999999999994
  endloop
endfacet
facet normal 0.9238795325112873 -0.38268343236508845 1.197954598668719e-15
  outer loop
    vertex -121.1511620589971 -80.60781125148509 -2.3
    vertex -121.70061438277257 -81.93430650342123 -0.49999999999999994
    vertex -121.70061438277257 -81.93430650342123 -2.3
  endloop
endfacet
facet normal 0.9238795325112873 -0.38268343236508845 1.197954598668719e-15
  outer loop
    vertex -121.70061438277257 -81.93430650342123 -0.49999999999999994
    vertex -121.1511620589971 -80.60781125148509 -2.3
    vertex -121.1511620589971 -80.60781125148509 -0.49999999999999994
  endloop
endfacet
facet normal 0.7933533402912347 0.6087614290087212 1.5241116735320444e-15
  outer loop
    vertex -121.1511620589971 -86.10781125148509 -2.3
    vertex -120.2771096347087 -87.2468985480111 -0.49999999999999994
    vertex -120.2771096347087 -87.2468985480111 -2.3
  endloop
endfacet
facet normal 0.7933533402912347 0.6087614290087212 1.5241116735320444e-15
  outer loop
    vertex -120.2771096347087 -87.2468985480111 -0.49999999999999994
    vertex -121.1511620589971 -86.10781125148509 -2.3
    vertex -121.1511620589971 -86.10781125148509 -0.49999999999999994
  endloop
endfacet
facet normal 0.7933533402912317 -0.6087614290087254 1.1556953361229444e-15
  outer loop
    vertex -120.2771096347087 -79.46872395495907 -2.3
    vertex -121.1511620589971 -80.60781125148509 -0.49999999999999994
    vertex -121.1511620589971 -80.60781125148509 -2.3
  endloop
endfacet
facet normal 0.7933533402912317 -0.6087614290087254 1.1556953361229444e-15
  outer loop
    vertex -121.1511620589971 -80.60781125148509 -0.49999999999999994
    vertex -120.2771096347087 -79.46872395495907 -2.3
    vertex -120.27710963470872 -79.46872395495912 -0.49999999999999994
  endloop
endfacet
facet normal 0.608761429008725 -0.793353340291232 -3.720698652301142e-15
  outer loop
    vertex -119.13802233818267 -78.59467153067067 -0.49999999999999994
    vertex -120.2771096347087 -79.46872395495907 -2.3
    vertex -119.13802233818271 -78.59467153067068 -2.3
  endloop
endfacet
facet normal 0.608761429008725 -0.793353340291232 -3.720698652301142e-15
  outer loop
    vertex -120.2771096347087 -79.46872395495907 -2.3
    vertex -119.13802233818267 -78.59467153067067 -0.49999999999999994
    vertex -120.27710963470872 -79.46872395495912 -0.49999999999999994
  endloop
endfacet
facet normal -0.923879532511286 0.3826834323650919 5.948464214079207e-16
  outer loop
    vertex -111.62488261736827 -86.10781125148509 -0.49999999999999994
    vertex -111.0754302935928 -84.78131599954895 -2.3
    vertex -111.62488261736827 -86.10781125148509 -2.3
  endloop
endfacet
facet normal -0.923879532511286 0.3826834323650919 5.948464214079207e-16
  outer loop
    vertex -111.0754302935928 -84.78131599954895 -2.3
    vertex -111.62488261736827 -86.10781125148509 -0.49999999999999994
    vertex -111.0754302935928 -84.78131599954897 -0.49999999999999994
  endloop
endfacet
facet normal -0.9914448613738107 0.13052619222004908 2.0289103675652395e-16
  outer loop
    vertex -110.88802233818268 -83.35781125148509 -0.49999999999999994
    vertex -111.0754302935928 -84.78131599954895 -2.3
    vertex -111.0754302935928 -84.78131599954897 -0.49999999999999994
  endloop
endfacet
facet normal -0.9914448613738107 0.13052619222004908 2.0289103675652395e-16
  outer loop
    vertex -111.0754302935928 -84.78131599954895 -2.3
    vertex -110.88802233818268 -83.35781125148509 -0.49999999999999994
    vertex -110.88802233818268 -83.3578112514851 -2.3
  endloop
endfacet
facet normal -0.6087614290087258 0.7933533402912314 -4.4023313568383035e-15
  outer loop
    vertex -113.6380223381827 -88.12095097229951 -0.49999999999999994
    vertex -112.49893504165668 -87.2468985480111 -2.3
    vertex -113.6380223381827 -88.12095097229951 -2.3
  endloop
endfacet
facet normal -0.6087614290087258 0.7933533402912314 -4.4023313568383035e-15
  outer loop
    vertex -112.49893504165668 -87.2468985480111 -2.3
    vertex -113.6380223381827 -88.12095097229951 -0.49999999999999994
    vertex -112.49893504165665 -87.24689854801107 -0.49999999999999994
  endloop
endfacet
facet normal -0.13052619222005413 0.99144486137381 -7.346125734624243e-16
  outer loop
    vertex -116.3880223381827 -88.85781125148509 -0.49999999999999994
    vertex -114.9645175901188 -88.67040329607497 -2.3
    vertex -116.3880223381827 -88.85781125148509 -2.3
  endloop
endfacet
facet normal -0.13052619222005413 0.99144486137381 -7.346125734624243e-16
  outer loop
    vertex -114.9645175901188 -88.67040329607497 -2.3
    vertex -116.3880223381827 -88.85781125148509 -0.49999999999999994
    vertex -114.9645175901188 -88.67040329607497 -0.49999999999999994
  endloop
endfacet
facet normal -0.38268343236508895 0.9238795325112871 1.4460591196066253e-15
  outer loop
    vertex -114.9645175901188 -88.67040329607497 -0.49999999999999994
    vertex -113.6380223381827 -88.12095097229951 -2.3
    vertex -114.9645175901188 -88.67040329607497 -2.3
  endloop
endfacet
facet normal -0.38268343236508895 0.9238795325112871 1.4460591196066253e-15
  outer loop
    vertex -113.6380223381827 -88.12095097229951 -2.3
    vertex -114.9645175901188 -88.67040329607497 -0.49999999999999994
    vertex -113.6380223381827 -88.12095097229951 -0.49999999999999994
  endloop
endfacet
facet normal -0.7933533402912335 0.6087614290087231 -2.2872294596132424e-15
  outer loop
    vertex -112.49893504165665 -87.24689854801107 -0.49999999999999994
    vertex -111.62488261736827 -86.10781125148509 -2.3
    vertex -112.49893504165668 -87.2468985480111 -2.3
  endloop
endfacet
facet normal -0.7933533402912335 0.6087614290087231 -2.2872294596132424e-15
  outer loop
    vertex -111.62488261736827 -86.10781125148509 -2.3
    vertex -112.49893504165665 -87.24689854801107 -0.49999999999999994
    vertex -111.62488261736827 -86.10781125148509 -0.49999999999999994
  endloop
endfacet
facet normal -0.5609855267969355 -0.43045933457688074 0.7071067811865432
  outer loop
    vertex -111.62488261736824 -80.60781125148513 -0.49999999999999994
    vertex -112.14233085279305 -79.11211976609536 0.0
    vertex -112.4989350416567 -79.46872395495906 -0.49999999999999994
  endloop
endfacet
facet normal -0.5609855267969355 -0.43045933457688074 0.7071067811865432
  outer loop
    vertex -112.14233085279305 -79.11211976609536 0.0
    vertex -111.62488261736824 -80.60781125148513 -0.49999999999999994
    vertex -111.18813346594071 -80.35565401134009 0.0
  endloop
endfacet
facet normal -0.6532814824381903 -0.27059805007310256 0.7071067811865441
  outer loop
    vertex -111.0754302935928 -81.93430650342121 -0.49999999999999994
    vertex -111.18813346594071 -80.35565401134009 0.0
    vertex -111.62488261736824 -80.60781125148513 -0.49999999999999994
  endloop
endfacet
facet normal -0.6532814824381903 -0.27059805007310256 0.7071067811865441
  outer loop
    vertex -111.18813346594071 -80.35565401134009 0.0
    vertex -111.0754302935928 -81.93430650342121 -0.49999999999999994
    vertex -110.58829991250909 -81.80378031120118 0.0
  endloop
endfacet
facet normal 0.7010573846499757 0.09229595564125806 0.7071067811865497
  outer loop
    vertex -122.18774476385632 -84.91184219176897 0.0
    vertex -121.8880223381827 -83.3578112514851 -0.49999999999999994
    vertex -122.39233681847276 -83.3578112514851 0.0
  endloop
endfacet
facet normal 0.7010573846499757 0.09229595564125806 0.7071067811865497
  outer loop
    vertex -121.8880223381827 -83.3578112514851 -0.49999999999999994
    vertex -122.18774476385632 -84.91184219176897 0.0
    vertex -121.70061438277257 -84.78131599954897 -0.49999999999999994
  endloop
endfacet
facet normal 0.7010573846499756 -0.09229595564125802 0.7071067811865498
  outer loop
    vertex -121.8880223381827 -83.3578112514851 -0.49999999999999994
    vertex -122.18774476385632 -81.80378031120121 0.0
    vertex -122.39233681847276 -83.3578112514851 0.0
  endloop
endfacet
facet normal 0.7010573846499756 -0.09229595564125802 0.7071067811865498
  outer loop
    vertex -122.18774476385632 -81.80378031120121 0.0
    vertex -121.8880223381827 -83.3578112514851 -0.49999999999999994
    vertex -121.70061438277257 -81.93430650342123 -0.49999999999999994
  endloop
endfacet
facet normal -0.09229595564125684 -0.7010573846499801 0.7071067811865455
  outer loop
    vertex -116.38802233818268 -77.85781125148509 -0.49999999999999994
    vertex -114.83399139789879 -77.55808882581148 0.0
    vertex -116.3880223381827 -77.35349677119501 0.0
  endloop
endfacet
facet normal -0.09229595564125684 -0.7010573846499801 0.7071067811865455
  outer loop
    vertex -114.83399139789879 -77.55808882581148 0.0
    vertex -116.38802233818268 -77.85781125148509 -0.49999999999999994
    vertex -114.96451759011883 -78.04521920689521 -0.49999999999999994
  endloop
endfacet
facet normal -0.2705980500730984 -0.6532814824381867 0.7071067811865491
  outer loop
    vertex -113.6380223381827 -78.59467153067068 -0.49999999999999994
    vertex -114.83399139789879 -77.55808882581148 0.0
    vertex -114.96451759011883 -78.04521920689521 -0.49999999999999994
  endloop
endfacet
facet normal -0.2705980500730984 -0.6532814824381867 0.7071067811865491
  outer loop
    vertex -114.83399139789879 -77.55808882581148 0.0
    vertex -113.6380223381827 -78.59467153067068 -0.49999999999999994
    vertex -113.38586509803764 -78.15792237924313 0.0
  endloop
endfacet
facet normal 0.2705980500730965 0.6532814824381836 0.7071067811865526
  outer loop
    vertex -117.94205327846662 -89.1575336771587 0.0
    vertex -119.13802233818268 -88.12095097229951 -0.49999999999999994
    vertex -119.39017957832773 -88.55770012372706 0.0
  endloop
endfacet
facet normal 0.2705980500730965 0.6532814824381836 0.7071067811865526
  outer loop
    vertex -119.13802233818268 -88.12095097229951 -0.49999999999999994
    vertex -117.94205327846662 -89.1575336771587 0.0
    vertex -117.81152708624654 -88.67040329607497 -0.49999999999999994
  endloop
endfacet
facet normal -0.43045933457687624 -0.5609855267969303 0.7071067811865501
  outer loop
    vertex -112.4989350416567 -79.46872395495906 -0.49999999999999994
    vertex -113.38586509803764 -78.15792237924313 0.0
    vertex -113.6380223381827 -78.59467153067068 -0.49999999999999994
  endloop
endfacet
facet normal -0.43045933457687624 -0.5609855267969303 0.7071067811865501
  outer loop
    vertex -113.38586509803764 -78.15792237924313 0.0
    vertex -112.4989350416567 -79.46872395495906 -0.49999999999999994
    vertex -112.14233085279305 -79.11211976609536 0.0
  endloop
endfacet
facet normal 0.43045933457687524 0.5609855267969301 0.7071067811865509
  outer loop
    vertex -119.39017957832773 -88.55770012372706 0.0
    vertex -120.2771096347087 -87.2468985480111 -0.49999999999999994
    vertex -120.63371382357238 -87.6035027368748 0.0
  endloop
endfacet
facet normal 0.43045933457687524 0.5609855267969301 0.7071067811865509
  outer loop
    vertex -120.2771096347087 -87.2468985480111 -0.49999999999999994
    vertex -119.39017957832773 -88.55770012372706 0.0
    vertex -119.13802233818268 -88.12095097229951 -0.49999999999999994
  endloop
endfacet
facet normal 0.09229595564125918 -0.7010573846499789 0.7071067811865464
  outer loop
    vertex -117.81152708624658 -78.04521920689523 -0.49999999999999994
    vertex -116.3880223381827 -77.35349677119501 0.0
    vertex -117.94205327846664 -77.5580888258115 0.0
  endloop
endfacet
facet normal 0.09229595564125918 -0.7010573846499789 0.7071067811865464
  outer loop
    vertex -116.3880223381827 -77.35349677119501 0.0
    vertex -117.81152708624658 -78.04521920689523 -0.49999999999999994
    vertex -116.38802233818268 -77.85781125148509 -0.49999999999999994
  endloop
endfacet
facet normal -0.7010573846499754 -0.09229595564125694 0.7071067811865502
  outer loop
    vertex -110.88802233818268 -83.35781125148509 -0.49999999999999994
    vertex -110.58829991250909 -81.80378031120118 0.0
    vertex -111.0754302935928 -81.93430650342121 -0.49999999999999994
  endloop
endfacet
facet normal -0.7010573846499754 -0.09229595564125694 0.7071067811865502
  outer loop
    vertex -110.58829991250909 -81.80378031120118 0.0
    vertex -110.88802233818268 -83.35781125148509 -0.49999999999999994
    vertex -110.38370785789259 -83.35781125148509 0.0
  endloop
endfacet
facet normal 0.27059805007309806 -0.6532814824381881 0.707106781186548
  outer loop
    vertex -119.13802233818267 -78.59467153067067 -0.49999999999999994
    vertex -117.94205327846664 -77.5580888258115 0.0
    vertex -119.3901795783277 -78.15792237924312 0.0
  endloop
endfacet
facet normal 0.27059805007309806 -0.6532814824381881 0.707106781186548
  outer loop
    vertex -117.94205327846664 -77.5580888258115 0.0
    vertex -119.13802233818267 -78.59467153067067 -0.49999999999999994
    vertex -117.81152708624658 -78.04521920689523 -0.49999999999999994
  endloop
endfacet
facet normal 0.09229595564125888 0.7010573846499768 0.7071067811865485
  outer loop
    vertex -116.3880223381827 -89.36212573177517 0.0
    vertex -117.81152708624654 -88.67040329607497 -0.49999999999999994
    vertex -117.94205327846662 -89.1575336771587 0.0
  endloop
endfacet
facet normal 0.09229595564125888 0.7010573846499768 0.7071067811865485
  outer loop
    vertex -117.81152708624654 -88.67040329607497 -0.49999999999999994
    vertex -116.3880223381827 -89.36212573177517 0.0
    vertex -116.3880223381827 -88.85781125148509 -0.49999999999999994
  endloop
endfacet
facet normal -0.43045933457688246 0.5609855267969281 0.707106781186548
  outer loop
    vertex -113.38586509803768 -88.55770012372709 0.0
    vertex -112.49893504165665 -87.24689854801107 -0.49999999999999994
    vertex -113.6380223381827 -88.12095097229951 -0.49999999999999994
  endloop
endfacet
facet normal -0.43045933457688246 0.5609855267969281 0.707106781186548
  outer loop
    vertex -112.49893504165665 -87.24689854801107 -0.49999999999999994
    vertex -113.38586509803768 -88.55770012372709 0.0
    vertex -112.14233085279298 -87.60350273687476 0.0
  endloop
endfacet
facet normal 0.5609855267969331 0.4304593345768801 0.7071067811865455
  outer loop
    vertex -120.63371382357238 -87.6035027368748 0.0
    vertex -121.1511620589971 -86.10781125148509 -0.49999999999999994
    vertex -121.58791121042464 -86.35996849163014 0.0
  endloop
endfacet
facet normal 0.5609855267969331 0.4304593345768801 0.7071067811865455
  outer loop
    vertex -121.1511620589971 -86.10781125148509 -0.49999999999999994
    vertex -120.63371382357238 -87.6035027368748 0.0
    vertex -120.2771096347087 -87.2468985480111 -0.49999999999999994
  endloop
endfacet
facet normal 0.560985526796927 -0.43045933457688107 0.7071067811865497
  outer loop
    vertex -121.1511620589971 -80.60781125148509 -0.49999999999999994
    vertex -120.63371382357239 -79.11211976609542 0.0
    vertex -121.58791121042464 -80.35565401134004 0.0
  endloop
endfacet
facet normal 0.560985526796927 -0.43045933457688107 0.7071067811865497
  outer loop
    vertex -120.63371382357239 -79.11211976609542 0.0
    vertex -121.1511620589971 -80.60781125148509 -0.49999999999999994
    vertex -120.27710963470872 -79.46872395495912 -0.49999999999999994
  endloop
endfacet
facet normal 0.6532814824381945 -0.27059805007309795 0.7071067811865419
  outer loop
    vertex -121.70061438277257 -81.93430650342123 -0.49999999999999994
    vertex -121.58791121042464 -80.35565401134004 0.0
    vertex -122.18774476385632 -81.80378031120121 0.0
  endloop
endfacet
facet normal 0.6532814824381945 -0.27059805007309795 0.7071067811865419
  outer loop
    vertex -121.58791121042464 -80.35565401134004 0.0
    vertex -121.70061438277257 -81.93430650342123 -0.49999999999999994
    vertex -121.1511620589971 -80.60781125148509 -0.49999999999999994
  endloop
endfacet
facet normal -0.5609855267969299 0.43045933457687935 0.7071067811865485
  outer loop
    vertex -112.14233085279298 -87.60350273687476 0.0
    vertex -111.62488261736827 -86.10781125148509 -0.49999999999999994
    vertex -112.49893504165665 -87.24689854801107 -0.49999999999999994
  endloop
endfacet
facet normal -0.5609855267969299 0.43045933457687935 0.7071067811865485
  outer loop
    vertex -111.62488261736827 -86.10781125148509 -0.49999999999999994
    vertex -112.14233085279298 -87.60350273687476 0.0
    vertex -111.18813346594071 -86.35996849163013 0.0
  endloop
endfacet
facet normal -0.7010573846499757 0.09229595564125735 0.7071067811865498
  outer loop
    vertex -110.58829991250909 -84.91184219176898 0.0
    vertex -110.88802233818268 -83.35781125148509 -0.49999999999999994
    vertex -111.0754302935928 -84.78131599954897 -0.49999999999999994
  endloop
endfacet
facet normal -0.7010573846499757 0.09229595564125735 0.7071067811865498
  outer loop
    vertex -110.88802233818268 -83.35781125148509 -0.49999999999999994
    vertex -110.58829991250909 -84.91184219176898 0.0
    vertex -110.38370785789259 -83.35781125148509 0.0
  endloop
endfacet
facet normal 0.43045933457688157 -0.5609855267969287 0.7071067811865482
  outer loop
    vertex -120.27710963470872 -79.46872395495912 -0.49999999999999994
    vertex -119.3901795783277 -78.15792237924312 0.0
    vertex -120.63371382357239 -79.11211976609542 0.0
  endloop
endfacet
facet normal 0.43045933457688157 -0.5609855267969287 0.7071067811865482
  outer loop
    vertex -119.3901795783277 -78.15792237924312 0.0
    vertex -120.27710963470872 -79.46872395495912 -0.49999999999999994
    vertex -119.13802233818267 -78.59467153067067 -0.49999999999999994
  endloop
endfacet
facet normal -0.6532814824381935 0.2705980500731026 0.7071067811865412
  outer loop
    vertex -111.18813346594071 -86.35996849163013 0.0
    vertex -111.0754302935928 -84.78131599954897 -0.49999999999999994
    vertex -111.62488261736827 -86.10781125148509 -0.49999999999999994
  endloop
endfacet
facet normal -0.6532814824381935 0.2705980500731026 0.7071067811865412
  outer loop
    vertex -111.0754302935928 -84.78131599954897 -0.49999999999999994
    vertex -111.18813346594071 -86.35996849163013 0.0
    vertex -110.58829991250909 -84.91184219176898 0.0
  endloop
endfacet
facet normal -0.09229595564125957 0.7010573846499794 0.7071067811865458
  outer loop
    vertex -114.83399139789873 -89.1575336771587 0.0
    vertex -116.3880223381827 -88.85781125148509 -0.49999999999999994
    vertex -116.3880223381827 -89.36212573177517 0.0
  endloop
endfacet
facet normal -0.09229595564125957 0.7010573846499794 0.7071067811865458
  outer loop
    vertex -116.3880223381827 -88.85781125148509 -0.49999999999999994
    vertex -114.83399139789873 -89.1575336771587 0.0
    vertex -114.9645175901188 -88.67040329607497 -0.49999999999999994
  endloop
endfacet
facet normal -0.27059805007309806 0.6532814824381881 0.707106781186548
  outer loop
    vertex -114.83399139789873 -89.1575336771587 0.0
    vertex -113.6380223381827 -88.12095097229951 -0.49999999999999994
    vertex -114.9645175901188 -88.67040329607497 -0.49999999999999994
  endloop
endfacet
facet normal -0.27059805007309806 0.6532814824381881 0.707106781186548
  outer loop
    vertex -113.6380223381827 -88.12095097229951 -0.49999999999999994
    vertex -114.83399139789873 -89.1575336771587 0.0
    vertex -113.38586509803768 -88.55770012372709 0.0
  endloop
endfacet
facet normal 0.6532814824381946 0.27059805007309967 0.7071067811865414
  outer loop
    vertex -121.58791121042464 -86.35996849163014 0.0
    vertex -121.70061438277257 -84.78131599954897 -0.49999999999999994
    vertex -122.18774476385632 -84.91184219176897 0.0
  endloop
endfacet
facet normal 0.6532814824381946 0.27059805007309967 0.7071067811865414
  outer loop
    vertex -121.70061438277257 -84.78131599954897 -0.49999999999999994
    vertex -121.58791121042464 -86.35996849163014 0.0
    vertex -121.1511620589971 -86.10781125148509 -0.49999999999999994
  endloop
endfacet
endsolid Remote Control
